<svg preserveAspectRatio="none" width="100%" height="100%" overflow="visible" style="display: block;" viewBox="0 0 40 40" fill="none" xmlns="http://www.w3.org/2000/svg">
<g id="_Instagram">
<rect width="40" height="40" rx="20" fill="var(--fill-0, #E8E8E8)"/>
<path id="Vector" d="M24.5249 8.33398H20.1796V25.1359C20.1796 27.1379 18.5083 28.7823 16.4285 28.7823C14.3487 28.7823 12.6774 27.1379 12.6774 25.1359C12.6774 23.1698 14.3115 21.561 16.3171 21.4895V17.2712C11.8974 17.3427 8.33203 20.8103 8.33203 25.1359C8.33203 29.4973 11.9717 33.0007 16.4656 33.0007C20.9595 33.0007 24.5992 29.4615 24.5992 25.1359V16.5204C26.2333 17.6644 28.2389 18.3436 30.3558 18.3794V14.161C27.0876 14.0538 24.5249 11.4799 24.5249 8.33398Z" fill="var(--fill-0, #716F6A)"/>
</g>
</svg>
