<svg preserveAspectRatio="none" width="100%" height="100%" overflow="visible" style="display: block;" viewBox="0 0 45.9142 54.907" fill="none" xmlns="http://www.w3.org/2000/svg">
<g id="Group 691313484">
<path id="Vector" d="M14.7284 49.4639C15.8709 46.4577 14.3602 43.0946 11.354 41.952C8.34787 40.8095 4.9847 42.3203 3.84217 45.3264C2.69964 48.3326 4.2104 51.6957 7.21655 52.8383C10.2227 53.9808 13.5859 52.47 14.7284 49.4639Z" fill="var(--fill-0, #CFCDC9)"/>
<path id="Vector_2" d="M19.8587 4.8978C19.4224 4.11292 18.8677 3.4004 18.2341 2.77337C16.6687 1.29351 14.5772 0 12.3322 0L0 0.00438478C0.00438478 0.0438478 0.00657717 0.499865 0.00876955 0.539328C0.565636 0.629216 1.10935 0.760759 1.62894 0.955882C3.52317 1.66183 5.03372 3.13292 6.01372 4.89999L25.7364 40.5548C25.7364 40.5548 27.8411 38.4808 29.9985 36.3235C32.7543 33.5677 33.3572 29.321 31.4717 25.9097L19.8587 4.8978Z" fill="var(--fill-0, #CFCDC9)"/>
<path id="Vector_3" d="M44.6951 5.29462C43.1341 2.50809 40.3827 0.401207 37.4317 0.0701564C37.1599 0.039463 34.2001 0 34.2001 0H27.4805C27.4849 0.0416554 27.487 0.497672 27.4892 0.537135C28.0461 0.627023 28.5898 0.758566 29.1094 0.953689C31.0036 1.65964 32.5142 3.13073 33.4942 4.8978C33.4942 4.8978 33.5117 4.88245 33.5205 4.87587L41.0338 18.2867C45.6313 15.7107 47.2712 9.89425 44.6951 5.29681V5.29462Z" fill="var(--fill-0, #CFCDC9)"/>
</g>
</svg>
