<svg preserveAspectRatio="none" width="100%" height="100%" overflow="visible" style="display: block;" viewBox="0 0 40.082 40" fill="none" xmlns="http://www.w3.org/2000/svg">
<g id="_Instagram">
<circle id="Ellipse 67" cx="19.9375" cy="20.0625" r="19.9375" fill="var(--fill-0, #E8E8E8)"/>
<path id="Vector" d="M15.5451 19.8577C15.5451 17.4293 17.5132 15.4601 19.9417 15.4601C22.3701 15.4601 24.3392 17.4293 24.3392 19.8577C24.3392 22.2861 22.3701 24.2553 19.9417 24.2553C17.5132 24.2553 15.5451 22.2861 15.5451 19.8577M13.1679 19.8577C13.1679 23.5988 16.2005 26.6314 19.9417 26.6314C23.6828 26.6314 26.7154 23.5988 26.7154 19.8577C26.7154 16.1165 23.6828 13.0839 19.9417 13.0839C16.2005 13.0839 13.168 16.1163 13.168 19.8577M25.4007 12.8153C25.4006 13.1284 25.4933 13.4345 25.6671 13.6949C25.841 13.9553 26.0881 14.1583 26.3773 14.2782C26.6665 14.3982 26.9848 14.4296 27.2919 14.3687C27.599 14.3077 27.8811 14.1571 28.1026 13.9358C28.3241 13.7145 28.4749 13.4325 28.5362 13.1254C28.5974 12.8184 28.5661 12.5001 28.4464 12.2108C28.3267 11.9215 28.1239 11.6742 27.8637 11.5001C27.6034 11.3261 27.2974 11.2331 26.9843 11.233H26.9837C26.564 11.2332 26.1616 11.3999 25.8648 11.6966C25.568 11.9933 25.4011 12.3957 25.4007 12.8153M14.6122 30.5955C13.3261 30.5369 12.627 30.3227 12.1625 30.1417C11.5466 29.9019 11.1072 29.6163 10.6451 29.155C10.1831 28.6936 9.89711 28.2545 9.65839 27.6387C9.4773 27.1743 9.26307 26.475 9.2046 25.1889C9.14065 23.7984 9.12788 23.3807 9.12788 19.8579C9.12788 16.3351 9.1417 15.9185 9.2046 14.5269C9.26317 13.2407 9.47899 12.5429 9.65839 12.0771C9.89816 11.4612 10.1837 11.0218 10.6451 10.5598C11.1065 10.0977 11.5455 9.81175 12.1625 9.57304C12.6268 9.39194 13.3261 9.17771 14.6122 9.11924C16.0027 9.05529 16.4204 9.04252 19.9417 9.04252C23.4629 9.04252 23.881 9.05613 25.2727 9.11945C26.5588 9.17803 27.2567 9.39384 27.7224 9.57325C28.3383 9.81196 28.7778 10.0986 29.2398 10.56C29.7018 11.0214 29.9867 11.4615 30.2265 12.0773C30.4076 12.5417 30.6218 13.241 30.6803 14.5271C30.7443 15.9188 30.757 16.3353 30.757 19.8581C30.757 23.3809 30.7443 23.7975 30.6803 25.1891C30.6217 26.4753 30.4065 27.1743 30.2265 27.6389C29.9867 28.2548 29.7012 28.6942 29.2398 29.1552C28.7784 29.6161 28.3383 29.9021 27.7224 30.1419C27.2581 30.323 26.5588 30.5372 25.2727 30.5957C23.8822 30.6597 23.4645 30.6724 19.9417 30.6724C16.4189 30.6724 16.0023 30.6597 14.6122 30.5957M14.503 6.7459C13.0987 6.80986 12.1391 7.03253 11.301 7.35863C10.4336 7.69539 9.69839 8.14718 8.96419 8.88021C8.23 9.61325 7.77937 10.3486 7.44262 11.217C7.11652 12.0556 6.89384 13.0147 6.82989 14.419C6.76488 15.8256 6.75 16.2752 6.75 19.8577C6.75 23.4401 6.76488 23.8898 6.82989 25.2963C6.89384 26.7008 7.11652 27.6598 7.44262 28.4983C7.77937 29.3657 8.2301 30.1024 8.96419 30.8352C9.69828 31.5679 10.4326 32.019 11.301 32.3567C12.1406 32.6828 13.0987 32.9055 14.503 32.9695C15.9103 33.0334 16.3592 33.0493 19.9417 33.0493C23.5241 33.0493 23.9738 33.0345 25.3803 32.9695C26.7848 32.9055 27.7437 32.6828 28.5823 32.3567C29.4497 32.019 30.1849 31.5682 30.9191 30.8352C31.6533 30.1021 32.103 29.3657 32.4407 28.4983C32.7668 27.6598 32.9905 26.7007 33.0534 25.2963C33.1174 23.8887 33.1323 23.4401 33.1323 19.8577C33.1323 16.2752 33.1174 15.8256 33.0534 14.419C32.9895 13.0146 32.7668 12.0551 32.4407 11.217C32.103 10.3497 31.6522 9.61441 30.9191 8.88021C30.1861 8.14602 29.4497 7.69539 28.5834 7.35863C27.7437 7.03253 26.7847 6.8088 25.3814 6.7459C23.9746 6.68163 23.5252 6.66602 19.9432 6.66602C16.3613 6.66602 15.9108 6.6809 14.5035 6.7459" fill="var(--fill-0, #716F6A)"/>
</g>
</svg>
