<svg preserveAspectRatio="none" width="100%" height="100%" overflow="visible" style="display: block;" viewBox="0 0 36.483 35.3064" fill="none" xmlns="http://www.w3.org/2000/svg">
<g id="_Instagram">
<ellipse id="Ellipse 67" cx="18.148" cy="17.7084" rx="18.148" ry="17.598" fill="var(--fill-0, #C4C2BE)"/>
<path id="Vector" d="M14.1476 17.5276C14.1476 15.3841 15.939 13.646 18.1495 13.646C20.3599 13.646 22.1523 15.3841 22.1523 17.5276C22.1523 19.6711 20.3599 21.4091 18.1495 21.4091C15.939 21.4091 14.1476 19.6711 14.1476 17.5276M11.9837 17.5276C11.9837 20.8298 14.7441 23.5065 18.1495 23.5065C21.5548 23.5065 24.3152 20.8298 24.3152 17.5276C24.3152 14.2254 21.5548 11.5487 18.1495 11.5487C14.7441 11.5487 11.9838 14.2252 11.9838 17.5276M23.1185 11.3116C23.1184 11.5879 23.2028 11.8581 23.361 12.088C23.5192 12.3178 23.7442 12.497 24.0075 12.6028C24.2707 12.7087 24.5604 12.7365 24.84 12.6827C25.1195 12.6289 25.3763 12.4959 25.5779 12.3005C25.7795 12.1052 25.9168 11.8563 25.9725 11.5853C26.0282 11.3143 25.9998 11.0333 25.8909 10.778C25.7819 10.5226 25.5973 10.3043 25.3604 10.1507C25.1235 9.99706 24.845 9.91501 24.56 9.9149H24.5594C24.1774 9.91507 23.8111 10.0623 23.5409 10.3241C23.2708 10.586 23.1188 10.9412 23.1185 11.3116M13.2984 27.0054C12.1277 26.9537 11.4914 26.7646 11.0685 26.6049C10.5079 26.3932 10.1079 26.1412 9.68734 25.7339C9.26679 25.3267 9.00646 24.9392 8.78917 24.3955C8.62433 23.9857 8.42933 23.3685 8.37611 22.2332C8.3179 21.0059 8.30627 20.6372 8.30627 17.5278C8.30627 14.4183 8.31886 14.0507 8.37611 12.8223C8.42942 11.6871 8.62587 11.0711 8.78917 10.66C9.00742 10.1164 9.26736 9.7285 9.68734 9.32069C10.1073 8.91288 10.5069 8.66044 11.0685 8.44974C11.4912 8.28989 12.1277 8.1008 13.2984 8.04919C14.5641 7.99274 14.9443 7.98147 18.1495 7.98147C21.3546 7.98147 21.7352 7.99349 23.002 8.04938C24.1727 8.10108 24.8079 8.29157 25.2318 8.44992C25.7924 8.66063 26.1924 8.91362 26.613 9.32088C27.0336 9.72813 27.2929 10.1166 27.5112 10.6602C27.676 11.07 27.871 11.6873 27.9242 12.8225C27.9824 14.0509 27.9941 14.4185 27.9941 17.528C27.9941 20.6374 27.9824 21.0051 27.9242 22.2334C27.8709 23.3687 27.675 23.9857 27.5112 24.3957C27.2929 24.9393 27.033 25.3272 26.613 25.7341C26.193 26.141 25.7924 26.3934 25.2318 26.6051C24.8092 26.7649 24.1727 26.954 23.002 27.0056C21.7363 27.0621 21.3561 27.0733 18.1495 27.0733C14.9428 27.0733 14.5637 27.0621 13.2984 27.0056M13.1989 5.95434C11.9207 6.01079 11.0472 6.20734 10.2844 6.49517C9.49484 6.79241 8.82558 7.19119 8.15728 7.83821C7.48899 8.48523 7.07881 9.1343 6.77228 9.90083C6.47545 10.641 6.27276 11.4875 6.21454 12.7271C6.15537 13.9686 6.14183 14.3655 6.14183 17.5276C6.14183 20.6897 6.15537 21.0866 6.21454 22.3281C6.27276 23.5677 6.47545 24.4142 6.77228 25.1543C7.07881 25.9199 7.48908 26.5702 8.15728 27.217C8.82548 27.8637 9.49388 28.2619 10.2844 28.56C11.0486 28.8478 11.9207 29.0444 13.1989 29.1008C14.4799 29.1573 14.8886 29.1713 18.1495 29.1713C21.4103 29.1713 21.8197 29.1582 23.1 29.1008C24.3783 29.0444 25.2512 28.8478 26.0145 28.56C26.8041 28.2619 27.4733 27.864 28.1416 27.217C28.8099 26.5699 29.2192 25.9199 29.5266 25.1543C29.8235 24.4142 30.0271 23.5676 30.0844 22.3281C30.1426 21.0856 30.1561 20.6897 30.1561 17.5276C30.1561 14.3655 30.1426 13.9686 30.0844 12.7271C30.0261 11.4875 29.8235 10.6405 29.5266 9.90083C29.2192 9.13523 28.8089 8.48625 28.1416 7.83821C27.4744 7.19016 26.8041 6.79241 26.0155 6.49517C25.2512 6.20734 24.3782 6.00986 23.1009 5.95434C21.8204 5.89761 21.4113 5.88383 18.1509 5.88383C14.8905 5.88383 14.4804 5.89696 13.1994 5.95434" fill="var(--fill-0, #716F6A)"/>
</g>
</svg>
