<svg preserveAspectRatio="none" width="100%" height="100%" overflow="visible" style="display: block;" viewBox="0 0 45.9133 54.907" fill="none" xmlns="http://www.w3.org/2000/svg">
<g id="Group 691313484">
<path id="Vector" d="M14.7264 49.4639C15.869 46.4577 14.3582 43.0946 11.3521 41.952C8.34591 40.8095 4.98275 42.3203 3.84022 45.3264C2.69769 48.3326 4.20845 51.6957 7.2146 52.8383C10.2207 53.9808 13.5839 52.47 14.7264 49.4639Z" fill="var(--fill-0, #CFCDC9)"/>
<path id="Vector_2" d="M19.8587 4.8978C19.4224 4.11292 18.8677 3.4004 18.2341 2.77337C16.6687 1.29351 14.5772 0 12.3322 0L0 0.00438478C0.00438478 0.0438478 0.00657717 0.499865 0.00876955 0.539328C0.565636 0.629216 1.10935 0.760759 1.62894 0.955882C3.52317 1.66183 5.03372 3.13292 6.01372 4.89999L25.7364 40.5548C25.7364 40.5548 27.8411 38.4808 29.9985 36.3235C32.7543 33.5677 33.3572 29.321 31.4717 25.9097L19.8587 4.8978Z" fill="var(--fill-0, #CFCDC9)"/>
<path id="Vector_3" d="M44.6941 5.29462C43.1331 2.50809 40.3817 0.401207 37.4307 0.0701564C37.1589 0.039463 34.1992 0 34.1992 0H27.4795C27.4839 0.0416554 27.4861 0.497672 27.4883 0.537135C28.0451 0.627023 28.5888 0.758566 29.1084 0.953689C31.0027 1.65964 32.5132 3.13073 33.4932 4.8978C33.4932 4.8978 33.5108 4.88245 33.5195 4.87587L41.0328 18.2867C45.6303 15.7107 47.2702 9.89425 44.6941 5.29681V5.29462Z" fill="var(--fill-0, #CFCDC9)"/>
</g>
</svg>
