<svg preserveAspectRatio="none" width="100%" height="100%" overflow="visible" style="display: block;" viewBox="0 0 36.4097 35.3064" fill="none" xmlns="http://www.w3.org/2000/svg">
<g id="_Instagram">
<rect width="36.4097" height="35.3064" rx="17.6532" fill="var(--fill-0, #C4C2BE)"/>
<path id="Vector" d="M22.3244 7.35645H18.3691V22.1868C18.3691 23.9539 16.8479 25.4054 14.9547 25.4054C13.0616 25.4054 11.5403 23.9539 11.5403 22.1868C11.5403 20.4514 13.0277 19.0314 14.8533 18.9683V15.245C10.8303 15.308 7.58496 18.3688 7.58496 22.1868C7.58496 26.0365 10.898 29.1287 14.9885 29.1287C19.079 29.1287 22.392 26.0049 22.392 22.1868V14.5823C23.8795 15.5921 25.705 16.1916 27.632 16.2231V12.4998C24.6571 12.4051 22.3244 10.1332 22.3244 7.35645Z" fill="var(--fill-0, #716F6A)"/>
</g>
</svg>
