<svg preserveAspectRatio="none" width="100%" height="100%" overflow="visible" style="display: block;" viewBox="0 0 53.1435 80.941" fill="none" xmlns="http://www.w3.org/2000/svg">
<g id="Group">
<path id="Vector" d="M53.1421 0.735208C42.4088 0.755849 34.8233 5.22456 32.0058 13.0577C30.9428 15.8958 30.6022 18.9506 30.9841 21.9539C31.3246 23.0581 31.4794 24.214 31.4485 25.3699C30.9324 29.0955 27.3719 32.3052 27.8363 33.523C28.2491 34.5963 30.7157 35.4942 31.0976 36.165C31.7787 37.3828 32.3051 38.9308 32.5115 42.1405C32.6663 44.4522 33.0791 45.99 34.524 46.9498C36.3817 48.1882 38.5902 47.7341 42.5327 47.7341C44.0291 47.7548 45.4224 48.4978 46.2893 49.7259C48.7249 52.9665 48.0644 57.5797 44.8238 60.005C44.7928 60.0257 44.7516 60.0566 44.7206 60.0773C42.3779 61.8214 39.4675 64.0196 37.0112 66.0011C31.9232 70.088 32.6147 73.8446 32.6147 73.8446" stroke="var(--stroke-0, #666460)" stroke-width="1.47042" stroke-miterlimit="10"/>
<path id="Vector_2" d="M38.6013 4.64585C27.9713 4.66649 20.4579 9.09393 17.6714 16.8445C16.6187 19.6516 16.2782 22.6755 16.66 25.6478C17.0006 26.7417 17.1554 27.8873 17.1244 29.0328C16.6084 32.7275 13.0891 35.9062 13.5536 37.1034C13.9664 38.1664 16.402 39.0539 16.7839 39.7247C17.465 40.9322 17.981 42.4596 18.1874 45.6383C18.3422 47.9294 18.7447 49.4465 20.1793 50.4063C22.0267 51.6344 24.2043 51.1803 28.1157 51.1803C29.6019 51.201 30.9745 51.9337 31.8311 53.1515C34.2461 56.3611 33.5856 60.9227 30.3759 63.3377C30.345 63.3583 30.314 63.3893 30.2727 63.4099C27.9506 65.1438 25.0712 67.3214 22.6356 69.2719C17.5992 73.3175 18.2906 77.0431 18.2906 77.0431" stroke="var(--stroke-0, #666460)" stroke-width="1.47042" stroke-miterlimit="10"/>
<path id="Vector_3" d="M14.6897 9.75437C9.9216 11.7462 6.52617 16.6484 4.85425 21.3029C3.8222 24.079 3.47131 27.0616 3.85316 30.0029C4.19374 31.0865 4.33823 32.2115 4.30726 33.3467C3.80156 37.0001 0.313242 40.1375 0.777663 41.3243C1.18016 42.377 3.59515 43.2542 3.96669 43.9147C4.63752 45.1016 5.15354 46.6187 5.34963 49.7664C5.49412 52.0265 5.89662 53.5333 7.32084 54.4828C9.14757 55.6903 11.3045 55.2568 15.1644 55.2568C16.6299 55.2775 17.9922 55.9999 18.8385 57.197C21.2225 60.3757 20.5827 64.8754 17.4039 67.2594C17.373 67.28 17.342 67.311 17.3007 67.3316C15.0096 69.0448 12.1611 71.1915 9.75648 73.1317C4.78201 77.136 5.45284 80.81 5.45284 80.81" stroke="var(--stroke-0, #666460)" stroke-width="1.47042" stroke-miterlimit="10"/>
</g>
</svg>
