<svg preserveAspectRatio="none" width="100%" height="100%" overflow="visible" style="display: block;" viewBox="0 0 59.8248 59.8248" fill="none" xmlns="http://www.w3.org/2000/svg">
<path id="Vector" d="M27.0781 57.7568C26.4418 57.6876 25.8344 57.6043 25.2607 57.5107C25.8475 57.3787 26.4281 57.2244 27.002 57.0488L27.0781 57.7568ZM33.7471 45.0127L33.7461 45.0098C33.7458 45.0081 33.7454 45.0065 33.7451 45.0049C33.7456 45.0075 33.7466 45.0101 33.7471 45.0127ZM34.2031 32.7324C34.0104 33.0979 33.8214 33.4776 33.6436 33.874L33.1523 33.5459C33.5014 33.269 33.8514 32.9994 34.2031 32.7324ZM57.8594 30.4941C57.8324 30.8711 57.7984 31.2477 57.7598 31.624L57.3086 31.457C57.4856 31.1755 57.6565 30.8796 57.8203 30.5693L57.8213 30.5703C57.8346 30.5452 57.8462 30.5193 57.8594 30.4941Z" stroke="var(--stroke-0, #595959)" stroke-width="3.74347"/>
</svg>
