<svg preserveAspectRatio="none" width="100%" height="100%" overflow="visible" style="display: block;" viewBox="0 0 38.2106 58.1962" fill="none" xmlns="http://www.w3.org/2000/svg">
<g id="Group">
<path id="Vector" d="M38.2095 0.528607C30.4924 0.543447 25.0385 3.75641 23.0128 9.38838C22.2485 11.4289 22.0036 13.6253 22.2782 15.7846C22.523 16.5786 22.6343 17.4097 22.6121 18.2407C22.2411 20.9194 19.6811 23.2271 20.015 24.1027C20.3118 24.8744 22.0852 25.52 22.3598 26.0023C22.8495 26.8779 23.228 27.9909 23.3764 30.2986C23.4877 31.9608 23.7845 33.0664 24.8233 33.7565C26.159 34.6469 27.7469 34.3204 30.5815 34.3204C31.6574 34.3352 32.6592 34.8695 33.2825 35.7525C35.0337 38.0825 34.5588 41.3993 32.2288 43.1431C32.2065 43.1579 32.1768 43.1802 32.1546 43.195C30.4702 44.449 28.3777 46.0295 26.6116 47.4542C22.9534 50.3926 23.4506 53.0936 23.4506 53.0936" stroke="var(--stroke-0, #666460)" stroke-width="1.05722" stroke-miterlimit="10"/>
<path id="Vector_2" d="M27.7549 3.34041C20.112 3.35525 14.7101 6.53853 12.7066 12.1111C11.9497 14.1294 11.7049 16.3036 11.9794 18.4406C12.2243 19.2271 12.3356 20.0508 12.3133 20.8744C11.9423 23.5309 9.41198 25.8163 9.74589 26.6771C10.0427 27.4414 11.7939 28.0795 12.0684 28.5618C12.5582 29.43 12.9292 30.5282 13.0776 32.8136C13.1889 34.4609 13.4783 35.5517 14.5097 36.2418C15.838 37.1248 17.4036 36.7983 20.2159 36.7983C21.2844 36.8131 22.2714 37.34 22.8872 38.2155C24.6236 40.5232 24.1487 43.803 21.841 45.5393C21.8187 45.5542 21.7965 45.5764 21.7668 45.5913C20.0972 46.8379 18.0269 48.4035 16.2758 49.806C12.6546 52.7147 13.1518 55.3934 13.1518 55.3934" stroke="var(--stroke-0, #666460)" stroke-width="1.05722" stroke-miterlimit="10"/>
<path id="Vector_3" d="M10.5617 7.01363C7.13351 8.44574 4.69224 11.9704 3.49015 15.3169C2.74812 17.3129 2.49583 19.4574 2.77038 21.5721C3.01525 22.3513 3.11913 23.1601 3.09687 23.9763C2.73328 26.6031 0.225218 28.8588 0.559132 29.7122C0.848523 30.469 2.58487 31.0997 2.852 31.5746C3.33432 32.428 3.70534 33.5187 3.84632 35.7819C3.95021 37.4069 4.2396 38.4903 5.2636 39.173C6.57699 40.0411 8.12783 39.7295 10.903 39.7295C11.9567 39.7443 12.9362 40.2637 13.5446 41.1245C15.2587 43.4099 14.7987 46.6452 12.5132 48.3592C12.491 48.3741 12.4687 48.3963 12.439 48.4112C10.7917 49.6429 8.74372 51.1863 7.01479 52.5813C3.43821 55.4604 3.92053 58.102 3.92053 58.102" stroke="var(--stroke-0, #666460)" stroke-width="1.05722" stroke-miterlimit="10"/>
</g>
</svg>
