<svg preserveAspectRatio="none" width="100%" height="100%" overflow="visible" style="display: block;" viewBox="0 0 215.879 86.0748" fill="none" xmlns="http://www.w3.org/2000/svg">
<g id="Group 1000004786">
<path id="Vector" d="M62.9192 36.3322C62.9192 35.1552 61.9545 34.1904 60.7775 34.1904C59.6005 34.1904 58.6357 35.1552 58.6357 36.3322C58.6357 37.5092 59.6005 38.4739 60.7775 38.4739C61.9545 38.4739 62.9192 37.5092 62.9192 36.3322Z" fill="var(--fill-0, #716E6A)"/>
<path id="Vector_2" d="M86.0552 41.6772C86.0552 41.4457 86.0552 41.2141 86.0359 40.9826C86.0359 40.8475 86.0359 40.7317 86.0166 40.5967C86.0166 40.3844 85.9973 40.1529 85.978 39.9407C85.978 39.8056 85.978 39.6898 85.9588 39.5548C85.9588 39.3232 85.9202 39.0917 85.9009 38.8601C85.9009 38.7444 85.8816 38.6479 85.8623 38.5321C85.8237 38.2041 85.7851 37.8954 85.7465 37.5674C85.7465 37.5674 85.7465 37.5481 85.7465 37.5288C85.7079 37.2008 85.65 36.8728 85.6114 36.5448C85.6114 36.429 85.5729 36.3325 85.5536 36.2167C85.515 35.9852 85.4764 35.773 85.4378 35.5607C85.4185 35.4449 85.3992 35.3099 85.3606 35.1941C85.322 34.9819 85.2834 34.7889 85.2448 34.5767C85.2255 34.4416 85.187 34.3258 85.1677 34.1908C85.1291 33.9785 85.0712 33.7663 85.0326 33.554C85.0133 33.4383 84.9747 33.3225 84.9554 33.2067C84.8975 32.9173 84.8204 32.6279 84.7432 32.3578C84.7432 32.3192 84.7239 32.2613 84.7046 32.2227C84.6274 31.914 84.5502 31.6246 84.4538 31.3351C84.4152 31.2194 84.3959 31.1036 84.3573 30.9878C84.2994 30.7949 84.2415 30.5826 84.1836 30.3897C84.145 30.2546 84.1064 30.1388 84.0679 30.0038C84.01 29.8108 83.9521 29.6372 83.8942 29.4442C83.8556 29.3092 83.817 29.1934 83.7591 29.0583C83.7013 28.8654 83.6241 28.6917 83.5662 28.4988C83.5276 28.383 83.489 28.248 83.4311 28.1322C83.3539 27.9006 83.2575 27.6691 83.161 27.4376C83.1224 27.3218 83.0645 27.206 83.0259 27.0903C82.9295 26.8394 82.833 26.6079 82.7365 26.3571C82.6786 26.222 82.6207 26.1062 82.5821 25.9904C82.505 25.8168 82.4278 25.6431 82.3506 25.4888C82.2927 25.3537 82.2348 25.2187 82.1577 25.0836C82.0805 24.9292 82.0033 24.7749 81.9454 24.6205C81.8875 24.4854 81.8104 24.3504 81.7525 24.2153C81.6753 24.061 81.5981 23.9066 81.5209 23.7522C81.463 23.6172 81.3859 23.4821 81.3087 23.347C81.2122 23.1734 81.135 23.019 81.0386 22.8454C80.9228 22.6331 80.807 22.4209 80.6912 22.2279C80.5948 22.0543 80.4983 21.8999 80.4211 21.7263C80.3439 21.5912 80.2668 21.4369 80.1703 21.3018C80.0931 21.1667 80.0159 21.0317 79.9387 20.8966C79.8423 20.7422 79.7651 20.6072 79.6686 20.4721C79.5914 20.3563 79.5143 20.2213 79.4371 20.1055C79.3406 19.9511 79.2441 19.8161 79.1669 19.6617C79.0898 19.546 79.0126 19.4302 78.9354 19.3144C78.8389 19.1601 78.7425 19.025 78.646 18.8706C78.5688 18.7742 78.5109 18.6584 78.4337 18.5619C78.2215 18.2532 77.99 17.9445 77.7777 17.6358C77.7198 17.5586 77.6619 17.4814 77.6041 17.4042C77.4883 17.2499 77.3725 17.0955 77.2568 16.9411C77.1796 16.8447 77.1217 16.7482 77.0445 16.6517C76.9287 16.4974 76.813 16.343 76.6779 16.1886C76.6007 16.0922 76.5235 16.015 76.4657 15.9185C76.3499 15.7642 76.2148 15.6098 76.0991 15.4554C76.0219 15.3783 75.964 15.3011 75.8868 15.2046C75.7518 15.0502 75.6167 14.8766 75.4816 14.7222C75.443 14.6836 75.4044 14.645 75.3852 14.6065C74.8835 14.0469 74.3625 13.4874 73.8416 12.9471C73.7837 12.8892 73.7258 12.8313 73.6872 12.7734C73.5328 12.6191 73.3785 12.4647 73.2241 12.3104C73.1662 12.2525 73.1084 12.1946 73.0312 12.1367C72.8768 11.9824 72.7032 11.828 72.5488 11.6736C72.4909 11.6158 72.4523 11.5772 72.3944 11.5193C72.0085 11.1527 71.6034 10.8054 71.1982 10.4388C70.793 10.0915 70.3878 9.74415 69.9633 9.41613C69.9247 9.39684 69.9054 9.35825 69.8668 9.33895C69.6739 9.18459 69.4809 9.03023 69.288 8.87587C69.2494 8.83729 69.1915 8.7987 69.1529 8.7794C68.9599 8.62504 68.767 8.48998 68.5548 8.33562C68.5162 8.31632 68.4969 8.29703 68.4583 8.25844C67.9566 7.89184 67.4357 7.52523 66.9147 7.17792C66.5095 6.9078 66.1043 6.63767 65.6798 6.38683C65.6798 6.38683 65.6798 6.38683 65.6605 6.38683C65.429 6.25177 65.1974 6.09741 64.9659 5.96235C64.9466 5.96235 64.908 5.92376 64.8887 5.90446C64.6572 5.7694 64.4257 5.63433 64.1941 5.49927C64.1941 5.49927 64.1748 5.49927 64.1555 5.47997C63.3837 5.03619 62.5926 4.631 61.7823 4.2451C61.2999 4.01356 60.8175 3.78202 60.3158 3.56978C60.3158 3.56978 60.2772 3.56978 60.258 3.55048C60.0071 3.43471 59.737 3.31895 59.4862 3.22247C58.5986 2.85587 57.6724 2.50856 56.7656 2.19984C56.3025 2.04548 55.8394 1.89112 55.3763 1.75606C55.3763 1.75606 55.357 1.75606 55.3378 1.75606C55.0869 1.67888 54.8168 1.6017 54.566 1.52452C54.566 1.52452 54.5274 1.52452 54.5081 1.52452C50.8806 0.521185 47.0602 0.000223104 43.1048 0.000223104C36.8147 0.000223104 30.8332 1.35087 25.45 3.78202C25.3728 3.82061 25.2956 3.8592 25.2184 3.8785C25.0255 3.97497 24.8132 4.07145 24.6203 4.14863C24.5238 4.18722 24.4273 4.2451 24.3116 4.30298C24.0607 4.41875 23.8099 4.55382 23.5591 4.66959C23.4819 4.70818 23.4047 4.74677 23.3082 4.80465C23.1153 4.90113 22.9223 4.9976 22.7487 5.09408C22.6522 5.15196 22.5557 5.19055 22.4593 5.24843C22.2277 5.3835 21.9769 5.51856 21.7453 5.65363C21.6682 5.69222 21.5717 5.7501 21.4945 5.80799C21.3209 5.90446 21.1279 6.02023 20.9543 6.11671C20.8578 6.17459 20.7613 6.23247 20.6648 6.29036C20.4333 6.42542 20.2018 6.57978 19.9702 6.71485C19.893 6.77273 19.7966 6.83062 19.7194 6.8885C19.5457 7.00427 19.3721 7.10074 19.2177 7.21651C19.1212 7.2744 19.0248 7.33228 18.9283 7.40946C18.6968 7.56382 18.4845 7.71818 18.253 7.87254C18.1565 7.93042 18.0793 7.98831 18.0021 8.06549C17.8478 8.18126 17.6741 8.29703 17.5198 8.4128C17.4233 8.47068 17.3461 8.54786 17.2496 8.62504C17.0374 8.7794 16.8251 8.95305 16.6129 9.10741C16.5164 9.18459 16.4392 9.24248 16.3428 9.31966C16.1884 9.43543 16.0341 9.5512 15.899 9.68626C15.8025 9.76344 15.7253 9.82132 15.6289 9.8985C15.4166 10.0722 15.2237 10.2458 15.0114 10.4195C14.915 10.4966 14.8378 10.5738 14.7413 10.651C14.6062 10.7668 14.4519 10.9018 14.3168 11.0176C14.2203 11.0948 14.1432 11.172 14.0467 11.2491C13.8537 11.4228 13.6608 11.5965 13.4678 11.7894C13.3714 11.8666 13.2942 11.9631 13.1977 12.0402C13.0626 12.1753 12.9276 12.2911 12.8118 12.4261C12.7346 12.5033 12.6382 12.5998 12.561 12.677C12.3873 12.8699 12.1944 13.0436 12.0207 13.2365C11.9242 13.333 11.8471 13.4295 11.7506 13.5066C11.6348 13.6417 11.4998 13.7575 11.384 13.8925C11.3068 13.989 11.2103 14.0662 11.1332 14.1627C10.9595 14.3556 10.7858 14.5486 10.6315 14.7415C10.535 14.838 10.4578 14.9345 10.3614 15.0502C10.2456 15.1853 10.1491 15.3011 10.0333 15.4361C9.93687 15.5519 9.8404 15.6677 9.76322 15.7642C9.60886 15.9378 9.47379 16.1308 9.31943 16.3044C9.24225 16.4202 9.14578 16.5167 9.0686 16.6324C8.97213 16.7675 8.87565 16.8833 8.77918 17.0183C8.66341 17.1727 8.56693 17.3077 8.45116 17.4621C8.33539 17.6165 8.21962 17.7901 8.10386 17.9445C8.02668 18.0602 7.9302 18.176 7.85302 18.2918C7.75655 18.4268 7.67937 18.5426 7.58289 18.6777C7.46712 18.8513 7.35135 19.025 7.23559 19.1986C7.13911 19.3337 7.04264 19.4881 6.94616 19.6424C6.86898 19.7775 6.7918 19.8933 6.69533 20.0283C6.61815 20.1634 6.54097 20.2792 6.46379 20.4142C6.34802 20.6072 6.23225 20.8001 6.09719 21.0124C6.02001 21.1474 5.94283 21.2825 5.86565 21.4176C5.78847 21.5526 5.71129 21.6877 5.63411 21.8227C5.55693 21.9385 5.49904 22.0736 5.42186 22.1894C5.3061 22.4016 5.19033 22.6331 5.05526 22.8454C4.99738 22.9611 4.9202 23.0962 4.86231 23.212C4.78513 23.3663 4.70795 23.5014 4.63077 23.6558C4.57289 23.7715 4.51501 23.8873 4.45712 24.0224C4.34135 24.2539 4.22558 24.5047 4.10981 24.7363C4.05193 24.852 3.99404 24.9678 3.95545 25.0836C3.87827 25.2379 3.82039 25.3923 3.74321 25.5467C3.68532 25.6624 3.64673 25.7782 3.58885 25.894C3.47308 26.1448 3.35731 26.4149 3.26084 26.6658C3.22225 26.7815 3.16436 26.878 3.12577 26.9938C3.06789 27.1481 2.99071 27.3218 2.93282 27.4762C2.89423 27.5726 2.85564 27.6884 2.81705 27.7849C2.72058 28.055 2.60481 28.3444 2.50834 28.6338C2.46975 28.7303 2.43116 28.8461 2.39257 28.9426C2.33468 29.1162 2.2768 29.2899 2.21891 29.4635C2.18032 29.56 2.16103 29.6565 2.12244 29.753C2.02596 30.0617 1.92949 30.3511 1.83301 30.6598C1.79443 30.7563 1.77513 30.8528 1.73654 30.9492C1.67866 31.1229 1.64007 31.3158 1.58218 31.4895C1.56289 31.5667 1.54359 31.6439 1.5243 31.721C1.42782 32.049 1.35064 32.3771 1.27346 32.7051C1.25417 32.8015 1.23487 32.898 1.19628 32.9945C1.15769 33.1874 1.09981 33.3611 1.06122 33.554C1.06122 33.6119 1.04192 33.6698 1.02263 33.7277C0.94545 34.075 0.86827 34.4416 0.791091 34.8082C0.791091 34.9047 0.752501 34.9819 0.733206 35.0783C0.694616 35.2713 0.656026 35.4642 0.636732 35.6572V35.6958C0.559552 36.101 0.501667 36.5062 0.443783 36.9114C0.443783 37.0078 0.424488 37.085 0.405193 37.1815C0.385898 37.3744 0.347308 37.5674 0.328013 37.7796C0.115769 39.4969 0 41.272 0 43.0471C0 59.1391 8.83706 73.1472 21.8997 80.5371C21.9769 80.5757 22.0541 80.6143 22.1312 80.6722C22.3821 80.8072 22.6522 80.9616 22.9223 81.0967C23.0188 81.1546 23.1346 81.2124 23.2311 81.251C23.3854 81.3282 23.5398 81.4054 23.7134 81.5019C23.8099 81.5597 23.9064 81.5983 24.0028 81.6562C24.3309 81.8106 24.6589 81.9842 25.0062 82.1386C25.0448 82.1579 25.0834 82.1772 25.1412 82.1965C25.3149 82.2737 25.5079 82.3508 25.6815 82.4473C25.7587 82.4859 25.8359 82.5245 25.913 82.5438C26.5112 82.7946 27.1093 83.0455 27.7268 83.277C27.7654 83.277 27.8232 83.3156 27.8618 83.3349C28.5179 83.5857 29.1932 83.8172 29.8685 84.0295C30.7947 84.3189 31.7401 84.589 32.6855 84.8206C36.0043 85.631 39.4581 86.0748 43.0276 86.0748C54.7589 86.0748 65.3904 81.3861 73.1662 73.7646C73.4364 73.4945 73.7065 73.2244 73.9766 72.9542C73.9766 72.9542 73.9959 72.9349 74.0152 72.9156C74.2853 72.6455 74.5362 72.3561 74.8063 72.086C75.3273 71.5071 75.8289 70.9283 76.3306 70.3301C76.5621 70.0407 76.7937 69.7513 77.0252 69.4618C77.0445 69.4233 77.0638 69.404 77.1024 69.3654C77.3146 69.0759 77.5269 68.8058 77.7391 68.5164C77.7584 68.4778 77.797 68.4392 77.8163 68.4006C78.0285 68.1112 78.2408 67.8218 78.4337 67.5324C78.453 67.4938 78.4723 67.4745 78.4916 67.4359C78.7039 67.1272 78.8968 66.8184 79.1091 66.5097C79.302 66.2203 79.4757 65.9309 79.6686 65.6222C79.8423 65.3327 80.0159 65.0433 80.1896 64.7346C80.1896 64.7346 80.1896 64.7346 80.1896 64.7153C80.3632 64.4259 80.5176 64.1365 80.6912 63.847C80.6912 63.847 80.6912 63.8277 80.7105 63.8084C80.8649 63.519 81.0193 63.2296 81.1736 62.9402C81.1736 62.9209 81.1929 62.9016 81.2122 62.8823C81.3666 62.5929 81.5016 62.3034 81.656 62.014C81.656 61.9947 81.6753 61.9561 81.6946 61.9368C81.8296 61.6474 81.9647 61.358 82.0998 61.0686C82.0998 61.03 82.1384 61.0107 82.1384 60.9721C82.2734 60.6827 82.3892 60.4125 82.5243 60.1231C82.5243 60.0845 82.5629 60.0459 82.5821 60.0073C82.6979 59.7372 82.8137 59.4478 82.9295 59.1584C82.9295 59.1198 82.968 59.0619 82.9873 59.0233C83.1031 58.7532 83.1996 58.4638 83.3153 58.1936C83.3346 58.1357 83.3539 58.0779 83.3732 58.0393C83.4697 57.7691 83.5662 57.499 83.6627 57.2096C83.682 57.1517 83.7012 57.0938 83.7205 57.0166C83.817 56.7465 83.8942 56.4764 83.9907 56.2063C84.01 56.1291 84.0293 56.0712 84.0679 55.994C84.145 55.7239 84.2222 55.473 84.2994 55.2029C84.3187 55.1257 84.338 55.0486 84.3766 54.9714C84.4537 54.7205 84.5116 54.4504 84.5888 54.1996C84.6081 54.1031 84.6274 54.0259 84.666 53.9295C84.7239 53.6786 84.8011 53.4278 84.8589 53.1577C84.8782 53.0612 84.8975 52.9647 84.9361 52.8682C84.994 52.6174 85.0519 52.3666 85.1098 52.1157C85.1291 52.0193 85.1484 51.9035 85.1677 51.807C85.2255 51.5562 85.2641 51.3246 85.3027 51.0738C85.322 50.958 85.3413 50.8616 85.3606 50.7458C85.3992 50.5143 85.4378 50.2634 85.4764 50.0319C85.4764 49.9161 85.515 49.8003 85.5343 49.6846C85.5729 49.453 85.6114 49.2022 85.6307 48.9707C85.6307 48.8549 85.6693 48.7198 85.6886 48.6041C85.7272 48.3725 85.7465 48.141 85.7658 47.9094C85.7658 47.7744 85.8044 47.6586 85.8044 47.5236C85.8237 47.292 85.843 47.0605 85.8623 46.8289C85.8623 46.6939 85.8816 46.5588 85.9009 46.4237C85.9009 46.1922 85.9395 45.9414 85.9395 45.7098C85.9395 45.5748 85.9395 45.459 85.9588 45.3239C85.9588 45.0731 85.978 44.803 85.9973 44.5521C85.9973 44.4364 85.9973 44.3206 85.9973 44.2241C85.9973 43.8575 85.9973 43.4716 85.9973 43.105C85.9973 42.7384 85.9973 42.4104 85.9973 42.0824C85.9973 41.9666 85.9973 41.8701 85.9973 41.7544L86.0552 41.6772ZM51.7296 76.5238H34.9431V24.524L28.6915 24.4662V22.0543L28.7494 16.0536L33.7275 11.6157L36.8532 8.83728H51.7489V76.5238H51.7296ZM55.9359 36.3325C55.9359 33.6698 58.1162 31.4895 60.7789 31.4895C63.4416 31.4895 65.6219 33.6698 65.6219 36.3325C65.6219 38.9952 63.4416 41.1755 60.7789 41.1755C58.1162 41.1755 55.9359 38.9952 55.9359 36.3325ZM57.904 52L72.954 31.3737H76.4657L75.6553 32.4735L65.2167 46.771L61.3964 52H57.8847H57.904ZM68.5548 47.1569C68.5548 44.4943 70.7351 42.3139 73.3978 42.3139C76.0605 42.3139 78.2408 44.4943 78.2408 47.1569C78.2408 49.8196 76.0605 52 73.3978 52C70.7351 52 73.1084 52 72.9733 51.9807C72.2015 51.9228 71.4683 51.672 70.8509 51.2668C69.4809 50.4178 68.5548 48.8935 68.5548 47.1569Z" fill="var(--fill-0, #716E6A)"/>
<path id="Vector_3" d="M75.5402 47.1563C75.5402 45.9793 74.5754 45.0145 73.3985 45.0145C72.2215 45.0145 71.2567 45.9793 71.2567 47.1563C71.2567 48.3333 72.2215 49.298 73.3985 49.298C74.5754 49.298 75.5402 48.3333 75.5402 47.1563Z" fill="var(--fill-0, #716E6A)"/>
<path id="Vector_4" d="M109.372 34.48H117.765V30.3895H109.372V27.3795H118.653V23.0767H104.471V40.8088H109.372V34.48Z" fill="var(--fill-0, #716E6A)"/>
<path id="Vector_5" d="M129.919 41.1558C135.399 41.1558 139.49 37.0267 139.49 31.9328V31.875C139.49 26.7811 135.438 22.7099 129.958 22.7099C124.478 22.7099 120.388 26.839 120.388 31.9328V31.9907C120.388 37.0846 124.44 41.1558 129.919 41.1558ZM125.443 31.8942C125.443 29.328 127.237 27.167 129.919 27.167C132.601 27.167 134.473 29.4052 134.473 31.9521V32.01C134.473 34.5762 132.679 36.7373 129.958 36.7373C127.237 36.7373 125.424 34.4991 125.424 31.9521V31.8942H125.443Z" fill="var(--fill-0, #716E6A)"/>
<path id="Vector_6" d="M147.094 35.4448H149.255L152.825 40.8088H158.497L154.272 34.6344C156.471 33.6889 157.919 31.8945 157.919 29.1932V29.1353C157.919 27.3795 157.378 26.0289 156.356 25.0062C155.159 23.7907 153.288 23.0767 150.587 23.0767H142.193V40.8088H147.113V35.4448H147.094ZM147.094 27.3409H150.316C151.956 27.3409 152.979 28.0548 152.979 29.4441V29.5019C152.979 30.7947 152.014 31.6051 150.355 31.6051H147.113V27.3409H147.094Z" fill="var(--fill-0, #716E6A)"/>
<path id="Vector_7" d="M169.589 40.8087H174.49V27.3794H179.815V23.0767H164.264V27.3794H169.589V40.8087Z" fill="var(--fill-0, #716E6A)"/>
<path id="Vector_8" d="M193.319 29.7142H187.01V23.0767H182.09V40.8088H187.01V34.0748H193.319V40.8088H198.22V23.0767H193.319V29.7142Z" fill="var(--fill-0, #716E6A)"/>
<path id="Vector_9" d="M206.365 36.6218V33.824H214.874V29.9457H206.365V27.2637H215.762V23.0767H201.503V40.8088H215.878V36.6218H206.365Z" fill="var(--fill-0, #716E6A)"/>
<path id="Vector_10" d="M112.477 44.3394H104.335V63.3255H109.602V57.9037H112.207C116.935 57.9037 120.369 55.5497 120.369 51.0733V51.0154C120.369 46.8091 117.282 44.3394 112.477 44.3394ZM115.102 51.3048C115.102 52.7905 113.963 53.7746 112.092 53.7746H109.602V48.7579H112.072C113.963 48.7579 115.102 49.6262 115.102 51.2469V51.3048Z" fill="var(--fill-0, #716E6A)"/>
<path id="Vector_11" d="M137.059 58.714H127.856V44.3394H122.607V63.3255H137.059V58.714Z" fill="var(--fill-0, #716E6A)"/>
<path id="Vector_12" d="M145.874 44.2037L137.789 63.3249H143.327L144.677 59.929H152.009L153.399 63.3249H159.033L150.948 44.2037H145.874ZM146.221 55.8385L148.363 50.4359L150.485 55.8385H146.221Z" fill="var(--fill-0, #716E6A)"/>
<path id="Vector_13" d="M173.624 54.3725L165.79 44.3391H160.889V63.3253H166.099V52.9061L174.202 63.3253H178.814V44.3391H173.624V54.3725Z" fill="var(--fill-0, #716E6A)"/>
<path id="Vector_14" d="M187.401 55.8389H196.508V51.6905H187.401V48.8155H197.473V44.3391H182.191V63.3253H197.608V58.8489H187.401V55.8389Z" fill="var(--fill-0, #716E6A)"/>
<path id="Vector_15" d="M199.227 48.9506H204.919V63.3253H210.187V48.9506H215.879V44.3391H199.227V48.9506Z" fill="var(--fill-0, #716E6A)"/>
<path id="Vector_16" d="M213.836 61.3579C213.836 60.972 213.547 60.7983 213.142 60.7983H212.351V62.4384H212.814V61.9367H213.007L213.335 62.4384H213.875L213.489 61.8596C213.701 61.7824 213.836 61.6087 213.836 61.3386V61.3579ZM213.122 61.5894H212.833V61.2035H213.122C213.277 61.2035 213.373 61.2807 213.373 61.3965C213.373 61.5123 213.277 61.5894 213.122 61.5894Z" fill="var(--fill-0, #716E6A)"/>
<path id="Vector_17" d="M213.041 59.9883C212.115 59.9883 211.382 60.7601 211.382 61.6476C211.382 62.5545 212.115 63.307 213.041 63.307C213.967 63.307 214.701 62.5352 214.701 61.6476C214.701 60.7408 213.967 59.9883 213.041 59.9883ZM214.411 61.6669C214.411 62.4194 213.813 63.0562 213.022 63.0562C212.231 63.0562 211.633 62.4194 211.633 61.6669C211.633 60.8951 212.231 60.2584 213.022 60.2584C213.813 60.2584 214.411 60.8951 214.411 61.6476V61.6669Z" fill="var(--fill-0, #716E6A)"/>
</g>
</svg>
