<svg preserveAspectRatio="none" width="100%" height="100%" overflow="visible" style="display: block;" viewBox="0 0 129.184 22.7269" fill="none" xmlns="http://www.w3.org/2000/svg">
<g id="Group 1583">
<path id="Star 1" d="M117.071 1.46913C117.383 0.856979 118.258 0.856978 118.57 1.46913L121.032 6.29348C121.155 6.53314 121.384 6.69989 121.65 6.74215L126.999 7.59287C127.678 7.70082 127.948 8.5327 127.462 9.01897L123.635 12.8513C123.445 13.0417 123.357 13.3115 123.399 13.5773L124.243 18.9274C124.35 19.6063 123.642 20.1204 123.03 19.8088L118.202 17.3529C117.962 17.2309 117.679 17.2309 117.439 17.3529L112.611 19.8088C111.999 20.1204 111.291 19.6063 111.398 18.9274L112.242 13.5773C112.284 13.3115 112.196 13.0417 112.006 12.8513L108.179 9.01898C107.693 8.5327 107.964 7.70082 108.642 7.59287L113.991 6.74215C114.257 6.69989 114.487 6.53314 114.609 6.29348L117.071 1.46913Z" fill="var(--fill-0, #BD1E18)"/>
<path id="Star 2" d="M90.7572 1.46913C91.0696 0.856979 91.9443 0.856978 92.2567 1.46913L94.7188 6.29348C94.8411 6.53314 95.0706 6.69989 95.3363 6.74215L100.685 7.59287C101.364 7.70082 101.634 8.5327 101.149 9.01897L97.3213 12.8513C97.1311 13.0417 97.0435 13.3115 97.0854 13.5773L97.9293 18.9274C98.0363 19.6063 97.3287 20.1204 96.7161 19.8088L91.8886 17.3529C91.6488 17.2309 91.3651 17.2309 91.1253 17.3529L86.2978 19.8088C85.6853 20.1204 84.9776 19.6063 85.0847 18.9274L85.9286 13.5773C85.9705 13.3115 85.8828 13.0417 85.6927 12.8513L81.8653 9.01898C81.3796 8.5327 81.6499 7.70082 82.3286 7.59287L87.6777 6.74215C87.9434 6.69989 88.1729 6.53314 88.2952 6.29348L90.7572 1.46913Z" fill="var(--fill-0, #BD1E18)"/>
<path id="Star 3" d="M63.8357 1.56744C64.1422 0.933633 65.0449 0.933633 65.3514 1.56744L67.6313 6.28319C67.7501 6.52889 67.9806 6.70174 68.2498 6.74693L73.2745 7.59047C73.9388 7.70199 74.2096 8.50981 73.7466 8.9991L70.0968 12.8566C69.919 13.0445 69.8375 13.3037 69.8757 13.5595L70.6732 18.8966C70.7756 19.5817 70.0528 20.0903 69.4425 19.7626L64.9918 17.3726C64.7431 17.2391 64.444 17.2391 64.1953 17.3726L59.7446 19.7626C59.1343 20.0903 58.4115 19.5817 58.5139 18.8966L59.3114 13.5595C59.3496 13.3037 59.2681 13.0445 59.0903 12.8566L55.4405 8.9991C54.9775 8.50981 55.2483 7.70199 55.9126 7.59047L60.9373 6.74693C61.2065 6.70174 61.437 6.52889 61.5558 6.28319L63.8357 1.56744Z" fill="var(--fill-0, #BD1E18)"/>
<path id="Star 4" d="M36.9272 1.46913C37.2396 0.856979 38.1143 0.856978 38.4267 1.46913L40.8887 6.29348C41.011 6.53314 41.2406 6.69989 41.5063 6.74215L46.8553 7.59287C47.534 7.70082 47.8043 8.5327 47.3187 9.01897L43.4913 12.8513C43.3011 13.0417 43.2135 13.3115 43.2554 13.5773L44.0992 18.9274C44.2063 19.6063 43.4987 20.1204 42.8861 19.8088L38.0586 17.3529C37.8188 17.2309 37.5351 17.2309 37.2953 17.3529L32.4678 19.8088C31.8552 20.1204 31.1476 19.6063 31.2547 18.9274L32.0985 13.5773C32.1405 13.3115 32.0528 13.0417 31.8627 12.8513L28.0352 9.01898C27.5496 8.5327 27.8199 7.70082 28.4986 7.59287L33.8477 6.74215C34.1134 6.69989 34.3429 6.53314 34.4652 6.29348L36.9272 1.46913Z" fill="var(--fill-0, #BD1E18)"/>
<path id="Star 5" d="M10.6137 1.46913C10.9261 0.856979 11.8008 0.856978 12.1132 1.46913L14.5752 6.29348C14.6975 6.53314 14.927 6.69989 15.1927 6.74215L20.5418 7.59287C21.2205 7.70082 21.4908 8.5327 21.0051 9.01897L17.1777 12.8513C16.9876 13.0417 16.8999 13.3115 16.9418 13.5773L17.7857 18.9274C17.8928 19.6063 17.1851 20.1204 16.5726 19.8088L11.7451 17.3529C11.5053 17.2309 11.2216 17.2309 10.9818 17.3529L6.15427 19.8088C5.54171 20.1204 4.83407 19.6063 4.94115 18.9274L5.78501 13.5773C5.82693 13.3115 5.73927 13.0417 5.54913 12.8513L1.72171 9.01898C1.23605 8.5327 1.50635 7.70082 2.18508 7.59287L7.53412 6.74215C7.79984 6.69989 8.02935 6.53314 8.15165 6.29348L10.6137 1.46913Z" fill="var(--fill-0, #BD1E18)"/>
</g>
</svg>
