<svg preserveAspectRatio="none" width="100%" height="100%" overflow="visible" style="display: block;" viewBox="0 0 39 38" fill="none" xmlns="http://www.w3.org/2000/svg">
<path id="Vector" d="M13.0016 19C13.0016 15.5023 15.9109 12.6662 19.5008 12.6662C23.0906 12.6662 26.0016 15.5023 26.0016 19C26.0016 22.4977 23.0906 25.3338 19.5008 25.3338C15.9109 25.3338 13.0016 22.4977 13.0016 19M9.48736 19C9.48736 24.3884 13.9704 28.7563 19.5008 28.7563C25.0312 28.7563 29.5142 24.3884 29.5142 19C29.5142 13.6116 25.0312 9.24373 19.5008 9.24373C13.9704 9.24373 9.48752 13.6113 9.48752 19M27.5707 8.85689C27.5705 9.30783 27.7075 9.7487 27.9645 10.1237C28.2215 10.4988 28.5869 10.7912 29.0144 10.9639C29.4419 11.1366 29.9124 11.182 30.3664 11.0942C30.8203 11.0064 31.2374 10.7894 31.5648 10.4706C31.8922 10.1519 32.1152 9.74574 32.2057 9.3035C32.2962 8.86126 32.25 8.40281 32.0731 7.98613C31.8961 7.56944 31.5964 7.21324 31.2116 6.96256C30.8269 6.71188 30.3745 6.57798 29.9117 6.5778H29.9108C29.2904 6.57808 28.6955 6.81826 28.2567 7.24559C27.818 7.67291 27.5712 8.25244 27.5707 8.85689M11.6225 34.4657C9.72122 34.3813 8.68783 34.0728 8.00109 33.8121C7.09064 33.4668 6.44103 33.0554 5.75803 32.3909C5.07504 31.7264 4.65226 31.094 4.29938 30.207C4.03167 29.5382 3.71498 28.531 3.62855 26.6786C3.53401 24.6758 3.51513 24.0742 3.51513 19.0003C3.51513 13.9264 3.53557 13.3264 3.62855 11.322C3.71513 9.4696 4.03417 8.46442 4.29938 7.79365C4.65382 6.90658 5.07598 6.27365 5.75803 5.60819C6.44009 4.94274 7.08908 4.53082 8.00109 4.18699C8.68752 3.92616 9.72122 3.6176 11.6225 3.53339C13.678 3.44128 14.2955 3.42289 19.5008 3.42289C24.7061 3.42289 25.3242 3.4425 27.3814 3.5337C29.2827 3.61806 30.3144 3.9289 31.0028 4.1873C31.9133 4.53112 32.5629 4.94395 33.2459 5.6085C33.9289 6.27304 34.3501 6.90688 34.7045 7.79395C34.9722 8.46275 35.2889 9.4699 35.3753 11.3223C35.4699 13.3268 35.4888 13.9267 35.4888 19.0006C35.4888 24.0745 35.4699 24.6745 35.3753 26.6789C35.2888 28.5313 34.9705 29.5382 34.7045 30.2073C34.3501 31.0943 33.9279 31.7273 33.2459 32.3912C32.5638 33.0551 31.9133 33.4671 31.0028 33.8124C30.3164 34.0732 29.2827 34.3818 27.3814 34.466C25.3259 34.5581 24.7084 34.5765 19.5008 34.5765C14.2931 34.5765 13.6774 34.5581 11.6225 34.466M11.461 0.115064C9.38502 0.207176 7.96646 0.527896 6.72761 0.997576C5.4454 1.48261 4.3585 2.13332 3.27317 3.18911C2.18783 4.2449 1.52168 5.30404 1.02387 6.55485C0.54181 7.76264 0.212637 9.14402 0.118097 11.1667C0.021997 13.1925 0 13.8402 0 19C0 24.1598 0.021997 24.8075 0.118097 26.8333C0.212637 28.8561 0.54181 30.2374 1.02387 31.4452C1.52168 32.6944 2.18799 33.7556 3.27317 34.8109C4.35835 35.8662 5.44384 36.516 6.72761 37.0024C7.9688 37.4721 9.38502 37.7928 11.461 37.8849C13.5413 37.977 14.205 38 19.5008 38C24.7966 38 25.4613 37.9786 27.5406 37.8849C29.6167 37.7928 31.0343 37.4721 32.2739 37.0024C33.5562 36.516 34.6431 35.8667 35.7284 34.8109C36.8137 33.7551 37.4785 32.6944 37.9777 31.4452C38.4597 30.2374 38.7905 28.856 38.8835 26.8333C38.978 24.8059 39 24.1598 39 19C39 13.8402 38.978 13.1925 38.8835 11.1667C38.7889 9.14386 38.4597 7.76188 37.9777 6.55485C37.4785 5.30556 36.812 4.24658 35.7284 3.18911C34.6448 2.13165 33.5562 1.48261 32.2755 0.997576C31.0343 0.527896 29.6165 0.205656 27.5421 0.115064C25.4626 0.0224961 24.7981 0 19.5031 0C14.2081 0 13.5421 0.0214321 11.4618 0.115064" fill="var(--fill-0, #716F6A)"/>
</svg>
