<svg preserveAspectRatio="none" width="100%" height="100%" overflow="visible" style="display: block;" viewBox="0 0 129.184 22.7269" fill="none" xmlns="http://www.w3.org/2000/svg">
<g id="Group 1583">
<path id="Star 1" d="M117.071 1.46913C117.383 0.856979 118.258 0.856978 118.57 1.46913L121.032 6.29348C121.155 6.53314 121.384 6.69989 121.65 6.74215L126.999 7.59287C127.678 7.70082 127.948 8.5327 127.462 9.01897L123.635 12.8513C123.445 13.0417 123.357 13.3115 123.399 13.5773L124.243 18.9274C124.35 19.6063 123.642 20.1204 123.03 19.8088L118.202 17.3529C117.962 17.2309 117.679 17.2309 117.439 17.3529L112.611 19.8088C111.999 20.1204 111.291 19.6063 111.398 18.9274L112.242 13.5773C112.284 13.3115 112.196 13.0417 112.006 12.8513L108.179 9.01898C107.693 8.5327 107.963 7.70082 108.642 7.59287L113.991 6.74215C114.257 6.69989 114.486 6.53314 114.609 6.29348L117.071 1.46913Z" fill="var(--fill-0, #BD1E18)"/>
<path id="Star 2" d="M90.7582 1.46913C91.0706 0.856979 91.9453 0.856978 92.2577 1.46913L94.7197 6.29348C94.842 6.53314 95.0715 6.69989 95.3373 6.74215L100.686 7.59287C101.365 7.70082 101.635 8.5327 101.15 9.01897L97.3223 12.8513C97.1321 13.0417 97.0445 13.3115 97.0864 13.5773L97.9302 18.9274C98.0373 19.6063 97.3297 20.1204 96.7171 19.8088L91.8896 17.3529C91.6498 17.2309 91.3661 17.2309 91.1263 17.3529L86.2988 19.8088C85.6862 20.1204 84.9786 19.6063 85.0857 18.9274L85.9295 13.5773C85.9715 13.3115 85.8838 13.0417 85.6937 12.8513L81.8662 9.01898C81.3806 8.5327 81.6509 7.70082 82.3296 7.59287L87.6786 6.74215C87.9444 6.69989 88.1739 6.53314 88.2962 6.29348L90.7582 1.46913Z" fill="var(--fill-0, #BD1E18)"/>
<path id="Star 3" d="M63.8357 1.56744C64.1421 0.933633 65.0449 0.933633 65.3513 1.56744L67.6312 6.28319C67.75 6.52889 67.9806 6.70174 68.2497 6.74693L73.2745 7.59047C73.9388 7.70199 74.2095 8.50981 73.7465 8.9991L70.0967 12.8566C69.9189 13.0445 69.8374 13.3037 69.8757 13.5595L70.6731 18.8966C70.7755 19.5817 70.0527 20.0903 69.4424 19.7626L64.9917 17.3726C64.743 17.2391 64.4439 17.2391 64.1953 17.3726L59.7445 19.7626C59.1342 20.0903 58.4114 19.5817 58.5138 18.8966L59.3113 13.5595C59.3495 13.3037 59.268 13.0445 59.0902 12.8566L55.4404 8.9991C54.9775 8.50981 55.2482 7.70199 55.9125 7.59047L60.9373 6.74693C61.2064 6.70174 61.4369 6.52889 61.5557 6.28319L63.8357 1.56744Z" fill="var(--fill-0, #BD1E18)"/>
<path id="Star 4" d="M36.9272 1.46913C37.2396 0.856979 38.1143 0.856978 38.4267 1.46913L40.8887 6.29348C41.011 6.53314 41.2405 6.69989 41.5062 6.74215L46.8553 7.59287C47.534 7.70082 47.8043 8.5327 47.3186 9.01897L43.4912 12.8513C43.3011 13.0417 43.2134 13.3115 43.2553 13.5773L44.0992 18.9274C44.2063 19.6063 43.4986 20.1204 42.8861 19.8088L38.0586 17.3529C37.8187 17.2309 37.5351 17.2309 37.2952 17.3529L32.4677 19.8088C31.8552 20.1204 31.1475 19.6063 31.2546 18.9274L32.0985 13.5773C32.1404 13.3115 32.0527 13.0417 31.8626 12.8513L28.0352 9.01898C27.5495 8.5327 27.8198 7.70082 28.4986 7.59287L33.8476 6.74215C34.1133 6.69989 34.3428 6.53314 34.4651 6.29348L36.9272 1.46913Z" fill="var(--fill-0, #BD1E18)"/>
<path id="Star 5" d="M10.6137 1.46913C10.9261 0.856979 11.8008 0.856978 12.1132 1.46913L14.5752 6.29348C14.6975 6.53314 14.927 6.69989 15.1927 6.74215L20.5418 7.59287C21.2205 7.70082 21.4908 8.5327 21.0051 9.01897L17.1777 12.8513C16.9876 13.0417 16.8999 13.3115 16.9418 13.5773L17.7857 18.9274C17.8928 19.6063 17.1851 20.1204 16.5726 19.8088L11.7451 17.3529C11.5053 17.2309 11.2216 17.2309 10.9818 17.3529L6.15427 19.8088C5.54171 20.1204 4.83407 19.6063 4.94115 18.9274L5.78501 13.5773C5.82693 13.3115 5.73927 13.0417 5.54913 12.8513L1.72171 9.01898C1.23605 8.5327 1.50635 7.70082 2.18508 7.59287L7.53412 6.74215C7.79984 6.69989 8.02935 6.53314 8.15165 6.29348L10.6137 1.46913Z" fill="var(--fill-0, #BD1E18)"/>
</g>
</svg>
