<svg preserveAspectRatio="none" width="100%" height="100%" overflow="visible" style="display: block;" viewBox="0 0 129.184 22.7269" fill="none" xmlns="http://www.w3.org/2000/svg">
<g id="Group 1583">
<path id="Star 1" d="M117.071 1.46913C117.383 0.856979 118.258 0.856978 118.57 1.46913L121.032 6.29348C121.154 6.53314 121.384 6.69989 121.65 6.74215L126.999 7.59287C127.677 7.70082 127.948 8.5327 127.462 9.01897L123.635 12.8513C123.445 13.0417 123.357 13.3115 123.399 13.5773L124.243 18.9274C124.35 19.6063 123.642 20.1204 123.03 19.8088L118.202 17.3529C117.962 17.2309 117.679 17.2309 117.439 17.3529L112.611 19.8088C111.999 20.1204 111.291 19.6063 111.398 18.9274L112.242 13.5773C112.284 13.3115 112.196 13.0417 112.006 12.8513L108.179 9.01898C107.693 8.5327 107.963 7.70082 108.642 7.59287L113.991 6.74215C114.257 6.69989 114.486 6.53314 114.609 6.29348L117.071 1.46913Z" fill="var(--fill-0, #BD1E18)"/>
<path id="Star 2" d="M90.7574 1.46913C91.0698 0.856979 91.9444 0.856978 92.2568 1.46913L94.7189 6.29348C94.8412 6.53314 95.0707 6.69989 95.3364 6.74215L100.685 7.59287C101.364 7.70082 101.634 8.5327 101.149 9.01897L97.3214 12.8513C97.1313 13.0417 97.0436 13.3115 97.0855 13.5773L97.9294 18.9274C98.0365 19.6063 97.3288 20.1204 96.7163 19.8088L91.8888 17.3529C91.6489 17.2309 91.3653 17.2309 91.1254 17.3529L86.2979 19.8088C85.6854 20.1204 84.9777 19.6063 85.0848 18.9274L85.9287 13.5773C85.9706 13.3115 85.8829 13.0417 85.6928 12.8513L81.8654 9.01898C81.3797 8.5327 81.65 7.70082 82.3287 7.59287L87.6778 6.74215C87.9435 6.69989 88.173 6.53314 88.2953 6.29348L90.7574 1.46913Z" fill="var(--fill-0, #BD1E18)"/>
<path id="Star 3" d="M63.8355 1.56744C64.1419 0.933633 65.0447 0.933633 65.3511 1.56744L67.6311 6.28319C67.7499 6.52889 67.9804 6.70174 68.2495 6.74693L73.2743 7.59047C73.9386 7.70199 74.2093 8.50981 73.7464 8.9991L70.0965 12.8566C69.9188 13.0445 69.8373 13.3037 69.8755 13.5595L70.673 18.8966C70.7753 19.5817 70.0526 20.0903 69.4423 19.7626L64.9915 17.3726C64.7428 17.2391 64.4438 17.2391 64.1951 17.3726L59.7444 19.7626C59.1341 20.0903 58.4113 19.5817 58.5137 18.8966L59.3111 13.5595C59.3494 13.3037 59.2679 13.0445 59.0901 12.8566L55.4402 8.9991C54.9773 8.50981 55.248 7.70199 55.9123 7.59047L60.9371 6.74693C61.2062 6.70174 61.4368 6.52889 61.5556 6.28319L63.8355 1.56744Z" fill="var(--fill-0, #BD1E18)"/>
<path id="Star 4" d="M36.927 1.46913C37.2394 0.856979 38.1141 0.856978 38.4265 1.46913L40.8885 6.29348C41.0108 6.53314 41.2403 6.69989 41.506 6.74215L46.8551 7.59287C47.5338 7.70082 47.8041 8.5327 47.3185 9.01897L43.491 12.8513C43.3009 13.0417 43.2132 13.3115 43.2552 13.5773L44.099 18.9274C44.2061 19.6063 43.4984 20.1204 42.8859 19.8088L38.0584 17.3529C37.8186 17.2309 37.5349 17.2309 37.2951 17.3529L32.4676 19.8088C31.855 20.1204 31.1474 19.6063 31.2545 18.9274L32.0983 13.5773C32.1402 13.3115 32.0526 13.0417 31.8624 12.8513L28.035 9.01898C27.5494 8.5327 27.8197 7.70082 28.4984 7.59287L33.8474 6.74215C34.1131 6.69989 34.3427 6.53314 34.465 6.29348L36.927 1.46913Z" fill="var(--fill-0, #BD1E18)"/>
<path id="Star 5" d="M10.6137 1.46913C10.9261 0.856979 11.8008 0.856978 12.1132 1.46913L14.5752 6.29348C14.6975 6.53314 14.927 6.69989 15.1927 6.74215L20.5418 7.59287C21.2205 7.70082 21.4908 8.5327 21.0051 9.01897L17.1777 12.8513C16.9876 13.0417 16.8999 13.3115 16.9418 13.5773L17.7857 18.9274C17.8928 19.6063 17.1851 20.1204 16.5726 19.8088L11.7451 17.3529C11.5053 17.2309 11.2216 17.2309 10.9818 17.3529L6.15426 19.8088C5.5417 20.1204 4.83406 19.6063 4.94114 18.9274L5.785 13.5773C5.82692 13.3115 5.73926 13.0417 5.54912 12.8513L1.7217 9.01898C1.23605 8.5327 1.50634 7.70082 2.18507 7.59287L7.53411 6.74215C7.79983 6.69989 8.02934 6.53314 8.15164 6.29348L10.6137 1.46913Z" fill="var(--fill-0, #BD1E18)"/>
</g>
</svg>
