<svg preserveAspectRatio="none" width="100%" height="100%" overflow="visible" style="display: block;" viewBox="0 0 90.0669 105.078" fill="none" xmlns="http://www.w3.org/2000/svg">
<g id="a" clip-path="url(#clip0_0_54)">
<path id="Vector" d="M65.3104 9.51514C64.3673 9.51514 63.529 9.85126 62.8479 10.5235C62.1667 11.1958 61.8262 11.9973 61.8262 12.9281C61.8262 13.8589 62.1667 14.6863 62.8479 15.3586C63.529 16.0308 64.3411 16.3669 65.3104 16.3669C66.2797 16.3669 67.0919 16.0308 67.7468 15.3586C68.4017 14.6863 68.7685 13.8848 68.7685 12.954C68.7685 12.0232 68.4279 11.1958 67.7468 10.5494C67.0657 9.87712 66.2535 9.54099 65.3104 9.54099V9.51514ZM65.8082 12.2559C65.8082 12.2559 65.782 12.4627 65.7034 12.5144C65.651 12.5403 65.52 12.6178 65.1271 12.6178H64.6031V11.9197H65.0747C65.52 11.9197 65.651 11.9973 65.6772 12.0232C65.7558 12.0749 65.782 12.1524 65.782 12.2817L65.8082 12.2559ZM66.5417 13.9623C66.3321 13.6521 66.1488 13.4194 65.9916 13.2384C66.175 13.1608 66.3321 13.0832 66.4369 12.9281C66.6465 12.6954 66.7513 12.4368 66.7513 12.1524C66.7513 11.9197 66.6727 11.7129 66.5417 11.506C66.3845 11.2992 66.2011 11.1699 65.9654 11.1182C65.7558 11.0665 65.4676 11.0406 65.0747 11.0406H63.66V14.8673H64.5769V13.3935H64.7341C64.8913 13.3935 65.0223 13.4194 65.1271 13.4969C65.1794 13.5228 65.3628 13.7296 65.9392 14.7897L65.9916 14.8673H66.8823C66.4107 15.2551 65.8868 15.4361 65.258 15.4361C64.5507 15.4361 63.9482 15.1776 63.4504 14.6863C62.9527 14.195 62.6907 13.6004 62.6907 12.9022C62.6907 12.2041 62.9527 11.6095 63.4504 11.1182C63.9482 10.6269 64.5507 10.3684 65.258 10.3684C65.9654 10.3684 66.5679 10.6269 67.0919 11.1182C67.5896 11.6095 67.8516 12.2041 67.8516 12.9022C67.8516 13.6004 67.5896 14.195 67.0919 14.7122C67.0919 14.7122 67.0657 14.738 67.0395 14.7639L66.5155 13.9623H66.5417Z" fill="var(--fill-0, #716E6A)"/>
<path id="Vector_2" d="M28.3722 80.8766L28.1102 81.704L27.9006 80.8766L27.2457 78.3945H26.486L25.8048 80.9025C25.6476 81.4455 25.569 81.7299 25.569 81.7816L25.3333 80.8508L24.6259 78.3686H23.8662L25.2023 82.6607H25.962L26.8527 79.3512L27.0361 80.0751L27.7172 82.6348H28.4508L29.8392 78.3428H29.1319L28.3722 80.8249V80.8766Z" fill="var(--fill-0, #716E6A)"/>
<path id="Vector_3" d="M34.5812 80.8766L34.3192 81.704L34.1096 80.8766L33.4547 78.3945H32.6949L32.0138 80.9025C31.8566 81.4455 31.778 81.7299 31.778 81.7816L31.5423 80.8508L30.8349 78.3686H30.0752L31.4113 82.6607H32.171L33.0617 79.3512L33.2189 80.0751L33.9 82.6348H34.6336L36.022 78.3428H35.3147L34.555 80.8249L34.5812 80.8766Z" fill="var(--fill-0, #716E6A)"/>
<path id="Vector_4" d="M40.7891 80.8767L40.5271 81.704L40.3175 80.8767L39.6626 78.3945H38.9028L38.2217 80.9025C38.0645 81.4455 37.9859 81.7299 37.9859 81.7816L37.7501 80.8508L37.0428 78.3686H36.2831L37.6192 82.6607H38.3789L39.2696 79.3512L39.453 80.0751L40.1341 82.6348H40.8676L42.2561 78.3428H41.5488L40.7891 80.8249V80.8767Z" fill="var(--fill-0, #716E6A)"/>
<path id="Vector_5" d="M43.2787 81.8594H42.4404V82.6868H43.2787V81.8594Z" fill="var(--fill-0, #716E6A)"/>
<path id="Vector_6" d="M44.9815 76.8437C44.7981 76.9729 44.6671 77.1022 44.6147 77.3091C44.5623 77.4383 44.5361 77.6711 44.5361 77.9555V78.4209H43.9074V78.9897H44.5361V82.7129H45.2697V78.9897H46.108V78.4209H45.2697V78.033C45.2697 77.7745 45.3221 77.5935 45.4007 77.5159C45.4793 77.4125 45.6626 77.3866 45.8722 77.3866C46.0032 77.3866 46.1604 77.3866 46.3176 77.4384L46.4224 76.8178C46.1604 76.7661 45.9508 76.7402 45.7412 76.7402C45.4269 76.7402 45.1649 76.792 44.9815 76.9212V76.8437Z" fill="var(--fill-0, #716E6A)"/>
<path id="Vector_7" d="M49.4347 80.4112C49.2252 80.3336 48.8584 80.2043 48.3606 80.075C48.0201 79.9716 47.7843 79.9199 47.7319 79.8941C47.6009 79.8423 47.4961 79.7648 47.4437 79.7131C47.3913 79.6355 47.3651 79.5579 47.3651 79.4545C47.3651 79.2994 47.4437 79.1701 47.5747 79.0667C47.7319 78.9632 47.9677 78.9115 48.2821 78.9115C48.5702 78.9115 48.7798 78.9633 48.937 79.0925C49.0942 79.2218 49.1728 79.4028 49.2252 79.6096L49.9587 79.5062C49.9063 79.2218 49.8277 79.015 49.6967 78.834C49.5657 78.6788 49.3824 78.5496 49.1204 78.4461C48.8584 78.3427 48.5702 78.291 48.2297 78.291C47.9939 78.291 47.7843 78.3169 47.6009 78.3686C47.3913 78.4203 47.2604 78.4978 47.1294 78.5754C46.9722 78.6788 46.8674 78.8081 46.7626 78.9891C46.6578 79.1442 46.6316 79.3252 46.6316 79.5062C46.6316 79.7131 46.684 79.8941 46.7888 80.075C46.8936 80.256 47.0508 80.3853 47.2604 80.4887C47.4699 80.5922 47.8367 80.6956 48.3606 80.8249C48.7536 80.9283 49.0156 81.0059 49.0942 81.0576C49.2514 81.161 49.3038 81.2903 49.3038 81.4454C49.3038 81.6264 49.2252 81.7815 49.068 81.9367C48.9108 82.066 48.6488 82.1435 48.3345 82.1435C48.0201 82.1435 47.7581 82.066 47.5485 81.9108C47.3651 81.7557 47.2604 81.5488 47.208 81.2386L46.4744 81.342C46.553 81.8074 46.7364 82.1435 47.0508 82.3762C47.3389 82.6089 47.7843 82.7123 48.3345 82.7123C48.675 82.7123 48.9894 82.6606 49.2514 82.5314C49.5133 82.4279 49.7229 82.2469 49.8801 82.0401C50.0111 81.8332 50.0897 81.6005 50.0897 81.3678C50.0897 81.1351 50.0373 80.9024 49.9063 80.7473C49.8015 80.5922 49.6181 80.4629 49.4347 80.3595V80.4112Z" fill="var(--fill-0, #716E6A)"/>
<path id="Vector_8" d="M53.3645 81.9372C53.1811 82.1182 52.9192 82.1958 52.631 82.1958C52.2642 82.1958 51.9761 82.0665 51.7665 81.8079C51.5307 81.5494 51.4259 81.1357 51.4259 80.5668C51.4259 79.998 51.5307 79.5843 51.7665 79.3258C52.0023 79.0672 52.2904 78.9379 52.6572 78.9379C52.893 78.9379 53.1025 79.0155 53.2859 79.1448C53.4693 79.2999 53.5741 79.5067 53.6527 79.7912L54.3862 79.6877C54.3076 79.2482 54.1243 78.9121 53.8099 78.6794C53.5217 78.4467 53.1287 78.3174 52.6572 78.3174C52.2904 78.3174 51.9499 78.3949 51.6355 78.5759C51.3211 78.7569 51.0853 79.0155 50.9282 79.3516C50.771 79.6877 50.6924 80.1014 50.6924 80.5668C50.6924 81.2908 50.8758 81.8338 51.2425 82.2216C51.6093 82.6094 52.0808 82.7904 52.6572 82.7904C53.1287 82.7904 53.5217 82.6612 53.8623 82.3767C54.1766 82.1182 54.3862 81.7303 54.4648 81.2391L53.7313 81.1357C53.6789 81.4976 53.5479 81.7562 53.3645 81.9372Z" fill="var(--fill-0, #716E6A)"/>
<path id="Vector_9" d="M56.0893 81.8595H55.2509V82.6869H56.0893V81.8595Z" fill="var(--fill-0, #716E6A)"/>
<path id="Vector_10" d="M58.7866 78.3169C58.2626 78.3169 57.7911 78.472 57.4243 78.7823C56.9789 79.1701 56.7432 79.7648 56.7432 80.5405C56.7432 81.2644 56.9265 81.8074 57.2933 82.1952C57.6601 82.5831 58.1578 82.7641 58.7604 82.7641C59.1271 82.7641 59.4939 82.6865 59.8083 82.5055C60.1226 82.3245 60.3846 82.0918 60.5418 81.7557C60.699 81.4454 60.8038 81.0059 60.8038 80.4629C60.8038 79.7907 60.6204 79.2477 60.2274 78.8598C59.8345 78.472 59.3629 78.291 58.7604 78.291L58.7866 78.3169ZM59.7035 81.7815C59.4677 82.066 59.1533 82.1952 58.7866 82.1952C58.4198 82.1952 58.1054 82.066 57.8697 81.7815C57.6339 81.523 57.5029 81.0834 57.5029 80.5405C57.5029 79.9975 57.6339 79.5838 57.8697 79.2994C58.1054 79.0408 58.4198 78.8857 58.7866 78.8857C59.1533 78.8857 59.4677 79.015 59.7035 79.2994C59.9393 79.5838 60.0702 79.9716 60.0702 80.5146C60.0702 81.0834 59.9393 81.4971 59.7035 81.7557V81.7815Z" fill="var(--fill-0, #716E6A)"/>
<path id="Vector_11" d="M62.7964 78.4467C62.6654 78.5501 62.5082 78.7569 62.3249 79.0672V78.4208H61.6699V82.7129H62.4034V80.4634C62.4034 80.1531 62.4558 79.8687 62.5344 79.6102C62.5868 79.4292 62.6916 79.2999 62.7964 79.2223C62.9274 79.1189 63.0584 79.0931 63.2156 79.0931C63.399 79.0931 63.5823 79.1448 63.7395 79.2223L64.0015 78.5501C63.7395 78.3949 63.5037 78.3174 63.2418 78.3174C63.0846 78.3174 62.9274 78.3691 62.7702 78.4725L62.7964 78.4467Z" fill="var(--fill-0, #716E6A)"/>
<path id="Vector_12" d="M67.2492 78.9379C66.9086 78.5242 66.4894 78.3174 65.9917 78.3174C65.5987 78.3174 65.2844 78.4208 64.9962 78.6018C64.708 78.7828 64.4984 79.0672 64.3412 79.4033C64.1841 79.7394 64.1055 80.1273 64.1055 80.541C64.1055 81.1357 64.2627 81.6528 64.6032 82.0665C64.9438 82.4802 65.3891 82.7129 65.9917 82.7129C66.4632 82.7129 66.8824 82.5319 67.1968 82.144C67.1968 82.6094 67.1968 82.9456 67.1444 83.0749C67.0658 83.3076 66.961 83.5144 66.7776 83.6437C66.5942 83.773 66.3323 83.8505 65.9917 83.8505C65.6773 83.8505 65.4415 83.773 65.2582 83.6437C65.1272 83.5403 65.0486 83.3851 65.0224 83.1524L64.2889 83.049C64.2889 83.5144 64.4198 83.8505 64.7342 84.0832C65.0486 84.3159 65.4677 84.4194 65.9917 84.4194C66.437 84.4194 66.8038 84.3418 67.092 84.1867C67.3802 84.0315 67.6159 83.7988 67.7469 83.5403C67.8779 83.2558 67.9565 82.7904 67.9565 82.1182V78.4208H67.2754V78.9638L67.2492 78.9379ZM66.9086 81.7045C66.6728 81.9631 66.3846 82.0923 66.0441 82.0923C65.7035 82.0923 65.4153 81.9631 65.1796 81.7045C64.9438 81.4459 64.839 81.0322 64.839 80.4634C64.839 79.9463 64.9438 79.5585 65.1796 79.2999C65.4153 79.0413 65.6773 78.9121 66.0179 78.9121C66.3585 78.9121 66.6466 79.0413 66.8824 79.2999C67.1182 79.5585 67.2492 79.9722 67.2492 80.4893C67.2492 81.0322 67.1444 81.4459 66.9086 81.7045Z" fill="var(--fill-0, #716E6A)"/>
<path id="Vector_13" d="M64.3675 31.6207C66.7252 25.3895 62.9004 19.3909 57.9491 17.7361C56.1677 11.3239 50.6138 8.84173 46.3174 8.84173C33.0615 8.84173 28.3721 29.1903 23.9972 45.5312C22.4253 43.9539 17.5788 39.1965 17.5526 39.1965C16.5833 38.2398 15.4568 38.5501 14.7757 39.1965C14.0945 39.8687 13.9897 41.1357 14.7757 41.9113C14.8281 41.9372 21.3512 48.3753 23.6304 50.5989C24.2591 51.1936 25.1499 51.5556 26.0406 51.0384C26.9837 50.4696 27.1147 49.4612 27.1409 49.4612C34.8953 15.2281 41.8114 12.6684 46.3174 12.6684C50.0899 12.6684 54.4648 15.435 54.4648 20.9423C60.0973 20.9423 63.6339 28.2336 59.1018 32.7325C62.8742 34.5166 64.5508 36.7402 64.5508 39.5326C64.5508 42.325 62.1669 45.195 58.7088 45.1692C55.2769 45.1692 53.5217 42.9973 50.8496 42.9973C49.6445 42.9973 48.8848 43.9539 48.8848 44.9106V51.8141H43.8287V44.9365C43.8287 43.8505 43.0165 42.9973 42.021 42.9973C42.021 42.9973 41.5757 42.9973 41.6019 42.9973L34.8429 43.8247C34.0308 43.9281 33.2711 44.8072 33.2711 45.7121C33.2711 46.7722 34.1356 47.6513 35.3407 47.6255C35.4979 47.6255 35.7074 47.6255 35.6812 47.6255L39.9776 47.0825V53.9084C39.9776 54.7875 40.9731 55.6149 41.8638 55.6149H50.8496C51.8975 55.6149 52.8144 54.7358 52.8144 53.6757V47.4445C54.7006 48.5821 57.3203 49.0217 58.6564 49.0217C63.7125 49.0217 68.5067 45.1175 68.5067 39.3775C68.5067 34.1804 64.4461 31.569 64.4461 31.569L64.3675 31.6207Z" fill="var(--fill-0, #716E6A)"/>
<path id="Vector_14" d="M46.0024 72.4998C43.6184 72.4998 42.2037 71.569 41.4178 69.4488L41.3654 69.2678H41.182C40.7629 69.2678 40.4223 69.2678 40.2389 69.5264C40.0817 69.7332 40.1079 70.0176 40.1865 70.302L40.7105 72.4739C40.8415 72.991 41.051 73.0945 41.8894 73.2496C42.2561 73.3013 44.1947 73.6374 45.819 73.6374C50.3773 73.6374 52.4207 71.8017 52.4207 69.9918C52.4207 68.6731 51.0847 67.4062 48.2291 66.01L46.9193 65.3894C44.9545 64.4586 43.7756 63.9156 43.7756 62.959C43.7756 62.0023 45.0069 61.3559 46.7621 61.3559C49.0413 61.3559 49.6438 62.6228 49.932 63.7088L49.9844 63.9156H50.194C50.6917 63.9156 51.0323 63.8639 51.2157 63.6571C51.3204 63.5537 51.3728 63.3985 51.3466 63.1917L51.1633 61.3301C51.1109 60.7354 50.6393 60.632 50.0106 60.5285C49.2508 60.3992 48.3339 60.2183 46.9455 60.2183C42.9896 60.2183 40.6319 61.3559 40.6319 63.2692C40.6319 64.8723 42.4657 65.8548 45.4522 67.251C47.8362 68.337 49.1985 69.5005 49.1985 70.4313C49.1985 71.9309 47.548 72.4739 46.0024 72.4739V72.4998Z" fill="var(--fill-0, #716E6A)"/>
<path id="Vector_15" d="M63.0055 61.3559C65.0489 61.3559 66.123 62.0799 66.3326 63.5537V63.7864H66.6208C66.8566 63.7864 67.5115 63.7864 67.5115 63.321V61.0974C67.5115 60.5544 66.8827 60.4768 66.5946 60.4251H66.3326C65.6777 60.2958 65.0489 60.2183 63.3985 60.2183C57.8184 60.2183 53.7578 63.0883 53.7578 67.0701C53.7578 70.3279 56.6133 73.6374 62.1148 73.6374C64.8917 73.6374 66.4374 73.0169 67.5901 72.3964L67.9045 72.2412L67.3805 71.6982H67.4067C67.2757 71.5431 67.1971 71.5173 67.0137 71.5173L66.7518 71.5948C66.3326 71.7758 65.0751 72.3705 62.7697 72.3705C59.9404 72.3705 56.8753 70.5347 56.8753 66.5271C56.8753 62.5194 60.1762 61.3559 63.0055 61.3559Z" fill="var(--fill-0, #716E6A)"/>
<path id="Vector_16" d="M29.9178 61.5619C30.7823 61.5361 32.8781 61.4585 33.5069 61.4585C34.1356 61.4585 34.6596 61.5878 35.0001 61.8205C36.1266 62.5186 36.703 62.984 37.0435 63.2426C37.3841 63.5011 37.5675 63.6821 37.8557 63.6821C38.0128 63.6821 38.4844 63.6821 38.4844 63.2684C38.4844 63.165 38.432 63.0874 38.301 62.7513C38.1176 62.3635 37.8033 61.6912 37.4103 60.6828C37.3055 60.3726 36.9388 60.3726 36.2314 60.3726H33.0877L28.1626 60.4501L24.8617 60.3984H24.364C24.0758 60.3984 23.8662 60.6053 23.8662 60.8897C23.8662 61.019 23.8662 61.4585 24.4164 61.4585C26.4074 61.4585 26.486 61.6136 26.5122 62.3635V62.8289L26.5646 64.8198V69.1377C26.5646 69.8616 26.5646 70.9993 26.486 71.9043C26.486 72.1628 26.4598 72.4214 24.7045 72.4214C24.2068 72.4214 23.9186 72.5248 23.9186 72.9902C23.9186 73.1195 23.9186 73.5073 24.3902 73.5073H24.495C24.7045 73.5073 25.2547 73.4815 28.0054 73.4815C30.9395 73.4815 31.5159 73.5073 31.7255 73.5073H31.8302C32.2232 73.5073 32.5376 73.4815 32.5376 72.9902C32.5376 72.4472 32.0922 72.4214 31.3587 72.4214C29.6035 72.4214 29.5773 72.1628 29.5773 71.9043C29.5249 71.051 29.4987 69.9134 29.4987 69.1377V67.5863H30.9657C33.2187 67.5863 33.4807 67.638 33.8213 69.3704C33.8998 69.7324 34.2142 69.7841 34.4762 69.7841C35.0001 69.7841 35.0787 69.4997 35.0787 69.3704L35.0263 68.724C35.0001 68.362 34.9477 67.8966 34.9477 67.2761V64.6388C34.9477 64.2509 34.4762 64.2509 34.2142 64.2509C33.7951 64.2509 33.6903 64.5095 33.4021 65.7764C33.2711 66.2418 32.3542 66.5262 30.8347 66.5262H29.4987V62.6479C29.4987 61.5878 29.6821 61.5878 29.9178 61.5619Z" fill="var(--fill-0, #716E6A)"/>
<path id="Vector_17" d="M16.5828 96.5713H17.6569V94.0115H20.3553V93.029H17.6569V91.5811H20.7482V90.5986H16.5828V96.5713Z" fill="var(--fill-0, #716E6A)"/>
<path id="Vector_18" d="M25.2015 93.2622C24.8871 93.1588 24.4942 93.0554 24.0226 92.9519C23.4987 92.8227 23.1581 92.7192 22.9747 92.6158C22.8437 92.5382 22.7651 92.3831 22.7651 92.2021C22.7651 91.9694 22.8699 91.8143 23.0533 91.7109C23.2629 91.5816 23.5772 91.504 23.9178 91.504C24.3108 91.504 24.6251 91.5816 24.8085 91.7367C25.0181 91.8918 25.1229 92.1246 25.1491 92.4348V92.59L26.197 92.5124V92.3573C26.1708 91.7626 25.935 91.2972 25.5159 90.9869C25.0967 90.6766 24.5465 90.5215 23.8916 90.5215C23.2367 90.5215 22.7127 90.6766 22.3198 91.0128C21.9268 91.3489 21.7172 91.7626 21.7172 92.2538C21.7172 92.6934 21.8744 93.0554 22.1888 93.3398C22.5031 93.6242 22.9747 93.8052 23.6558 93.9603C24.2846 94.0896 24.7299 94.2189 24.9919 94.374C25.2277 94.4774 25.3325 94.6584 25.3325 94.917C25.3325 95.1497 25.2277 95.3565 25.0181 95.4858C24.7823 95.6409 24.468 95.7185 24.075 95.7185C23.6558 95.7185 23.2891 95.6151 23.0009 95.4341C22.7127 95.2531 22.5817 94.9687 22.5293 94.555V94.3999L21.4814 94.4774V94.6326C21.5076 95.2272 21.7434 95.7444 22.1888 96.1322C22.6079 96.52 23.2629 96.701 24.1012 96.701C24.7823 96.701 25.3325 96.52 25.7516 96.1839C26.1708 95.8219 26.4066 95.3824 26.4066 94.8394C26.4066 94.4257 26.2756 94.0637 26.0398 93.8052C25.804 93.5725 25.5421 93.3915 25.2015 93.2622Z" fill="var(--fill-0, #716E6A)"/>
<path id="Vector_19" d="M31.5421 94.3993C31.4373 94.8389 31.254 95.175 30.992 95.4077C30.73 95.6146 30.4156 95.718 29.9965 95.718C29.4987 95.718 29.0796 95.537 28.7652 95.2009C28.4508 94.8389 28.2937 94.2959 28.2937 93.5461C28.2937 92.8997 28.4508 92.3826 28.739 91.9948C29.0272 91.6328 29.4725 91.4518 30.0489 91.4518C30.3895 91.4518 30.6776 91.5294 30.9134 91.7103C31.1492 91.8913 31.3064 92.1499 31.4373 92.5119L31.4897 92.6412L32.5376 92.4085L32.4852 92.2533C32.3281 91.6845 32.0137 91.2449 31.5945 90.9347C31.1754 90.6244 30.6514 90.4951 30.0751 90.4951C29.2368 90.4951 28.5556 90.7795 28.0055 91.3225C27.4815 91.8655 27.1934 92.6153 27.1934 93.5461C27.1934 94.3993 27.4291 95.1233 27.8745 95.7438C28.3199 96.3644 29.0534 96.6747 30.0489 96.6747C30.6776 96.6747 31.2016 96.4937 31.6469 96.1834C32.0923 95.8473 32.4067 95.356 32.59 94.6838L32.6424 94.5286L31.5683 94.2701V94.4252L31.5421 94.3993Z" fill="var(--fill-0, #716E6A)"/>
<path id="Vector_20" d="M34.6061 90.6504C34.1869 90.6504 33.8202 90.8055 33.5058 91.0899C33.1914 91.4002 33.0604 91.7622 33.0604 92.1758C33.0604 92.5895 33.2176 92.9515 33.5058 93.2618C33.8202 93.5721 34.1869 93.7013 34.6061 93.7013C35.0252 93.7013 35.392 93.5462 35.7064 93.2618C36.0208 92.9515 36.1517 92.5895 36.1517 92.1758C36.1517 91.7622 35.9946 91.4002 35.7064 91.0899C35.392 90.7796 35.0252 90.6504 34.6061 90.6504ZM34.8157 91.8656C34.8157 91.8656 34.8157 91.9431 34.7633 91.969C34.7633 91.969 34.6847 92.0207 34.5013 92.0207H34.2655V91.7104H34.4751C34.6585 91.7104 34.7371 91.7363 34.7633 91.7622C34.7895 91.788 34.8157 91.8139 34.8157 91.8656ZM35.1562 92.6413C35.0776 92.4861 34.9729 92.3827 34.9205 92.331C34.999 92.3051 35.0776 92.2534 35.13 92.2017C35.2086 92.0983 35.261 91.9948 35.261 91.8656C35.261 91.7621 35.2348 91.6587 35.1562 91.5812C35.1038 91.5036 34.999 91.426 34.8943 91.4002C34.7895 91.4002 34.6585 91.3743 34.5013 91.3743H33.8726V93.1066H34.2917V92.4344H34.3703C34.3703 92.4344 34.5013 92.4344 34.5537 92.4861C34.5537 92.4861 34.6585 92.5895 34.9205 93.0549V93.1066H35.3396C35.13 93.2876 34.8943 93.3652 34.6061 93.3652C34.2917 93.3652 34.0297 93.2618 33.794 93.0291C33.5582 92.7964 33.4534 92.5378 33.4534 92.2275C33.4534 91.9173 33.5582 91.6587 33.794 91.426C34.0297 91.1933 34.2917 91.0899 34.6061 91.0899C34.9205 91.0899 35.1824 91.1933 35.4182 91.426C35.654 91.6587 35.7588 91.9173 35.7588 92.2275C35.7588 92.5378 35.654 92.8222 35.4182 93.0291L35.1824 92.6671L35.1562 92.6413Z" fill="var(--fill-0, #716E6A)"/>
<path id="Vector_21" d="M41.7328 90.4697H42.8593L45.217 96.4941H44.0643L43.488 94.8911H41.0516L40.4753 96.4941H39.375L41.7328 90.4697ZM41.366 94.1154H43.226L42.3091 91.5298L41.3922 94.1154H41.366Z" fill="var(--fill-0, #716E6A)"/>
<path id="Vector_22" d="M47.549 90.4696C47.9682 90.4696 48.335 90.573 48.5969 90.754C48.8589 90.9608 49.0685 91.1935 49.2257 91.5038C49.3829 91.8141 49.4876 92.1243 49.54 92.4863C49.5924 92.8483 49.6186 93.1844 49.6186 93.5464C49.6186 93.9084 49.5924 94.2445 49.54 94.6065C49.4876 94.9685 49.3829 95.3046 49.2257 95.589C49.0685 95.8993 48.8589 96.132 48.5969 96.3388C48.335 96.5457 47.9682 96.6232 47.549 96.6232C47.1299 96.6232 46.7631 96.5198 46.5011 96.3388C46.2392 96.132 46.0296 95.8993 45.8724 95.589C45.7152 95.2787 45.6104 94.9685 45.558 94.6065C45.5056 94.2445 45.4794 93.9084 45.4794 93.5464C45.4794 93.1844 45.5056 92.8483 45.558 92.4863C45.6104 92.1243 45.7152 91.7882 45.8724 91.5038C46.0296 91.1935 46.2392 90.9608 46.5011 90.754C46.7631 90.5471 47.1299 90.4696 47.549 90.4696ZM47.549 95.8217C47.7586 95.8217 47.942 95.77 48.073 95.6407C48.204 95.5115 48.335 95.3563 48.4135 95.1495C48.4921 94.9426 48.5445 94.7099 48.5969 94.4255C48.6493 94.1411 48.6493 93.8567 48.6493 93.5464C48.6493 93.2361 48.6493 92.9517 48.5969 92.6673C48.5445 92.3829 48.4921 92.1502 48.4135 91.9433C48.335 91.7365 48.2302 91.5814 48.073 91.4521C47.942 91.3228 47.7586 91.2711 47.549 91.2711C47.3394 91.2711 47.1561 91.3228 47.0251 91.4521C46.8941 91.5814 46.7631 91.7365 46.6845 91.9433C46.6059 92.1502 46.5535 92.3829 46.5011 92.6673C46.4487 92.9517 46.4487 93.2361 46.4487 93.5464C46.4487 93.8567 46.4487 94.1411 46.5011 94.4255C46.5535 94.7099 46.6059 94.9426 46.6845 95.1495C46.7631 95.3563 46.8679 95.5115 47.0251 95.6407C47.1561 95.77 47.3394 95.8217 47.549 95.8217Z" fill="var(--fill-0, #716E6A)"/>
<path id="Vector_23" d="M52.3169 90.4696C52.736 90.4696 53.1028 90.573 53.3648 90.754C53.6268 90.9608 53.8363 91.1935 53.9935 91.5038C54.1507 91.8141 54.2555 92.1243 54.3079 92.4863C54.3603 92.8483 54.3865 93.1844 54.3865 93.5464C54.3865 93.9084 54.3603 94.2445 54.3079 94.6065C54.2555 94.9685 54.1507 95.3046 53.9935 95.589C53.8363 95.8993 53.6268 96.132 53.3648 96.3388C53.1028 96.5457 52.736 96.6232 52.3169 96.6232C51.8977 96.6232 51.531 96.5198 51.269 96.3388C51.007 96.132 50.7974 95.8993 50.6402 95.589C50.4831 95.2787 50.3783 94.9685 50.3259 94.6065C50.2735 94.2445 50.2473 93.9084 50.2473 93.5464C50.2473 93.1844 50.2735 92.8483 50.3259 92.4863C50.3783 92.1243 50.4831 91.7882 50.6402 91.5038C50.7974 91.1935 51.007 90.9608 51.269 90.754C51.531 90.5471 51.8977 90.4696 52.3169 90.4696ZM52.3169 95.8217C52.5265 95.8217 52.7098 95.77 52.8408 95.6407C52.9718 95.5115 53.1028 95.3563 53.1814 95.1495C53.26 94.9426 53.3124 94.7099 53.3648 94.4255C53.4172 94.1411 53.4172 93.8567 53.4172 93.5464C53.4172 93.2361 53.4172 92.9517 53.3648 92.6673C53.3124 92.3829 53.26 92.1502 53.1814 91.9433C53.1028 91.7365 52.998 91.5814 52.8408 91.4521C52.7098 91.3228 52.5265 91.2711 52.3169 91.2711C52.1073 91.2711 51.9239 91.3228 51.7929 91.4521C51.662 91.5814 51.531 91.7365 51.4524 91.9433C51.3738 92.1502 51.3214 92.3829 51.269 92.6673C51.2166 92.9517 51.2166 93.2361 51.2166 93.5464C51.2166 93.8567 51.2166 94.1411 51.269 94.4255C51.3214 94.7099 51.3738 94.9426 51.4524 95.1495C51.531 95.3563 51.6358 95.5115 51.7929 95.6407C51.9239 95.77 52.1073 95.8217 52.3169 95.8217Z" fill="var(--fill-0, #716E6A)"/>
<path id="Vector_24" d="M57.0579 90.4696C57.4771 90.4696 57.8439 90.573 58.1058 90.754C58.3678 90.9608 58.5774 91.1935 58.7346 91.5038C58.8918 91.8141 58.9966 92.1243 59.0489 92.4863C59.1013 92.8483 59.1275 93.1844 59.1275 93.5464C59.1275 93.9084 59.1013 94.2445 59.0489 94.6065C58.9966 94.9685 58.8918 95.3046 58.7346 95.589C58.5774 95.8993 58.3678 96.132 58.1058 96.3388C57.8439 96.5457 57.4771 96.6232 57.0579 96.6232C56.6388 96.6232 56.272 96.5198 56.01 96.3388C55.7481 96.132 55.5385 95.8993 55.3813 95.589C55.2241 95.2787 55.1193 94.9685 55.0669 94.6065C55.0145 94.2445 54.9883 93.9084 54.9883 93.5464C54.9883 93.1844 55.0145 92.8483 55.0669 92.4863C55.1193 92.1243 55.2241 91.7882 55.3813 91.5038C55.5385 91.1935 55.7481 90.9608 56.01 90.754C56.272 90.5471 56.6388 90.4696 57.0579 90.4696ZM57.0579 95.8217C57.2675 95.8217 57.4509 95.77 57.5819 95.6407C57.7129 95.5115 57.8439 95.3563 57.9225 95.1495C58.001 94.9426 58.0534 94.7099 58.1058 94.4255C58.1582 94.1411 58.1582 93.8567 58.1582 93.5464C58.1582 93.2361 58.1582 92.9517 58.1058 92.6673C58.0534 92.3829 58.001 92.1502 57.9225 91.9433C57.8439 91.7365 57.7391 91.5814 57.5819 91.4521C57.4509 91.3228 57.2675 91.2711 57.0579 91.2711C56.8484 91.2711 56.665 91.3228 56.534 91.4521C56.403 91.5814 56.272 91.7365 56.1934 91.9433C56.1148 92.1502 56.0624 92.3829 56.01 92.6673C55.9576 92.9517 55.9576 93.2361 55.9576 93.5464C55.9576 93.8567 55.9576 94.1411 56.01 94.4255C56.0624 94.7099 56.1148 94.9426 56.1934 95.1495C56.272 95.3563 56.3768 95.5115 56.534 95.6407C56.665 95.77 56.8484 95.8217 57.0579 95.8217Z" fill="var(--fill-0, #716E6A)"/>
<path id="Vector_25" d="M60.5162 90.5986H63.6075V91.4518H61.2236L60.9092 92.9514C61.0402 92.8222 61.1974 92.7187 61.4069 92.6412C61.6165 92.5636 61.7999 92.5378 62.0095 92.5378C62.2977 92.5378 62.5596 92.5895 62.7954 92.6929C63.0312 92.7963 63.2146 92.9256 63.398 93.1066C63.5551 93.2876 63.6861 93.4944 63.7647 93.7271C63.8433 93.9598 63.8957 94.2442 63.8957 94.5028C63.8957 94.7355 63.8695 94.9941 63.7909 95.2268C63.7123 95.4853 63.5813 95.718 63.4241 95.899C63.267 96.1059 63.0312 96.261 62.7692 96.4161C62.5072 96.5454 62.1929 96.623 61.8261 96.623C61.5379 96.623 61.276 96.5971 61.014 96.5196C60.752 96.442 60.5424 96.3386 60.359 96.1834C60.1757 96.0283 60.0185 95.8473 59.9137 95.6146C59.8089 95.3819 59.7303 95.1233 59.7303 94.8389H60.6996C60.7258 95.1492 60.8306 95.4077 61.0402 95.5887C61.2236 95.7697 61.4855 95.8473 61.7999 95.8473C62.0095 95.8473 62.1667 95.8214 62.3239 95.7439C62.4548 95.6663 62.5858 95.5887 62.6644 95.4595C62.743 95.3302 62.8216 95.2009 62.8478 95.0458C62.874 94.8906 62.9002 94.7096 62.9002 94.5287C62.9002 94.3735 62.9002 94.2184 62.8216 94.0632C62.7692 93.9081 62.7168 93.7788 62.612 93.6754C62.5072 93.572 62.4024 93.4686 62.2453 93.4168C62.0881 93.3651 61.9309 93.3134 61.7475 93.3134C61.5379 93.3134 61.3545 93.3393 61.1712 93.4168C60.9878 93.4944 60.8568 93.6237 60.7782 93.8564H59.8089L60.4376 90.6244L60.5162 90.5986Z" fill="var(--fill-0, #716E6A)"/>
<path id="Vector_26" d="M68.6368 96.5198H64.5499C64.5499 96.0286 64.6809 95.589 64.9167 95.227C65.1525 94.8651 65.4669 94.5548 65.886 94.2704C66.0694 94.1411 66.279 93.986 66.4886 93.8567C66.6981 93.7274 66.8815 93.5723 67.0649 93.4171C67.2483 93.262 67.3793 93.1069 67.5103 92.9259C67.615 92.7449 67.6936 92.538 67.6936 92.3053C67.6936 92.2019 67.6936 92.0726 67.6674 91.9692C67.6674 91.8399 67.5889 91.7365 67.5103 91.6331C67.4317 91.5296 67.3269 91.4521 67.1959 91.3745C67.0649 91.2969 66.8815 91.2711 66.6719 91.2711C66.4886 91.2711 66.3052 91.2969 66.2004 91.3745C66.0694 91.4521 65.9646 91.5555 65.886 91.6848C65.8074 91.8141 65.755 91.9692 65.7026 92.1502C65.6764 92.3312 65.6502 92.5122 65.6502 92.7449H64.6809C64.6809 92.4087 64.7333 92.1243 64.8119 91.8399C64.8905 91.5555 65.0215 91.3228 65.2049 91.116C65.3883 90.9091 65.5978 90.754 65.8598 90.6506C66.1218 90.5471 66.41 90.4696 66.7505 90.4696C67.1173 90.4696 67.4317 90.5213 67.6674 90.6506C67.9032 90.7798 68.1128 90.9091 68.27 91.0901C68.4272 91.2711 68.532 91.4779 68.5844 91.6848C68.6368 91.8916 68.6891 92.0985 68.6891 92.2795C68.6891 92.5122 68.6629 92.719 68.5844 92.9259C68.5058 93.1327 68.401 93.2878 68.2962 93.443C68.1652 93.5981 68.0342 93.7533 67.877 93.8825C67.7198 94.0118 67.5627 94.1411 67.3793 94.2704C67.1959 94.3996 67.0387 94.5031 66.8553 94.6065C66.6719 94.7099 66.5148 94.8133 66.3838 94.9168C66.2266 95.0202 66.1218 95.1236 65.9908 95.2529C65.886 95.3563 65.8074 95.4856 65.7812 95.6149H68.6891V96.4681L68.6368 96.5198Z" fill="var(--fill-0, #716E6A)"/>
<path id="Vector_27" d="M70.9173 93.0553C71.0745 93.0553 71.2317 93.0553 71.3889 93.0294C71.5461 93.0036 71.7033 92.9519 71.8081 92.8743C71.939 92.7967 72.0438 92.7192 72.1224 92.5899C72.201 92.4606 72.2272 92.3055 72.2272 92.1245C72.2272 91.8659 72.1486 91.6591 71.9652 91.504C71.7819 91.3488 71.5723 91.2713 71.2841 91.2713C71.1007 91.2713 70.9697 91.2971 70.8388 91.3747C70.7078 91.4522 70.603 91.5298 70.5244 91.6591C70.4458 91.7884 70.3672 91.8918 70.341 92.0469C70.2886 92.2021 70.2886 92.3313 70.2886 92.4865H69.3193C69.3193 92.2021 69.3717 91.9435 69.4765 91.6849C69.5813 91.4522 69.7123 91.2195 69.8694 91.0385C70.0266 90.8576 70.2362 90.7283 70.472 90.6249C70.7078 90.5214 70.9697 90.4697 71.2841 90.4697C71.5199 90.4697 71.7557 90.4956 71.9652 90.5731C72.1748 90.6507 72.3844 90.7283 72.5678 90.8576C72.7512 90.9868 72.8822 91.142 73.0131 91.3488C73.1179 91.5557 73.1703 91.7884 73.1703 92.0469C73.1703 92.3572 73.0917 92.6158 72.9607 92.8226C72.8298 93.0295 72.6202 93.2104 72.332 93.3139C72.6726 93.3914 72.9345 93.5724 73.1441 93.831C73.3275 94.0895 73.4323 94.4257 73.4323 94.8135C73.4323 95.0979 73.3799 95.3565 73.2489 95.5633C73.1179 95.7702 72.9869 95.977 72.7774 96.1321C72.594 96.2873 72.3582 96.4166 72.0962 96.4941C71.8343 96.5717 71.5723 96.6234 71.2841 96.6234C70.9435 96.6234 70.6292 96.5717 70.3672 96.4683C70.1052 96.3649 69.8956 96.2356 69.7123 96.0546C69.5289 95.8736 69.3979 95.6667 69.3193 95.4082C69.2145 95.1496 69.1883 94.8652 69.1621 94.5549H70.1314C70.1314 94.9169 70.21 95.2272 70.3934 95.4599C70.5768 95.6926 70.8649 95.8219 71.2579 95.8219C71.5723 95.8219 71.8605 95.7185 72.07 95.5375C72.2796 95.3565 72.4106 95.0979 72.4106 94.7618C72.4106 94.5291 72.3582 94.3481 72.2796 94.2188C72.1748 94.0895 72.07 93.9861 71.9128 93.9085C71.7557 93.831 71.5985 93.8051 71.4151 93.7793C71.2317 93.7793 71.0483 93.7793 70.8388 93.7793V93.0553H70.9173Z" fill="var(--fill-0, #716E6A)"/>
<path id="Vector_28" d="M82.9149 105.078H7.15176C3.19594 105.078 -0.000155027 101.924 -0.000155027 98.0195V7.05868C-0.000155027 3.15445 3.19594 4.28756e-05 7.15176 4.28756e-05H82.9149C86.8707 4.28756e-05 90.0668 3.15445 90.0668 7.05868V98.0195C90.0668 101.898 86.8707 105.078 82.9149 105.078ZM7.15176 1.34455C3.95566 1.34455 1.36211 3.90427 1.36211 7.05868V98.0195C1.36211 101.174 3.95566 103.734 7.15176 103.734H82.9149C86.1109 103.734 88.7045 101.174 88.7045 98.0195V7.05868C88.7045 3.90427 86.1109 1.34455 82.9149 1.34455H7.15176Z" fill="var(--fill-0, #716E6A)"/>
</g>
<defs>
<clipPath id="clip0_0_54">
<rect width="90.0669" height="105.078" fill="white"/>
</clipPath>
</defs>
</svg>
