<svg preserveAspectRatio="none" width="100%" height="100%" overflow="visible" style="display: block;" viewBox="0 0 56.5906 57.6997" fill="none" xmlns="http://www.w3.org/2000/svg">
<g id="Group 1000004789">
<path id="Vector" d="M55.36 46.9235C57.0242 44.0626 56.9767 40.6295 55.36 37.8162L48.1324 25.2758C47.752 24.656 46.9912 24.4176 46.3255 24.799C45.7074 25.1805 45.4696 25.9434 45.85 26.6109L53.0776 39.1513C54.2663 41.2017 54.2663 43.6334 53.0776 45.6361C51.8888 47.6387 49.7966 48.8785 47.4667 48.8785H36.1498L40.1916 44.8255C40.7146 44.301 40.7146 43.4904 40.1916 42.9659C39.6685 42.4414 38.8602 42.4414 38.3371 42.9659L32.1081 49.2122C31.5851 49.7367 31.5851 50.5473 32.1081 51.0718L38.3371 57.3182C38.5749 57.5566 38.9077 57.6997 39.2406 57.6997C39.5734 57.6997 39.9063 57.5566 40.144 57.3182C40.6671 56.7937 40.6671 55.9831 40.144 55.4586L36.1023 51.4056H47.4191C50.7001 51.4056 53.6482 49.6891 55.3124 46.8281L55.36 46.9235Z" fill="var(--fill-0, #716E6A)"/>
<path id="Vector_2" d="M1.24818 46.9224C2.91243 49.7833 5.86051 51.4999 9.14145 51.4999H22.8358C23.549 51.4999 24.1196 50.9277 24.1196 50.2124C24.1196 49.4972 23.549 48.925 22.8358 48.925H9.14145C6.81151 48.925 4.71932 47.6853 3.53057 45.6826C2.34183 43.68 2.34183 41.2005 3.53057 39.1979L10.4728 27.2297L11.9469 32.7608C12.0895 33.333 12.6126 33.7144 13.2307 33.7144C13.3258 33.7144 13.4685 33.7144 13.5636 33.7144C14.2768 33.5237 14.6572 32.8085 14.467 32.0932L12.1846 23.5105C11.9944 22.7952 11.2812 22.4138 10.5679 22.6045L2.00898 24.8933C1.29573 25.084 0.915334 25.7992 1.10553 26.5144C1.29573 27.2297 2.00898 27.6111 2.72223 27.4204L8.19046 25.9423L1.24818 37.8151C-0.416061 40.676 -0.416061 44.0614 1.24818 46.9224Z" fill="var(--fill-0, #716E6A)"/>
<path id="Vector_3" d="M31.2041 13.2556C31.0139 13.9709 31.4418 14.6861 32.1075 14.8768L40.6665 17.1656C40.6665 17.1656 40.9043 17.1656 40.9994 17.1656C41.57 17.1656 42.093 16.7841 42.2832 16.2119L44.5656 7.62913C44.7558 6.9139 44.3278 6.19867 43.6621 6.00794C42.9489 5.81721 42.2357 6.24635 42.0455 6.9139L40.619 12.2066L36.1968 4.5298C34.5326 1.66887 31.632 0 28.3036 0C24.9751 0 22.0745 1.71656 20.4103 4.5298L14.7994 14.2569C14.419 14.8768 14.6568 15.6874 15.2749 16.0689C15.8931 16.4503 16.7014 16.2119 17.0818 15.592L22.6927 5.8649C23.8814 3.81457 25.9736 2.62251 28.3036 2.62251C30.6335 2.62251 32.7257 3.81457 33.9144 5.8649L38.5268 13.8278L32.7732 12.302C32.06 12.1113 31.3467 12.5404 31.1565 13.2079L31.2041 13.2556Z" fill="var(--fill-0, #716E6A)"/>
</g>
</svg>
