<svg preserveAspectRatio="none" width="100%" height="100%" overflow="visible" style="display: block;" viewBox="0 0 71.0659 70.2277" fill="none" xmlns="http://www.w3.org/2000/svg">
<g id="Group 1000004371">
<path id="Vector" d="M23.6338 20.2603C23.735 20.3566 23.8244 20.4647 23.9053 20.5845C24.3794 21.2872 24.6494 22.1858 24.6494 23.4429C24.6494 25.0086 24.2754 26.0472 23.7246 26.6821C23.6238 26.7983 23.5125 26.9054 23.3906 27.0034C23.5064 26.8904 23.6169 26.7674 23.7178 26.6304C24.3088 25.8272 24.5244 24.744 24.5244 23.5435C24.5244 22.363 24.3404 21.2934 23.8076 20.4946C23.7526 20.4122 23.6943 20.3344 23.6338 20.2603Z" fill="var(--fill-0, #716E6A)" stroke="var(--stroke-0, #716E6A)" stroke-width="2.01285"/>
<path id="Vector_2" d="M29.5596 16.4888L29.4424 17.0288L29.5215 17.1069C29.2956 18.1493 29.2314 19.5089 29.2314 20.8267C29.2314 22.796 29.44 24.4127 29.7842 25.5464L29.7881 25.561L29.793 25.5757C30.019 26.2457 30.3187 26.8395 30.7871 27.2603C30.9572 27.4131 31.1383 27.5291 31.3242 27.6196C31.1679 27.5692 31.0256 27.5086 30.8965 27.436C30.5283 27.229 30.2015 26.9032 29.9219 26.3999C29.3386 25.35 29.0049 23.6039 29.0049 20.9272C29.0049 18.8485 29.2217 17.3659 29.5938 16.3423C29.5822 16.3906 29.5702 16.4397 29.5596 16.4888ZM35.3506 16.8237C35.6634 17.8371 35.8456 19.201 35.8486 20.9829C35.8438 23.4654 35.5142 25.1589 34.9541 26.2251C35.0941 25.9151 35.2011 25.5749 35.2822 25.2124C35.6311 24.1248 35.7246 22.393 35.7246 20.8267C35.7246 19.3193 35.5845 17.9091 35.3506 16.8237Z" fill="var(--fill-0, #716E6A)" stroke="var(--stroke-0, #716E6A)" stroke-width="2.01285"/>
<g id="Vector_3">
<mask id="path-3-inside-1_0_194" fill="white">
<path d="M45.3079 17.3053C45.3079 20.0219 44.1879 21.4305 42.0498 21.4305C39.9118 21.4305 38.7918 20.0219 38.7918 17.3053C38.7918 14.5888 39.9118 13.2808 42.0498 13.2808C44.1879 13.2808 45.3079 14.6894 45.3079 17.406V17.3053ZM40.5226 17.2047C40.5226 19.1164 41.0317 20.0219 42.1517 20.0219C43.2716 20.0219 43.7807 19.1164 43.7807 17.2047C43.7807 15.2931 43.2716 14.3876 42.1517 14.3876C41.0317 14.3876 40.5226 15.2931 40.5226 17.2047ZM49.4822 13.3814H51.2131L43.9843 28.4734H42.2535L49.4822 13.3814ZM54.7765 24.6501C54.7765 27.3666 53.6566 28.7752 51.5185 28.7752C49.3804 28.7752 48.2605 27.3666 48.2605 24.6501C48.2605 21.9335 49.3804 20.6256 51.5185 20.6256C53.6566 20.6256 54.7765 22.0341 54.7765 24.7507V24.6501ZM49.8895 24.6501C49.8895 26.5617 50.3986 27.4672 51.5185 27.4672C52.6385 27.4672 53.1475 26.5617 53.1475 24.6501C53.1475 22.7384 52.6385 21.8329 51.5185 21.8329C50.3986 21.8329 49.8895 22.7384 49.8895 24.6501Z"/>
</mask>
<path d="M45.3079 17.3053C45.3079 20.0219 44.1879 21.4305 42.0498 21.4305C39.9118 21.4305 38.7918 20.0219 38.7918 17.3053C38.7918 14.5888 39.9118 13.2808 42.0498 13.2808C44.1879 13.2808 45.3079 14.6894 45.3079 17.406V17.3053ZM40.5226 17.2047C40.5226 19.1164 41.0317 20.0219 42.1517 20.0219C43.2716 20.0219 43.7807 19.1164 43.7807 17.2047C43.7807 15.2931 43.2716 14.3876 42.1517 14.3876C41.0317 14.3876 40.5226 15.2931 40.5226 17.2047ZM49.4822 13.3814H51.2131L43.9843 28.4734H42.2535L49.4822 13.3814ZM54.7765 24.6501C54.7765 27.3666 53.6566 28.7752 51.5185 28.7752C49.3804 28.7752 48.2605 27.3666 48.2605 24.6501C48.2605 21.9335 49.3804 20.6256 51.5185 20.6256C53.6566 20.6256 54.7765 22.0341 54.7765 24.7507V24.6501ZM49.8895 24.6501C49.8895 26.5617 50.3986 27.4672 51.5185 27.4672C52.6385 27.4672 53.1475 26.5617 53.1475 24.6501C53.1475 22.7384 52.6385 21.8329 51.5185 21.8329C50.3986 21.8329 49.8895 22.7384 49.8895 24.6501Z" fill="var(--fill-0, #716E6A)"/>
<path d="M49.4822 13.3814V11.3686H48.2145L47.6669 12.5119L49.4822 13.3814ZM51.2131 13.3814L53.0284 14.251L54.409 11.3686H51.2131V13.3814ZM43.9843 28.4734V30.4862H45.252L45.7997 29.3429L43.9843 28.4734ZM42.2535 28.4734L40.4381 27.6038L39.0575 30.4862H42.2535V28.4734ZM45.3079 17.3053H43.295C43.295 18.4347 43.0548 18.9446 42.9021 19.1377C42.8151 19.2477 42.6423 19.4176 42.0498 19.4176V21.4305V23.4433C43.5954 23.4433 45.0517 22.909 46.0592 21.6355C47.0009 20.4451 47.3207 18.8925 47.3207 17.3053H45.3079ZM42.0498 21.4305V19.4176C41.4574 19.4176 41.2846 19.2477 41.1976 19.1377C41.0448 18.9446 40.8047 18.4347 40.8047 17.3053H38.7918H36.779C36.779 18.8925 37.0988 20.4451 38.0405 21.6355C39.048 22.909 40.5043 23.4433 42.0498 23.4433V21.4305ZM38.7918 17.3053H40.8047C40.8047 16.1734 41.0459 15.7086 41.1748 15.5516C41.2417 15.47 41.4098 15.2937 42.0498 15.2937V13.2808V11.268C40.5518 11.268 39.0909 11.7456 38.0633 12.9971C37.0977 14.1733 36.779 15.7208 36.779 17.3053H38.7918ZM42.0498 13.2808V15.2937C42.6423 15.2937 42.8151 15.4636 42.9021 15.5736C43.0548 15.7667 43.295 16.2766 43.295 17.406H45.3079H47.3207C47.3207 15.8188 47.0009 14.2662 46.0592 13.0758C45.0517 11.8023 43.5954 11.268 42.0498 11.268V13.2808ZM45.3079 17.406H47.3207V17.3053H45.3079H43.295V17.406H45.3079ZM40.5226 17.2047H38.5098C38.5098 18.2631 38.6369 19.4015 39.1717 20.3327C39.4606 20.8356 39.8762 21.2908 40.4422 21.6073C41.0028 21.9208 41.5969 22.0347 42.1517 22.0347V20.0219V18.009C42.1464 18.009 42.257 18.0098 42.4071 18.0937C42.5627 18.1807 42.641 18.2901 42.6626 18.3277C42.6748 18.3489 42.6367 18.2899 42.5992 18.0864C42.5624 17.8868 42.5355 17.6002 42.5355 17.2047H40.5226ZM42.1517 20.0219V22.0347C42.7064 22.0347 43.3006 21.9208 43.8611 21.6073C44.4272 21.2908 44.8427 20.8356 45.1316 20.3327C45.6664 19.4015 45.7935 18.2631 45.7935 17.2047H43.7807H41.7678C41.7678 17.6002 41.741 17.8868 41.7042 18.0864C41.6666 18.2899 41.6286 18.3489 41.6407 18.3277C41.6623 18.2901 41.7406 18.1807 41.8962 18.0937C42.0464 18.0098 42.1569 18.009 42.1517 18.009V20.0219ZM43.7807 17.2047H45.7935C45.7935 16.1464 45.6664 15.008 45.1316 14.0768C44.8427 13.5739 44.4272 13.1187 43.8611 12.8021C43.3006 12.4887 42.7064 12.3747 42.1517 12.3747V14.3876V16.4004C42.1569 16.4004 42.0464 16.3997 41.8962 16.3157C41.7406 16.2287 41.6623 16.1194 41.6407 16.0818C41.6286 16.0606 41.6666 16.1196 41.7042 16.3231C41.741 16.5226 41.7678 16.8093 41.7678 17.2047H43.7807ZM42.1517 14.3876V12.3747C41.5969 12.3747 41.0028 12.4887 40.4422 12.8021C39.8762 13.1187 39.4606 13.5739 39.1717 14.0768C38.6369 15.008 38.5098 16.1464 38.5098 17.2047H40.5226H42.5355C42.5355 16.8093 42.5624 16.5226 42.5992 16.3231C42.6367 16.1196 42.6748 16.0606 42.6626 16.0818C42.641 16.1194 42.5627 16.2287 42.4071 16.3157C42.257 16.3997 42.1464 16.4004 42.1517 16.4004V14.3876ZM49.4822 13.3814V15.3943H51.2131V13.3814V11.3686H49.4822V13.3814ZM51.2131 13.3814L49.3977 12.5119L42.169 27.6038L43.9843 28.4734L45.7997 29.3429L53.0284 14.251L51.2131 13.3814ZM43.9843 28.4734V26.4605H42.2535V28.4734V30.4862H43.9843V28.4734ZM42.2535 28.4734L44.0688 29.3429L51.2976 14.251L49.4822 13.3814L47.6669 12.5119L40.4381 27.6038L42.2535 28.4734ZM54.7765 24.6501H52.7637C52.7637 25.7795 52.5235 26.2894 52.3707 26.4825C52.2838 26.5924 52.111 26.7623 51.5185 26.7623V28.7752V30.788C53.0641 30.788 54.5203 30.2537 55.5279 28.9802C56.4696 27.7899 56.7894 26.2372 56.7894 24.6501H54.7765ZM51.5185 28.7752V26.7623C50.926 26.7623 50.7532 26.5924 50.6663 26.4825C50.5135 26.2894 50.2733 25.7795 50.2733 24.6501H48.2605H46.2476C46.2476 26.2372 46.5674 27.7899 47.5091 28.9802C48.5167 30.2537 49.9729 30.788 51.5185 30.788V28.7752ZM48.2605 24.6501H50.2733C50.2733 23.5181 50.5145 23.0533 50.6434 22.8964C50.7104 22.8148 50.8785 22.6384 51.5185 22.6384V20.6256V18.6127C50.0204 18.6127 48.5595 19.0903 47.532 20.3419C46.5664 21.518 46.2476 23.0655 46.2476 24.6501H48.2605ZM51.5185 20.6256V22.6384C52.111 22.6384 52.2838 22.8084 52.3707 22.9183C52.5235 23.1114 52.7637 23.6213 52.7637 24.7507H54.7765H56.7894C56.7894 23.1635 56.4696 21.6109 55.5279 20.4205C54.5203 19.147 53.0641 18.6127 51.5185 18.6127V20.6256ZM54.7765 24.7507H56.7894V24.6501H54.7765H52.7637V24.7507H54.7765ZM49.8895 24.6501H47.8766C47.8766 25.7084 48.0038 26.8468 48.5386 27.778C48.8274 28.2809 49.243 28.7361 49.8091 29.0527C50.3696 29.3661 50.9637 29.4801 51.5185 29.4801V27.4672V25.4544C51.5133 25.4544 51.6238 25.4551 51.7739 25.5391C51.9295 25.6261 52.0079 25.7354 52.0295 25.773C52.0416 25.7942 52.0035 25.7352 51.966 25.5317C51.9292 25.3322 51.9023 25.0455 51.9023 24.6501H49.8895ZM51.5185 27.4672V29.4801C52.0733 29.4801 52.6674 29.3661 53.228 29.0527C53.794 28.7361 54.2096 28.2809 54.4984 27.778C55.0332 26.8468 55.1604 25.7084 55.1604 24.6501H53.1475H51.1347C51.1347 25.0455 51.1078 25.3322 51.071 25.5317C51.0335 25.7352 50.9954 25.7942 51.0076 25.773C51.0292 25.7354 51.1075 25.6261 51.2631 25.5391C51.4132 25.4551 51.5237 25.4544 51.5185 25.4544V27.4672ZM53.1475 24.6501H55.1604C55.1604 23.5917 55.0332 22.4533 54.4984 21.5221C54.2096 21.0192 53.794 20.564 53.228 20.2475C52.6674 19.934 52.0733 19.8201 51.5185 19.8201V21.8329V23.8458C51.5237 23.8458 51.4132 23.845 51.2631 23.7611C51.1075 23.6741 51.0292 23.5647 51.0076 23.5271C50.9954 23.5059 51.0335 23.5649 51.071 23.7684C51.1078 23.968 51.1347 24.2546 51.1347 24.6501H53.1475ZM51.5185 21.8329V19.8201C50.9637 19.8201 50.3696 19.934 49.8091 20.2475C49.243 20.564 48.8274 21.0192 48.5386 21.5221C48.0038 22.4533 47.8766 23.5917 47.8766 24.6501H49.8895H51.9023C51.9023 24.2546 51.9292 23.968 51.966 23.7684C52.0035 23.5649 52.0416 23.5059 52.0295 23.5271C52.0079 23.5647 51.9295 23.6741 51.7739 23.7611C51.6238 23.845 51.5133 23.8458 51.5185 23.8458V21.8329Z" fill="var(--stroke-0, #716E6A)" mask="url(#path-3-inside-1_0_194)"/>
</g>
<path id="Vector_4" d="M20.1709 43.1641V50.4072H19.9678V56.2432H19.9443V43.1641H20.1709ZM25.5811 44.6445C25.828 45.173 25.9746 45.8702 25.9746 46.7852C25.9746 48.216 25.5768 49.1518 24.9482 49.7168C24.9998 49.6637 25.051 49.6089 25.0996 49.5498C25.452 49.1703 25.651 48.6731 25.7656 48.2344C25.8929 47.7468 25.9512 47.2065 25.9512 46.6846C25.9511 45.9649 25.8187 45.2543 25.5811 44.6445Z" fill="var(--fill-0, #716E6A)" stroke="var(--stroke-0, #716E6A)" stroke-width="2.01285"/>
<path id="Vector_5" d="M34.4287 43.519C34.0735 43.8142 33.7777 44.1777 33.5371 44.5991C32.8408 45.819 32.5899 47.5519 32.5898 49.7007C32.5898 51.5857 32.8015 53.0206 33.2627 54.2739L33.2705 54.2964L33.2803 54.3179C33.4869 54.8078 33.7549 55.2546 34.1074 55.6304C33.8827 55.4463 33.6853 55.2334 33.5127 54.9907C32.7913 53.9765 32.3633 52.2958 32.3633 49.7007C32.3633 47.1067 32.791 45.4224 33.5039 44.4058C33.7572 44.0446 34.0611 43.7477 34.4287 43.519Z" fill="var(--fill-0, #716E6A)" stroke="var(--stroke-0, #716E6A)" stroke-width="2.01285"/>
<path id="Vector_6" d="M46.542 43.1641V49.6025H46.4404V56.2432H46.417V43.1641H46.542ZM51.6826 43.8311C52.1874 44.2731 52.5488 45.1385 52.5488 46.3828C52.5488 47.5191 52.2917 48.1287 51.8301 48.585C51.8252 48.5898 51.8193 48.5939 51.8145 48.5986C52.2068 47.9697 52.4238 47.1494 52.4238 46.3828C52.4238 45.416 52.1378 44.4357 51.6084 43.7754L51.6826 43.8311Z" fill="var(--fill-0, #716E6A)" stroke="var(--stroke-0, #716E6A)" stroke-width="2.01285"/>
<path id="Vector_7" d="M35.5329 70.2277C15.9847 70.2277 0 54.4315 0 35.1138C0 15.7962 15.9847 0 35.5329 0C55.0811 0 71.0659 15.7962 71.0659 35.1138C71.0659 54.4315 55.0811 70.2277 35.5329 70.2277ZM35.5329 2.01225C17.1047 2.01225 2.03627 16.9029 2.03627 35.1138C2.03627 53.3247 17.1047 68.2154 35.5329 68.2154C53.9612 68.2154 69.0296 53.3247 69.0296 35.1138C69.0296 16.9029 53.9612 2.01225 35.5329 2.01225Z" fill="var(--fill-0, #716E6A)"/>
<g id="Vector_8">
<mask id="path-9-inside-2_0_194" fill="white">
<path d="M62.8185 34.1079H7.33008V36.1202H62.8185V34.1079Z"/>
</mask>
<path d="M62.8185 34.1079H7.33008V36.1202H62.8185V34.1079Z" fill="var(--fill-0, #716E6A)"/>
<path d="M7.33008 34.1079V32.0951H5.31723V34.1079H7.33008ZM62.8185 34.1079H64.8313V32.0951H62.8185V34.1079ZM62.8185 36.1202V38.133H64.8313V36.1202H62.8185ZM7.33008 36.1202H5.31723V38.133H7.33008V36.1202ZM7.33008 34.1079V36.1208H62.8185V34.1079V32.0951H7.33008V34.1079ZM62.8185 34.1079H60.8056V36.1202H62.8185H64.8313V34.1079H62.8185ZM62.8185 36.1202V34.1073H7.33008V36.1202V38.133H62.8185V36.1202ZM7.33008 36.1202H9.34292V34.1079H7.33008H5.31723V36.1202H7.33008Z" fill="var(--stroke-0, #716E6A)" mask="url(#path-9-inside-2_0_194)"/>
</g>
</g>
</svg>
