<svg preserveAspectRatio="none" width="100%" height="100%" overflow="visible" style="display: block;" viewBox="0 0 24.5625 25.1923" fill="none" xmlns="http://www.w3.org/2000/svg">
<path id="Vector" d="M8.18848 12.5962C8.18848 10.2774 10.0208 8.3971 12.2817 8.3971C14.5427 8.3971 16.376 10.2774 16.376 12.5962C16.376 14.915 14.5427 16.7952 12.2817 16.7952C10.0208 16.7952 8.18848 14.915 8.18848 12.5962M5.97521 12.5962C5.97521 16.1684 8.79864 19.0641 12.2817 19.0641C15.7648 19.0641 18.5883 16.1684 18.5883 12.5962C18.5883 9.02388 15.7648 6.12818 12.2817 6.12818C8.79864 6.12818 5.97531 9.02368 5.97531 12.5962M17.3642 5.87172C17.3641 6.17068 17.4504 6.46295 17.6123 6.71159C17.7741 6.96023 18.0042 7.15406 18.2735 7.26858C18.5427 7.38309 18.8391 7.41314 19.125 7.35494C19.4109 7.29673 19.6736 7.15288 19.8798 6.94157C20.086 6.73027 20.2264 6.46099 20.2834 6.16781C20.3404 5.87462 20.3113 5.57069 20.1999 5.29445C20.0884 5.0182 19.8996 4.78205 19.6573 4.61586C19.415 4.44968 19.1301 4.36091 18.8386 4.36079H18.838C18.4473 4.36098 18.0726 4.5202 17.7963 4.8035C17.52 5.0868 17.3646 5.471 17.3642 5.87172M7.31992 22.8492C6.1225 22.7933 5.47166 22.5887 5.03915 22.4159C4.46574 22.187 4.05661 21.9143 3.62645 21.4737C3.1963 21.0332 2.93003 20.614 2.70778 20.0259C2.53918 19.5825 2.33972 18.9148 2.28529 17.6867C2.22575 16.359 2.21386 15.9601 2.21386 12.5964C2.21386 9.23258 2.22673 8.83484 2.28529 7.506C2.33982 6.27792 2.54075 5.61154 2.70778 5.16684C2.93101 4.57875 3.19689 4.15915 3.62645 3.71798C4.05602 3.27681 4.46476 3.00373 5.03915 2.77579C5.47147 2.60287 6.1225 2.39831 7.31992 2.34248C8.61451 2.28142 9.0034 2.26922 12.2817 2.26922C15.5601 2.26922 15.9494 2.28222 17.245 2.34268C18.4425 2.39861 19.0922 2.60468 19.5258 2.77599C20.0992 3.00393 20.5083 3.27762 20.9385 3.71818C21.3687 4.15875 21.6339 4.57895 21.8572 5.16704C22.0258 5.61043 22.2252 6.27812 22.2797 7.5062C22.3392 8.83504 22.3511 9.23278 22.3511 12.5966C22.3511 15.9603 22.3392 16.3581 22.2797 17.6869C22.2251 18.915 22.0247 19.5825 21.8572 20.0261C21.6339 20.6142 21.3681 21.0338 20.9385 21.4739C20.5089 21.9141 20.0992 22.1872 19.5258 22.4161C19.0935 22.589 18.4425 22.7936 17.245 22.8494C15.9504 22.9105 15.5616 22.9227 12.2817 22.9227C9.00193 22.9227 8.61412 22.9105 7.31992 22.8494M7.21823 0.0762824C5.91076 0.137349 5.01734 0.349972 4.2371 0.661349C3.42955 0.982903 2.74502 1.4143 2.06147 2.11424C1.37791 2.81418 0.958369 3.51634 0.644841 4.34557C0.341236 5.14628 0.13392 6.06208 0.0743783 7.40301C0.0138539 8.74606 0 9.17544 0 12.5962C0 16.0169 0.0138539 16.4462 0.0743783 17.7893C0.13392 19.1303 0.341236 20.046 0.644841 20.8467C0.958369 21.675 1.37801 22.3784 2.06147 23.0781C2.74492 23.7777 3.42857 24.2085 4.2371 24.531C5.01881 24.8423 5.91076 25.055 7.21823 25.116C8.52844 25.1771 8.94641 25.1923 12.2817 25.1923C15.6171 25.1923 16.0357 25.1781 17.3453 25.116C18.6528 25.055 19.5457 24.8423 20.3264 24.531C21.1339 24.2085 21.8185 23.778 22.502 23.0781C23.1856 22.3781 23.6042 21.675 23.9186 20.8467C24.2222 20.046 24.4305 19.1302 24.4891 17.7893C24.5486 16.4452 24.5625 16.0169 24.5625 12.5962C24.5625 9.17544 24.5486 8.74606 24.4891 7.40301C24.4296 6.06197 24.2222 5.14578 23.9186 4.34557C23.6042 3.51735 23.1845 2.81529 22.502 2.11424C21.8195 1.41319 21.1339 0.982903 20.3274 0.661349C19.5457 0.349972 18.6527 0.136341 17.3462 0.0762824C16.0365 0.0149139 15.6181 0 12.2832 0C8.94838 0 8.52893 0.0142085 7.21872 0.0762824" fill="var(--fill-0, #666460)"/>
</svg>
