<svg preserveAspectRatio="none" width="100%" height="100%" overflow="visible" style="display: block;" viewBox="0 0 141.769 25.5697" fill="none" xmlns="http://www.w3.org/2000/svg">
<g id="Group 119357326">
<path id="Star 1" d="M128.984 0L132.817 7.50985L141.143 8.83413L135.185 14.7998L136.499 23.1281L128.984 19.3052L121.469 23.1281L122.783 14.7998L116.825 8.83413L125.152 7.50985L128.984 0Z" fill="var(--fill-0, #BD1E18)"/>
<path id="Star 2" d="M99.6151 1.55288e-05L103.448 7.50987L111.774 8.83415L105.816 14.7998L107.13 23.1281L99.6151 19.3052L92.1003 23.1281L93.4139 14.7998L87.4559 8.83415L95.7825 7.50987L99.6151 1.55288e-05Z" fill="var(--fill-0, #BD1E18)"/>
<path id="Star 3" d="M70.8839 0L74.5248 7.50985L82.4351 8.83413L76.775 14.7998L78.0229 23.1281L70.8839 19.3052L63.7449 23.1281L64.9928 14.7998L59.3327 8.83413L67.243 7.50985L70.8839 0Z" fill="var(--fill-0, #BD1E18)"/>
<path id="Star 4" d="M42.155 0L45.9875 7.50985L54.3141 8.83413L48.3562 14.7998L49.6698 23.1281L42.155 19.3052L34.6402 23.1281L35.9538 14.7998L29.9959 8.83413L38.3225 7.50985L42.155 0Z" fill="var(--fill-0, #BD1E18)"/>
<path id="Star 5" d="M12.7849 1.55288e-05L16.6174 7.50987L24.944 8.83415L18.986 14.7998L20.2996 23.1281L12.7849 19.3052L5.27011 23.1281L6.58371 14.7998L0.625735 8.83415L8.95235 7.50987L12.7849 1.55288e-05Z" fill="var(--fill-0, #BD1E18)"/>
</g>
</svg>
