<svg preserveAspectRatio="none" width="100%" height="100%" overflow="visible" style="display: block;" viewBox="0 0 28.1705 28.7227" fill="none" xmlns="http://www.w3.org/2000/svg">
<g id="Group 1000004789">
<path id="Vector" d="M27.558 23.3582C28.3864 21.934 28.3628 20.225 27.558 18.8246L23.9601 12.5819C23.7707 12.2733 23.392 12.1547 23.0606 12.3446C22.7529 12.5344 22.6345 12.9142 22.8239 13.2465L26.4218 19.4892C27.0135 20.5098 27.0135 21.7204 26.4218 22.7173C25.83 23.7142 24.7885 24.3314 23.6287 24.3314H17.9951L20.0071 22.3138C20.2675 22.0527 20.2675 21.6492 20.0071 21.3881C19.7467 21.127 19.3443 21.127 19.084 21.3881L15.9831 24.4975C15.7228 24.7586 15.7228 25.1621 15.9831 25.4232L19.084 28.5327C19.2023 28.6514 19.368 28.7226 19.5337 28.7226C19.6994 28.7226 19.8651 28.6514 19.9834 28.5327C20.2438 28.2716 20.2438 27.8681 19.9834 27.607L17.9715 25.5894H23.605C25.2383 25.5894 26.7058 24.7349 27.5343 23.3107L27.558 23.3582Z" fill="var(--fill-0, #716E6A)"/>
<path id="Vector_2" d="M0.621348 23.3582C1.44981 24.7824 2.91738 25.6369 4.55064 25.6369H11.3677C11.7228 25.6369 12.0068 25.3521 12.0068 24.9961C12.0068 24.64 11.7228 24.3552 11.3677 24.3552H4.55064C3.39079 24.3552 2.34929 23.738 1.75753 22.7411C1.16577 21.7442 1.16577 20.5099 1.75753 19.513L5.21341 13.5552L5.94719 16.3086C6.0182 16.5934 6.27858 16.7833 6.58629 16.7833C6.63363 16.7833 6.70464 16.7833 6.75199 16.7833C7.10704 16.6884 7.29641 16.3323 7.20172 15.9763L6.06554 11.7037C5.97086 11.3477 5.61581 11.1578 5.26075 11.2528L1.00007 12.3921C0.645019 12.487 0.455656 12.8431 0.550337 13.1991C0.645019 13.5552 1.00007 13.7451 1.35513 13.6501L4.07723 12.9143L0.621348 18.8246C-0.207116 20.2488 -0.207116 21.9341 0.621348 23.3582Z" fill="var(--fill-0, #716E6A)"/>
<path id="Vector_3" d="M15.5328 6.59868C15.4382 6.95472 15.6512 7.31077 15.9826 7.40571L20.2432 8.54505C20.2432 8.54505 20.3616 8.54505 20.4089 8.54505C20.693 8.54505 20.9534 8.35516 21.048 8.07033L22.1842 3.7978C22.2789 3.44176 22.0659 3.08571 21.7345 2.99077C21.3794 2.89582 21.0244 3.10945 20.9297 3.44176L20.2196 6.07648L18.0182 2.25494C17.1898 0.830769 15.7459 0 14.0889 0C12.432 0 10.9881 0.854505 10.1597 2.25494L7.36654 7.09714C7.17718 7.40571 7.29553 7.80923 7.60325 7.99912C7.91096 8.18901 8.31336 8.07033 8.50272 7.76176L11.2958 2.91956C11.8876 1.8989 12.9291 1.30549 14.0889 1.30549C15.2488 1.30549 16.2903 1.8989 16.882 2.91956L19.1781 6.88351L16.314 6.12395C15.9589 6.02901 15.6038 6.24264 15.5092 6.57494L15.5328 6.59868Z" fill="var(--fill-0, #716E6A)"/>
</g>
</svg>
