<svg preserveAspectRatio="none" width="100%" height="100%" overflow="visible" style="display: block;" viewBox="0 0 84.6795 25.9825" fill="none" xmlns="http://www.w3.org/2000/svg">
<g id="Group 1000004369">
<path id="Vector" d="M35.9058 12.9902L35.9058 22.6287L8.23297 22.6287C3.93649 22.6287 0.446697 19.1727 0.446697 14.9179L0.446697 11.0799C0.446697 6.82507 3.93649 3.36911 8.23297 3.36911L35.9058 3.36911L35.9058 12.9902Z" stroke="var(--stroke-0, #716E6A)" stroke-width="0.893394" stroke-miterlimit="16"/>
<path id="Vector_2" d="M43.867 8.51148L43.867 17.4548C43.867 17.7591 43.619 18.0095 43.3055 18.0095L14.0018 18.0095C12.8465 18.0095 11.9139 17.082 11.9139 15.9441L11.9139 10.0222C11.9139 8.88434 12.8465 7.95777 14.0018 7.95777L43.3055 7.95777C43.619 7.95777 43.867 8.2072 43.867 8.51148Z" fill="var(--fill-0, #AB2920)" stroke="var(--stroke-0, #716E6A)" stroke-width="0.524538"/>
<g id="Group 1000004368">
<path id="Subtract" d="M44.1273 16.4987L44.1273 9.46551L46.1166 9.46551L46.7582 16.4987L44.1273 16.4987ZM47.1498 16.4987L46.5082 9.46551L47.7826 9.46551L48.4242 16.4987L47.1498 16.4987ZM51.9486 15.2663L51.3343 16.4987L48.8158 16.4987L48.1742 9.46551L49.4506 9.46551L49.8246 13.5827L50.2133 13.5475L49.8422 9.46551L51.3343 9.46551L51.9486 10.6989L51.9486 15.2663Z" fill="var(--fill-0, #AB2920)"/>
</g>
<g id="Group 1000004367">
<path id="Vector_3" d="M83.909 11.8798C83.9791 11.7409 84.0142 11.5846 83.9967 11.4109C83.2251 5.34995 77.9991 0.678327 71.6684 0.678327C67.6701 0.678326 64.1277 2.53656 61.8479 5.43678L61.8479 20.5458C64.1277 23.446 67.6701 25.3042 71.6684 25.3042C73.7202 25.3042 75.6492 24.8179 77.3503 23.9496C77.4906 23.8801 77.6133 23.7586 77.6835 23.6196L83.909 11.8798Z" stroke="var(--stroke-0, #716E6A)" stroke-width="1.35665" stroke-miterlimit="10"/>
</g>
</g>
</svg>
