<svg preserveAspectRatio="none" width="100%" height="100%" overflow="visible" style="display: block;" viewBox="0 0 105.223 18.5114" fill="none" xmlns="http://www.w3.org/2000/svg">
<g id="Group 1583">
<path id="Star 1" d="M95.3561 1.19665C95.6106 0.698038 96.323 0.698038 96.5775 1.19665L98.5828 5.12616C98.6824 5.32137 98.8694 5.45718 99.0858 5.49161L103.443 6.18453C103.996 6.27246 104.216 6.95003 103.82 7.34612L100.703 10.4676C100.548 10.6227 100.476 10.8424 100.51 11.0589L101.198 15.4167C101.285 15.9696 100.709 16.3884 100.21 16.1346L96.2777 14.1343C96.0823 14.0349 95.8513 14.0349 95.6559 14.1343L91.7238 16.1346C91.2249 16.3884 90.6485 15.9696 90.7357 15.4167L91.4231 11.0589C91.4572 10.8424 91.3858 10.6227 91.2309 10.4676L88.1134 7.34612C87.7179 6.95003 87.938 6.27246 88.4909 6.18453L92.8477 5.49161C93.0642 5.45718 93.2511 5.32137 93.3507 5.12616L95.3561 1.19665Z" fill="var(--fill-0, #BD1E18)"/>
<path id="Star 2" d="M73.9233 1.19663C74.1778 0.698023 74.8902 0.698023 75.1447 1.19663L77.1501 5.12614C77.2497 5.32135 77.4366 5.45717 77.6531 5.49159L82.0099 6.18452C82.5628 6.27244 82.7829 6.95002 82.3874 7.3461L79.2699 10.4676C79.115 10.6227 79.0436 10.8424 79.0777 11.0589L79.7651 15.4167C79.8523 15.9696 79.2759 16.3884 78.777 16.1346L74.8449 14.1342C74.6496 14.0349 74.4185 14.0349 74.2231 14.1342L70.2911 16.1346C69.7921 16.3884 69.2158 15.9696 69.303 15.4167L69.9903 11.0589C70.0244 10.8424 69.953 10.6227 69.7982 10.4676L66.6807 7.3461C66.2851 6.95002 66.5053 6.27244 67.0581 6.18452L71.415 5.49159C71.6314 5.45717 71.8184 5.32135 71.918 5.12614L73.9233 1.19663Z" fill="var(--fill-0, #BD1E18)"/>
<path id="Star 3" d="M51.9951 1.2767C52.2446 0.760458 52.98 0.760459 53.2296 1.2767L55.0866 5.11776C55.1834 5.31788 55.3711 5.45868 55.5903 5.49548L59.6831 6.18256C60.2242 6.2734 60.4447 6.93138 60.0676 7.32991L57.0948 10.4719C56.95 10.625 56.8836 10.8361 56.9147 11.0445L57.5643 15.3916C57.6477 15.9496 57.0589 16.3639 56.5619 16.0969L52.9367 14.1503C52.7341 14.0415 52.4905 14.0415 52.288 14.1503L48.6628 16.0969C48.1657 16.3639 47.5769 15.9496 47.6603 15.3916L48.3099 11.0445C48.341 10.8361 48.2746 10.625 48.1298 10.4719L45.157 7.32991C44.7799 6.93138 45.0004 6.2734 45.5415 6.18256L49.6343 5.49548C49.8535 5.45868 50.0412 5.31788 50.138 5.11776L51.9951 1.2767Z" fill="var(--fill-0, #BD1E18)"/>
<path id="Star 4" d="M30.0776 1.19663C30.3321 0.698023 31.0445 0.698023 31.299 1.19663L33.3044 5.12614C33.404 5.32135 33.5909 5.45717 33.8073 5.49159L38.1642 6.18452C38.7171 6.27244 38.9372 6.95002 38.5417 7.3461L35.4242 10.4676C35.2693 10.6227 35.1979 10.8424 35.232 11.0589L35.9194 15.4167C36.0066 15.9696 35.4302 16.3884 34.9313 16.1346L30.9992 14.1342C30.8038 14.0349 30.5728 14.0349 30.3774 14.1342L26.4454 16.1346C25.9464 16.3884 25.37 15.9696 25.4573 15.4167L26.1446 11.0589C26.1787 10.8424 26.1073 10.6227 25.9525 10.4676L22.835 7.3461C22.4394 6.95002 22.6596 6.27244 23.2124 6.18452L27.5693 5.49159C27.7857 5.45717 27.9727 5.32135 28.0723 5.12614L30.0776 1.19663Z" fill="var(--fill-0, #BD1E18)"/>
<path id="Star 5" d="M8.64501 1.19665C8.89947 0.698038 9.61192 0.698038 9.86638 1.19665L11.8717 5.12616C11.9714 5.32137 12.1583 5.45718 12.3747 5.49161L16.7316 6.18453C17.2844 6.27246 17.5046 6.95003 17.109 7.34612L13.9915 10.4676C13.8367 10.6227 13.7653 10.8424 13.7994 11.0589L14.4867 15.4167C14.574 15.9696 13.9976 16.3884 13.4986 16.1346L9.56656 14.1343C9.37123 14.0349 9.14016 14.0349 8.94483 14.1343L5.01275 16.1346C4.51381 16.3884 3.93743 15.9696 4.02464 15.4167L4.71198 11.0589C4.74613 10.8424 4.67472 10.6227 4.51986 10.4676L1.40236 7.34612C1.00678 6.95003 1.22694 6.27246 1.77978 6.18453L6.13666 5.49161C6.35309 5.45718 6.54003 5.32137 6.63965 5.12616L8.64501 1.19665Z" fill="var(--fill-0, #BD1E18)"/>
</g>
</svg>
