<svg preserveAspectRatio="none" width="100%" height="100%" overflow="visible" style="display: block;" viewBox="0 0 85.32 33.6171" fill="none" xmlns="http://www.w3.org/2000/svg">
<g id="Group 1000004786">
<path id="Vector" d="M24.8669 14.1903C24.8669 13.7307 24.4856 13.3539 24.0204 13.3539C23.5553 13.3539 23.174 13.7307 23.174 14.1903C23.174 14.65 23.5553 15.0268 24.0204 15.0268C24.4856 15.0268 24.8669 14.65 24.8669 14.1903Z" fill="var(--fill-0, #716E6A)"/>
<path id="Vector_2" d="M34.0107 16.2773C34.0107 16.1869 34.0107 16.0964 34.0031 16.006C34.0031 15.9533 34.0031 15.908 33.9955 15.8553C33.9955 15.7724 33.9879 15.682 33.9802 15.5991C33.9802 15.5463 33.9802 15.5011 33.9726 15.4484C33.9726 15.3579 33.9574 15.2675 33.9497 15.1771C33.9497 15.1319 33.9421 15.0942 33.9345 15.049C33.9192 14.9209 33.904 14.8003 33.8887 14.6722C33.8887 14.6722 33.8887 14.6646 33.8887 14.6571C33.8735 14.529 33.8506 14.4009 33.8354 14.2728C33.8354 14.2276 33.8201 14.1899 33.8125 14.1447C33.7972 14.0542 33.782 13.9713 33.7667 13.8885C33.7591 13.8432 33.7515 13.7905 33.7362 13.7453C33.721 13.6624 33.7057 13.587 33.6905 13.5041C33.6828 13.4514 33.6676 13.4062 33.66 13.3534C33.6447 13.2705 33.6218 13.1876 33.6066 13.1047C33.599 13.0595 33.5837 13.0143 33.5761 12.9691C33.5532 12.856 33.5227 12.743 33.4922 12.6375C33.4922 12.6224 33.4846 12.5998 33.4769 12.5848C33.4464 12.4642 33.4159 12.3511 33.3778 12.2381C33.3626 12.1929 33.3549 12.1477 33.3397 12.1025C33.3168 12.0271 33.2939 11.9442 33.2711 11.8689C33.2558 11.8161 33.2405 11.7709 33.2253 11.7181C33.2024 11.6428 33.1795 11.575 33.1567 11.4996C33.1414 11.4469 33.1262 11.4016 33.1033 11.3489C33.0804 11.2735 33.0499 11.2057 33.027 11.1304C33.0118 11.0851 32.9965 11.0324 32.9736 10.9872C32.9431 10.8967 32.905 10.8063 32.8669 10.7159C32.8516 10.6707 32.8288 10.6255 32.8135 10.5802C32.7754 10.4823 32.7372 10.3918 32.6991 10.2939C32.6762 10.2411 32.6534 10.1959 32.6381 10.1507C32.6076 10.0829 32.5771 10.0151 32.5466 9.95477C32.5237 9.90202 32.5009 9.84927 32.4703 9.79652C32.4398 9.73623 32.4093 9.67595 32.3865 9.61566C32.3636 9.56291 32.3331 9.51016 32.3102 9.45741C32.2797 9.39712 32.2492 9.33684 32.2187 9.27655C32.1958 9.2238 32.1653 9.17105 32.1348 9.1183C32.0967 9.05048 32.0662 8.99019 32.0281 8.92237C31.9823 8.83947 31.9366 8.75658 31.8908 8.68122C31.8527 8.6134 31.8145 8.55311 31.784 8.48529C31.7535 8.43254 31.723 8.37226 31.6849 8.31951C31.6544 8.26676 31.6239 8.214 31.5934 8.16125C31.5553 8.10097 31.5248 8.04822 31.4866 7.99547C31.4561 7.95025 31.4256 7.8975 31.3951 7.85229C31.357 7.792 31.3189 7.73925 31.2884 7.67896C31.2579 7.63375 31.2274 7.58853 31.1969 7.54332C31.1587 7.48303 31.1206 7.43028 31.0825 7.37C31.052 7.33232 31.0291 7.2871 30.9986 7.24942C30.9147 7.12885 30.8232 7.00828 30.7393 6.88771C30.7164 6.85756 30.6936 6.82742 30.6707 6.79728C30.6249 6.73699 30.5792 6.6767 30.5334 6.61642C30.5029 6.57874 30.48 6.54106 30.4495 6.50338C30.4038 6.4431 30.358 6.38281 30.3046 6.32252C30.2741 6.28484 30.2436 6.2547 30.2208 6.21702C30.175 6.15674 30.1216 6.09645 30.0759 6.03616C30.0454 6.00602 30.0225 5.97588 29.992 5.9382C29.9386 5.87791 29.8852 5.81009 29.8318 5.7498C29.8166 5.73473 29.8013 5.71966 29.7937 5.70459C29.5955 5.48605 29.3896 5.26751 29.1837 5.05651C29.1608 5.0339 29.1379 5.0113 29.1227 4.98869C29.0616 4.9284 29.0006 4.86812 28.9396 4.80783C28.9168 4.78522 28.8939 4.76262 28.8634 4.74001C28.8024 4.67972 28.7337 4.61944 28.6727 4.55915C28.6499 4.53654 28.6346 4.52147 28.6117 4.49886C28.4592 4.35568 28.2991 4.22004 28.1389 4.07686C27.9788 3.94121 27.8187 3.80557 27.6509 3.67746C27.6356 3.66993 27.628 3.65486 27.6128 3.64732C27.5365 3.58703 27.4602 3.52675 27.384 3.46646C27.3687 3.45139 27.3459 3.43632 27.3306 3.42878C27.2544 3.3685 27.1781 3.31574 27.0942 3.25546C27.079 3.24792 27.0713 3.24039 27.0561 3.22532C26.8578 3.08214 26.6519 2.93896 26.446 2.80331C26.2859 2.69781 26.1257 2.59231 25.958 2.49434C25.958 2.49434 25.958 2.49434 25.9504 2.49434C25.8588 2.44159 25.7673 2.38131 25.6758 2.32856C25.6682 2.32856 25.6529 2.31349 25.6453 2.30595C25.5538 2.2532 25.4623 2.20045 25.3708 2.1477C25.3708 2.1477 25.3632 2.1477 25.3555 2.14016C25.0505 1.96684 24.7379 1.80859 24.4176 1.65787C24.2269 1.56744 24.0363 1.47701 23.838 1.39412C23.838 1.39412 23.8228 1.39412 23.8151 1.38658C23.716 1.34137 23.6093 1.29615 23.5101 1.25848C23.1593 1.1153 22.7933 0.979652 22.4349 0.859079C22.2519 0.798793 22.0689 0.738507 21.8858 0.685756C21.8858 0.685756 21.8782 0.685756 21.8706 0.685756C21.7715 0.655613 21.6647 0.62547 21.5656 0.595327C21.5656 0.595327 21.5503 0.595327 21.5427 0.595327C20.109 0.203466 18.5992 0 17.0359 0C14.5499 0 12.1859 0.527505 10.0583 1.47701C10.0278 1.49209 9.99733 1.50716 9.96683 1.51469C9.89057 1.55237 9.80669 1.59005 9.73043 1.62019C9.6923 1.63527 9.65417 1.65787 9.60842 1.68048C9.50928 1.72569 9.41015 1.77845 9.31101 1.82366C9.28051 1.83873 9.25001 1.8538 9.21188 1.87641C9.13562 1.91409 9.05937 1.95177 8.99073 1.98945C8.9526 2.01205 8.91448 2.02713 8.87635 2.04973C8.78484 2.10248 8.6857 2.15523 8.5942 2.20798C8.56369 2.22306 8.52556 2.24566 8.49506 2.26827C8.42643 2.30595 8.35017 2.35116 8.28154 2.38884C8.24341 2.41145 8.20528 2.43406 8.16715 2.45667C8.07565 2.50942 7.98414 2.5697 7.89263 2.62245C7.86213 2.64506 7.824 2.66767 7.79349 2.69027C7.72486 2.73549 7.65623 2.77317 7.59523 2.81838C7.5571 2.84099 7.51897 2.8636 7.48084 2.89374C7.38933 2.95403 7.30545 3.01431 7.21394 3.0746C7.17581 3.09721 7.14531 3.11981 7.1148 3.14996C7.0538 3.19517 6.98517 3.24039 6.92416 3.2856C6.88603 3.30821 6.85553 3.33835 6.8174 3.3685C6.73352 3.42878 6.64963 3.4966 6.56575 3.55689C6.52762 3.58703 6.49712 3.60964 6.45899 3.63978C6.39799 3.685 6.33698 3.73021 6.2836 3.78296C6.24547 3.81311 6.21497 3.83571 6.17684 3.86586C6.09296 3.93368 6.0167 4.0015 5.93282 4.06932C5.89469 4.09947 5.86419 4.12961 5.82606 4.15975C5.77268 4.20497 5.71167 4.25772 5.65829 4.30293C5.62016 4.33308 5.58966 4.36322 5.55153 4.39336C5.47527 4.46118 5.39902 4.52901 5.32276 4.60436C5.28463 4.63451 5.25413 4.67219 5.216 4.70233C5.16262 4.75508 5.10924 4.80029 5.06348 4.85304C5.03298 4.88319 4.99485 4.92087 4.96435 4.95101C4.89572 5.02637 4.81946 5.09419 4.75083 5.16955C4.7127 5.20723 4.6822 5.24491 4.64407 5.27505C4.59831 5.3278 4.54493 5.37301 4.49918 5.42576C4.46868 5.46344 4.43055 5.49359 4.40004 5.53127C4.33141 5.60662 4.26278 5.68198 4.20178 5.75734C4.16365 5.79502 4.13314 5.8327 4.09502 5.87791C4.04926 5.93066 4.01113 5.97588 3.96538 6.02863C3.92725 6.07384 3.88912 6.11906 3.85862 6.15674C3.79761 6.22456 3.74423 6.29992 3.68323 6.36774C3.65272 6.41295 3.6146 6.45063 3.58409 6.49585C3.54596 6.5486 3.50783 6.59381 3.46971 6.64656C3.42395 6.70685 3.38582 6.7596 3.34007 6.81988C3.29431 6.88017 3.24856 6.94799 3.20281 7.00828C3.1723 7.05349 3.13417 7.09871 3.10367 7.14392C3.06554 7.19667 3.03504 7.24189 2.99691 7.29464C2.95116 7.36246 2.9054 7.43028 2.85965 7.49811C2.82152 7.55086 2.78339 7.61114 2.74526 7.67143C2.71476 7.72418 2.68426 7.76939 2.64613 7.82214C2.61562 7.87489 2.58512 7.92011 2.55462 7.97286C2.50886 8.04822 2.46311 8.12358 2.40973 8.20647C2.37923 8.25922 2.34872 8.31197 2.31822 8.36472C2.28772 8.41747 2.25722 8.47022 2.22671 8.52297C2.19621 8.56819 2.17333 8.62094 2.14283 8.66615C2.09708 8.74905 2.05132 8.83947 1.99794 8.92237C1.97506 8.96758 1.94456 9.02033 1.92168 9.06555C1.89118 9.12583 1.86068 9.17859 1.83017 9.23887C1.8073 9.28409 1.78442 9.3293 1.76154 9.38205C1.71579 9.47248 1.67003 9.57045 1.62428 9.66087C1.6014 9.70609 1.57853 9.7513 1.56327 9.79652C1.53277 9.85681 1.50989 9.91709 1.47939 9.97738C1.45651 10.0226 1.44126 10.0678 1.41839 10.113C1.37263 10.211 1.32688 10.3165 1.28875 10.4145C1.2735 10.4597 1.25062 10.4973 1.23537 10.5426C1.21249 10.6028 1.18199 10.6707 1.15911 10.731C1.14386 10.7686 1.12861 10.8138 1.11336 10.8515C1.07523 10.957 1.02947 11.0701 0.991345 11.1831C0.976093 11.2208 0.960842 11.266 0.94559 11.3037C0.922713 11.3715 0.899836 11.4393 0.876959 11.5071C0.861707 11.5448 0.854082 11.5825 0.83883 11.6202C0.800701 11.7408 0.762573 11.8538 0.724444 11.9744C0.709193 12.012 0.701567 12.0497 0.686316 12.0874C0.663438 12.1552 0.648187 12.2306 0.62531 12.2984C0.617684 12.3285 0.610058 12.3587 0.602432 12.3888C0.564304 12.5169 0.533801 12.645 0.503298 12.7732C0.495672 12.8108 0.488047 12.8485 0.472795 12.8862C0.457544 12.9615 0.434667 13.0294 0.419415 13.1047C0.419415 13.1273 0.411789 13.1499 0.404164 13.1726C0.373661 13.3082 0.343158 13.4514 0.312655 13.5946C0.312655 13.6322 0.297403 13.6624 0.289778 13.7001C0.274526 13.7754 0.259275 13.8508 0.251649 13.9261V13.9412C0.221146 14.0995 0.198269 14.2577 0.175392 14.416C0.175392 14.4536 0.167766 14.4838 0.16014 14.5215C0.152515 14.5968 0.137263 14.6722 0.129637 14.7551C0.0457544 15.4257 0 16.119 0 16.8123C0 23.0972 3.49258 28.5682 8.6552 31.4544C8.6857 31.4694 8.71621 31.4845 8.74671 31.5071C8.84584 31.5599 8.95261 31.6201 9.05937 31.6729C9.09749 31.6955 9.14325 31.7181 9.18138 31.7332C9.24238 31.7633 9.30339 31.7935 9.37202 31.8312C9.41015 31.8538 9.44828 31.8688 9.48641 31.8914C9.61604 31.9517 9.74568 32.0195 9.88294 32.0798C9.8982 32.0874 9.91345 32.0949 9.93632 32.1024C10.005 32.1326 10.0812 32.1627 10.1498 32.2004C10.1803 32.2155 10.2109 32.2305 10.2414 32.2381C10.4778 32.336 10.7141 32.434 10.9582 32.5244C10.9734 32.5244 10.9963 32.5395 11.0116 32.5471C11.2708 32.645 11.5377 32.7354 11.8046 32.8183C12.1707 32.9314 12.5443 33.0369 12.918 33.1273C14.2296 33.4438 15.5946 33.6171 17.0054 33.6171C21.6418 33.6171 25.8436 31.7859 28.9168 28.8093C29.0235 28.7038 29.1303 28.5983 29.237 28.4928C29.237 28.4928 29.2447 28.4853 29.2523 28.4777C29.3591 28.3722 29.4582 28.2592 29.5649 28.1537C29.7708 27.9276 29.9691 27.7015 30.1674 27.4679C30.2589 27.3549 30.3504 27.2419 30.4419 27.1288C30.4495 27.1138 30.4572 27.1062 30.4724 27.0911C30.5563 26.9781 30.6402 26.8726 30.7241 26.7596C30.7317 26.7445 30.7469 26.7294 30.7546 26.7144C30.8384 26.6013 30.9223 26.4883 30.9986 26.3752C31.0062 26.3602 31.0138 26.3526 31.0215 26.3376C31.1053 26.217 31.1816 26.0964 31.2655 25.9758C31.3417 25.8628 31.4104 25.7498 31.4866 25.6292C31.5553 25.5162 31.6239 25.4031 31.6925 25.2826C31.6925 25.2826 31.6925 25.2826 31.6925 25.275C31.7612 25.162 31.8222 25.0489 31.8908 24.9359C31.8908 24.9359 31.8908 24.9284 31.8984 24.9208C31.9594 24.8078 32.0204 24.6948 32.0814 24.5817C32.0814 24.5742 32.0891 24.5667 32.0967 24.5591C32.1577 24.4461 32.2111 24.333 32.2721 24.22C32.2721 24.2125 32.2797 24.1974 32.2873 24.1899C32.3407 24.0768 32.3941 23.9638 32.4475 23.8508C32.4475 23.8357 32.4627 23.8281 32.4627 23.8131C32.5161 23.7 32.5619 23.5945 32.6152 23.4815C32.6152 23.4664 32.6305 23.4514 32.6381 23.4363C32.6839 23.3308 32.7296 23.2178 32.7754 23.1047C32.7754 23.0896 32.7906 23.067 32.7983 23.052C32.844 22.9465 32.8821 22.8334 32.9279 22.7279C32.9355 22.7053 32.9431 22.6827 32.9508 22.6676C32.9889 22.5621 33.027 22.4566 33.0652 22.3436C33.0728 22.321 33.0804 22.2984 33.088 22.2682C33.1262 22.1627 33.1567 22.0572 33.1948 21.9517C33.2024 21.9216 33.21 21.899 33.2253 21.8688C33.2558 21.7633 33.2863 21.6654 33.3168 21.5599C33.3244 21.5297 33.3321 21.4996 33.3473 21.4694C33.3778 21.3715 33.4007 21.266 33.4312 21.168C33.4388 21.1303 33.4464 21.1002 33.4617 21.0625C33.4846 20.9646 33.5151 20.8666 33.538 20.7611C33.5456 20.7234 33.5532 20.6857 33.5685 20.648C33.5913 20.5501 33.6142 20.4521 33.6371 20.3542C33.6447 20.3165 33.6523 20.2713 33.66 20.2336C33.6828 20.1356 33.6981 20.0452 33.7133 19.9472C33.721 19.902 33.7286 19.8643 33.7362 19.8191C33.7515 19.7287 33.7667 19.6307 33.782 19.5403C33.782 19.4951 33.7972 19.4499 33.8049 19.4046C33.8201 19.3142 33.8354 19.2162 33.843 19.1258C33.843 19.0806 33.8582 19.0279 33.8659 18.9826C33.8811 18.8922 33.8887 18.8018 33.8964 18.7114C33.8964 18.6586 33.9116 18.6134 33.9116 18.5606C33.9192 18.4702 33.9269 18.3798 33.9345 18.2893C33.9345 18.2366 33.9421 18.1838 33.9497 18.1311C33.9497 18.0407 33.965 17.9427 33.965 17.8523C33.965 17.7995 33.965 17.7543 33.9726 17.7016C33.9726 17.6036 33.9802 17.4981 33.9879 17.4001C33.9879 17.3549 33.9879 17.3097 33.9879 17.272C33.9879 17.1288 33.9879 16.9781 33.9879 16.8349C33.9879 16.6918 33.9879 16.5637 33.9879 16.4355C33.9879 16.3903 33.9879 16.3527 33.9879 16.3074L34.0107 16.2773ZM20.4446 29.8869H13.8102V9.57798L11.3395 9.55537V8.6134L11.3623 6.26977L13.3298 4.53654L14.5651 3.45139H20.4522V29.8869H20.4446ZM22.107 14.1899C22.107 13.1499 22.9687 12.2984 24.021 12.2984C25.0734 12.2984 25.9351 13.1499 25.9351 14.1899C25.9351 15.2298 25.0734 16.0814 24.021 16.0814C22.9687 16.0814 22.107 15.2298 22.107 14.1899ZM22.8848 20.3089L28.8329 12.2532H30.2208L29.9005 12.6827L25.775 18.2667L24.2651 20.3089H22.8772H22.8848ZM27.0942 18.4175C27.0942 17.3775 27.9559 16.526 29.0083 16.526C30.0606 16.526 30.9223 17.3775 30.9223 18.4175C30.9223 19.4574 30.0606 20.3089 29.0083 20.3089C27.9559 20.3089 28.8939 20.3089 28.8405 20.3014C28.5355 20.2788 28.2457 20.1808 28.0017 20.0226C27.4602 19.691 27.0942 19.0957 27.0942 18.4175Z" fill="var(--fill-0, #716E6A)"/>
<path id="Vector_3" d="M29.8549 18.4172C29.8549 17.9575 29.4736 17.5807 29.0084 17.5807C28.5432 17.5807 28.162 17.9575 28.162 18.4172C28.162 18.8769 28.5432 19.2537 29.0084 19.2537C29.4736 19.2537 29.8549 18.8769 29.8549 18.4172Z" fill="var(--fill-0, #716E6A)"/>
<path id="Vector_4" d="M43.226 13.4667H46.5432V11.8691H43.226V10.6936H46.894V9.01307H41.2891V15.9385H43.226V13.4667Z" fill="var(--fill-0, #716E6A)"/>
<path id="Vector_5" d="M51.3472 16.0743C53.5129 16.0743 55.1296 14.4616 55.1296 12.4722V12.4495C55.1296 10.4601 53.5281 8.87005 51.3624 8.87005C49.1967 8.87005 47.5801 10.4827 47.5801 12.4722V12.4948C47.5801 14.4842 49.1815 16.0743 51.3472 16.0743ZM49.578 12.4571C49.578 11.4548 50.2872 10.6108 51.3472 10.6108C52.4072 10.6108 53.1469 11.485 53.1469 12.4797V12.5023C53.1469 13.5046 52.4377 14.3486 51.3624 14.3486C50.2872 14.3486 49.5704 13.4744 49.5704 12.4797V12.4571H49.578Z" fill="var(--fill-0, #716E6A)"/>
<path id="Vector_6" d="M58.1347 13.8425H58.9888L60.3996 15.9374H62.6416L60.9715 13.526C61.8409 13.1567 62.4128 12.4559 62.4128 11.4009V11.3783C62.4128 10.6925 62.1993 10.165 61.7951 9.76563C61.3223 9.29088 60.5826 9.01205 59.515 9.01205H56.1978V15.9374H58.1424V13.8425H58.1347ZM58.1347 10.6775H59.4082C60.0564 10.6775 60.4606 10.9563 60.4606 11.4989V11.5215C60.4606 12.0264 60.0793 12.3429 59.4235 12.3429H58.1424V10.6775H58.1347Z" fill="var(--fill-0, #716E6A)"/>
<path id="Vector_7" d="M67.025 15.9385H68.9619V10.6936H71.0666V9.01307H64.9203V10.6936H67.025V15.9385Z" fill="var(--fill-0, #716E6A)"/>
<path id="Vector_8" d="M76.4044 11.6044H73.9108V9.01205H71.9663V15.9374H73.9108V13.3074H76.4044V15.9374H78.3414V9.01205H76.4044V11.6044Z" fill="var(--fill-0, #716E6A)"/>
<path id="Vector_9" d="M81.5597 14.3032V13.2105H84.9226V11.6958H81.5597V10.6483H85.2734V9.01307H79.638V15.9385H85.3192V14.3032H81.5597Z" fill="var(--fill-0, #716E6A)"/>
<path id="Vector_10" d="M44.4535 17.3172H41.2354V24.7324H43.3172V22.6148H44.3467C46.215 22.6148 47.5724 21.6955 47.5724 19.9472V19.9246C47.5724 18.2818 46.3523 17.3172 44.4535 17.3172ZM45.4906 20.0376C45.4906 20.6178 45.0407 21.0022 44.301 21.0022H43.3172V19.0429H44.2933C45.0407 19.0429 45.4906 19.382 45.4906 20.015V20.0376Z" fill="var(--fill-0, #716E6A)"/>
<path id="Vector_11" d="M54.1688 22.9313H50.5313V17.3172H48.4571V24.7324H54.1688V22.9313Z" fill="var(--fill-0, #716E6A)"/>
<path id="Vector_12" d="M57.6527 17.2641L54.4575 24.732H56.6461L57.1799 23.4057H60.0777L60.6267 24.732H62.8534L59.6583 17.2641H57.6527ZM57.79 21.8081L58.6364 19.6981L59.4752 21.8081H57.79Z" fill="var(--fill-0, #716E6A)"/>
<path id="Vector_13" d="M68.6201 21.2358L65.524 17.3172H63.5871V24.7324H65.646V20.6631L68.8488 24.7324H70.6714V17.3172H68.6201V21.2358Z" fill="var(--fill-0, #716E6A)"/>
<path id="Vector_14" d="M74.064 21.8085H77.6634V20.1883H74.064V19.0655H78.0447V17.3172H72.0051V24.7324H78.098V22.9841H74.064V21.8085Z" fill="var(--fill-0, #716E6A)"/>
<path id="Vector_15" d="M78.739 19.1182H80.9886V24.7324H83.0704V19.1182H85.32V17.3172H78.739V19.1182Z" fill="var(--fill-0, #716E6A)"/>
<path id="Vector_16" d="M84.5123 23.9636C84.5123 23.8129 84.3979 23.7451 84.2378 23.7451H83.9251V24.3856H84.1082V24.1897H84.1844L84.3141 24.3856H84.5276L84.3751 24.1596C84.459 24.1294 84.5123 24.0616 84.5123 23.9561V23.9636ZM84.2302 24.0541H84.1158V23.9034H84.2302C84.2912 23.9034 84.3293 23.9335 84.3293 23.9787C84.3293 24.0239 84.2912 24.0541 84.2302 24.0541Z" fill="var(--fill-0, #716E6A)"/>
<path id="Vector_17" d="M84.1979 23.4284C83.8318 23.4284 83.542 23.7298 83.542 24.0765C83.542 24.4307 83.8318 24.7246 84.1979 24.7246C84.5639 24.7246 84.8537 24.4231 84.8537 24.0765C84.8537 23.7223 84.5639 23.4284 84.1979 23.4284ZM84.7393 24.084C84.7393 24.3779 84.5029 24.6266 84.1902 24.6266C83.8776 24.6266 83.6412 24.3779 83.6412 24.084C83.6412 23.7826 83.8776 23.5339 84.1902 23.5339C84.5029 23.5339 84.7393 23.7826 84.7393 24.0765V24.084Z" fill="var(--fill-0, #716E6A)"/>
</g>
</svg>
