<svg preserveAspectRatio="none" width="100%" height="100%" overflow="visible" style="display: block;" viewBox="0 0 34.3838 33.9783" fill="none" xmlns="http://www.w3.org/2000/svg">
<g id="Group 1000004371">
<path id="Vector" d="M11.1371 9.58063C11.3442 9.65267 11.4876 9.77192 11.599 9.93708C11.8338 10.2851 11.9662 10.7282 11.9662 11.3424C11.9661 12.1053 11.7839 12.6183 11.5092 12.9351C11.3013 13.1748 11.0076 13.3374 10.6078 13.398C10.9409 13.3227 11.2301 13.1511 11.4437 12.8609C11.7225 12.4822 11.8266 11.9674 11.8266 11.3902C11.8265 10.8222 11.7369 10.3147 11.4857 9.93806C11.3875 9.79075 11.2699 9.67254 11.1371 9.58063Z" fill="var(--fill-0, #716E6A)" stroke="var(--stroke-0, #716E6A)" stroke-width="0.894507"/>
<path id="Vector_2" d="M14.5676 7.35017C14.4646 7.53498 14.3921 7.75027 14.341 7.98591L14.2893 8.22614L14.3283 8.2652C14.2166 8.7668 14.1838 9.43001 14.1838 10.0767C14.1838 11.0271 14.2845 11.8048 14.4494 12.3482L14.4533 12.3609C14.5618 12.6825 14.7039 12.9628 14.9231 13.1597C15.1594 13.3719 15.4353 13.4438 15.7141 13.4439C16.0249 13.4439 16.3334 13.3548 16.5832 13.108C16.8183 12.8755 16.9556 12.5478 17.0383 12.1666C17.1999 11.6462 17.2453 10.8258 17.2453 10.0767C17.2453 9.17628 17.145 8.34867 16.9797 7.80427L16.9758 7.79255L16.9719 7.77985L16.883 7.56306C16.8631 7.51942 16.8398 7.47787 16.8176 7.4361C16.8454 7.47535 16.8738 7.51555 16.8996 7.55915C17.1998 8.0669 17.3826 8.89979 17.385 10.149C17.3828 11.4023 17.2109 12.2484 16.9143 12.7691C16.7696 13.023 16.5989 13.1932 16.4065 13.3023C16.2132 13.4118 15.9722 13.4752 15.6653 13.4752C15.3552 13.4752 15.1171 13.4134 14.9299 13.3082C14.7445 13.2039 14.5809 13.0405 14.4426 12.7916C14.1555 12.2744 13.9944 11.4208 13.9944 10.1246C13.9944 8.83118 14.1678 8.00626 14.4563 7.51618C14.4919 7.45565 14.5288 7.40033 14.5676 7.35017Z" fill="var(--fill-0, #716E6A)" stroke="var(--stroke-0, #716E6A)" stroke-width="0.894507"/>
<g id="Vector_3">
<mask id="path-3-inside-1_0_111" fill="white">
<path d="M21.9212 8.37254C21.9212 9.68688 21.3793 10.3684 20.3448 10.3684C19.3104 10.3684 18.7685 9.68688 18.7685 8.37254C18.7685 7.05819 19.3104 6.42536 20.3448 6.42536C21.3793 6.42536 21.9212 7.10687 21.9212 8.42121V8.37254ZM19.6059 8.32386C19.6059 9.24876 19.8522 9.68688 20.3941 9.68688C20.936 9.68688 21.1823 9.24876 21.1823 8.32386C21.1823 7.39895 20.936 6.96083 20.3941 6.96083C19.8522 6.96083 19.6059 7.39895 19.6059 8.32386ZM23.9408 6.47404H24.7783L21.2808 13.7759H20.4434L23.9408 6.47404ZM26.5024 11.9261C26.5024 13.2405 25.9605 13.922 24.9261 13.922C23.8916 13.922 23.3497 13.2405 23.3497 11.9261C23.3497 10.6118 23.8916 9.97895 24.9261 9.97895C25.9605 9.97895 26.5024 10.6605 26.5024 11.9748V11.9261ZM24.1379 11.9261C24.1379 12.851 24.3842 13.2892 24.9261 13.2892C25.4679 13.2892 25.7142 12.851 25.7142 11.9261C25.7142 11.0012 25.4679 10.5631 24.9261 10.5631C24.3842 10.5631 24.1379 11.0012 24.1379 11.9261Z"/>
</mask>
<path d="M21.9212 8.37254C21.9212 9.68688 21.3793 10.3684 20.3448 10.3684C19.3104 10.3684 18.7685 9.68688 18.7685 8.37254C18.7685 7.05819 19.3104 6.42536 20.3448 6.42536C21.3793 6.42536 21.9212 7.10687 21.9212 8.42121V8.37254ZM19.6059 8.32386C19.6059 9.24876 19.8522 9.68688 20.3941 9.68688C20.936 9.68688 21.1823 9.24876 21.1823 8.32386C21.1823 7.39895 20.936 6.96083 20.3941 6.96083C19.8522 6.96083 19.6059 7.39895 19.6059 8.32386ZM23.9408 6.47404H24.7783L21.2808 13.7759H20.4434L23.9408 6.47404ZM26.5024 11.9261C26.5024 13.2405 25.9605 13.922 24.9261 13.922C23.8916 13.922 23.3497 13.2405 23.3497 11.9261C23.3497 10.6118 23.8916 9.97895 24.9261 9.97895C25.9605 9.97895 26.5024 10.6605 26.5024 11.9748V11.9261ZM24.1379 11.9261C24.1379 12.851 24.3842 13.2892 24.9261 13.2892C25.4679 13.2892 25.7142 12.851 25.7142 11.9261C25.7142 11.0012 25.4679 10.5631 24.9261 10.5631C24.3842 10.5631 24.1379 11.0012 24.1379 11.9261Z" fill="var(--fill-0, #716E6A)"/>
<path d="M23.9408 6.47404V5.57953H23.3775L23.1341 6.08763L23.9408 6.47404ZM24.7783 6.47404L25.585 6.86045L26.1986 5.57953H24.7783V6.47404ZM21.2808 13.7759V14.6705H21.8442L22.0875 14.1624L21.2808 13.7759ZM20.4434 13.7759L19.6366 13.3895L19.0231 14.6705H20.4434V13.7759ZM21.9212 8.37254H21.0267C21.0267 8.92799 20.9089 9.19526 20.8194 9.30834C20.7592 9.38447 20.6503 9.47388 20.3448 9.47388V10.3684V11.2629C21.0738 11.2629 21.7531 11.0116 22.2224 10.4183C22.6625 9.86208 22.8157 9.13142 22.8157 8.37254H21.9212ZM20.3448 10.3684V9.47388C20.0394 9.47388 19.9305 9.38447 19.8703 9.30834C19.7808 9.19526 19.663 8.92799 19.663 8.37254H18.7685H17.874C17.874 9.13142 18.0271 9.86208 18.4672 10.4183C18.9366 11.0116 19.6158 11.2629 20.3448 11.2629V10.3684ZM18.7685 8.37254H19.663C19.663 7.81593 19.7812 7.56972 19.8601 7.47367C19.9114 7.41113 20.0183 7.31987 20.3448 7.31987V6.42536V5.53085C19.6369 5.53085 18.9556 5.756 18.4774 6.33846C18.0267 6.88742 17.874 7.6148 17.874 8.37254H18.7685ZM20.3448 6.42536V7.31987C20.6503 7.31987 20.7592 7.40928 20.8194 7.48541C20.9089 7.59849 21.0267 7.86576 21.0267 8.42121H21.9212H22.8157C22.8157 7.66233 22.6625 6.93167 22.2224 6.37541C21.7531 5.78219 21.0738 5.53085 20.3448 5.53085V6.42536ZM21.9212 8.42121H22.8157V8.37254H21.9212H21.0267V8.42121H21.9212ZM19.6059 8.32386H18.7114C18.7114 8.83188 18.7729 9.36556 19.0211 9.79771C19.1548 10.0304 19.3461 10.2395 19.6058 10.3847C19.863 10.5285 20.1365 10.5814 20.3941 10.5814V9.68688V8.79237C20.3807 8.79237 20.4203 8.79047 20.4789 8.82325C20.54 8.85739 20.5682 8.89916 20.5725 8.90671C20.5726 8.90694 20.5518 8.86919 20.5326 8.76481C20.5136 8.66219 20.5004 8.51843 20.5004 8.32386H19.6059ZM20.3941 9.68688V10.5814C20.6517 10.5814 20.9252 10.5285 21.1824 10.3847C21.4421 10.2395 21.6334 10.0304 21.7671 9.79771C22.0153 9.36556 22.0768 8.83188 22.0768 8.32386H21.1823H20.2878C20.2878 8.51842 20.2746 8.66219 20.2556 8.76481C20.2364 8.86919 20.2156 8.90694 20.2157 8.9067C20.22 8.89916 20.2482 8.85739 20.3093 8.82325C20.3679 8.79047 20.4075 8.79237 20.3941 8.79237V9.68688ZM21.1823 8.32386H22.0768C22.0768 7.81583 22.0153 7.28216 21.7671 6.85C21.6334 6.61732 21.4421 6.40821 21.1824 6.26302C20.9252 6.11919 20.6517 6.06633 20.3941 6.06633V6.96083V7.85534C20.4075 7.85534 20.3679 7.85724 20.3093 7.82446C20.2482 7.79032 20.22 7.74855 20.2157 7.74101C20.2156 7.74078 20.2364 7.77852 20.2556 7.8829C20.2746 7.98552 20.2878 8.12929 20.2878 8.32386H21.1823ZM20.3941 6.96083V6.06633C20.1365 6.06633 19.863 6.11919 19.6058 6.26302C19.3461 6.40821 19.1548 6.61732 19.0211 6.85C18.7729 7.28216 18.7114 7.81583 18.7114 8.32386H19.6059H20.5004C20.5004 8.12929 20.5136 7.98552 20.5326 7.8829C20.5518 7.77852 20.5726 7.74078 20.5725 7.74101C20.5682 7.74855 20.54 7.79032 20.4789 7.82446C20.4203 7.85724 20.3807 7.85534 20.3941 7.85534V6.96083ZM23.9408 6.47404V7.36855H24.7783V6.47404V5.57953H23.9408V6.47404ZM24.7783 6.47404L23.9715 6.08763L20.474 13.3895L21.2808 13.7759L22.0875 14.1624L25.585 6.86045L24.7783 6.47404ZM21.2808 13.7759V12.8814H20.4434V13.7759V14.6705H21.2808V13.7759ZM20.4434 13.7759L21.2501 14.1624L24.7476 6.86045L23.9408 6.47404L23.1341 6.08763L19.6366 13.3895L20.4434 13.7759ZM26.5024 11.9261H25.6079C25.6079 12.4816 25.4901 12.7489 25.4006 12.8619C25.3404 12.9381 25.2315 13.0275 24.9261 13.0275V13.922V14.8165C25.6551 14.8165 26.3343 14.5652 26.8037 13.9719C27.2437 13.4157 27.3969 12.685 27.3969 11.9261H26.5024ZM24.9261 13.922V13.0275C24.6206 13.0275 24.5117 12.9381 24.4515 12.8619C24.362 12.7489 24.2442 12.4816 24.2442 11.9261H23.3497H22.4552C22.4552 12.685 22.6084 13.4157 23.0484 13.9719C23.5178 14.5652 24.197 14.8165 24.9261 14.8165V13.922ZM23.3497 11.9261H24.2442C24.2442 11.3695 24.3625 11.1233 24.4413 11.0273C24.4927 10.9647 24.5995 10.8735 24.9261 10.8735V9.97895V9.08445C24.2182 9.08445 23.5368 9.3096 23.0586 9.89206C22.6079 10.441 22.4552 11.1684 22.4552 11.9261H23.3497ZM24.9261 9.97895V10.8735C25.2315 10.8735 25.3404 10.9629 25.4006 11.039C25.4901 11.1521 25.6079 11.4194 25.6079 11.9748H26.5024H27.3969C27.3969 11.2159 27.2437 10.4853 26.8037 9.929C26.3343 9.33579 25.6551 9.08445 24.9261 9.08445V9.97895ZM26.5024 11.9748H27.3969V11.9261H26.5024H25.6079V11.9748H26.5024ZM24.1379 11.9261H23.2434C23.2434 12.4342 23.3049 12.9678 23.5531 13.4C23.6867 13.6327 23.8781 13.8418 24.1377 13.987C24.3949 14.1308 24.6685 14.1837 24.9261 14.1837V13.2892V12.3946C24.9127 12.3946 24.9523 12.3927 25.0109 12.4255C25.072 12.4597 25.1001 12.5014 25.1044 12.509C25.1046 12.5092 25.0838 12.4715 25.0645 12.3671C25.0456 12.2645 25.0324 12.1207 25.0324 11.9261H24.1379ZM24.9261 13.2892V14.1837C25.1836 14.1837 25.4572 14.1308 25.7144 13.987C25.974 13.8418 26.1654 13.6327 26.299 13.4C26.5472 12.9678 26.6087 12.4342 26.6087 11.9261H25.7142H24.8197C24.8197 12.1207 24.8065 12.2645 24.7876 12.3671C24.7683 12.4715 24.7475 12.5092 24.7477 12.509C24.752 12.5014 24.7801 12.4597 24.8412 12.4255C24.8998 12.3927 24.9394 12.3946 24.9261 12.3946V13.2892ZM25.7142 11.9261H26.6087C26.6087 11.4181 26.5472 10.8844 26.299 10.4523C26.1654 10.2196 25.974 10.0105 25.7144 9.86529C25.4572 9.72146 25.1836 9.6686 24.9261 9.6686V10.5631V11.4576C24.9394 11.4576 24.8998 11.4595 24.8412 11.4267C24.7801 11.3926 24.752 11.3508 24.7477 11.3433C24.7475 11.343 24.7683 11.3808 24.7876 11.4852C24.8065 11.5878 24.8197 11.7316 24.8197 11.9261H25.7142ZM24.9261 10.5631V9.6686C24.6685 9.6686 24.3949 9.72146 24.1377 9.86529C23.8781 10.0105 23.6867 10.2196 23.5531 10.4523C23.3049 10.8844 23.2434 11.4181 23.2434 11.9261H24.1379H25.0324C25.0324 11.7316 25.0456 11.5878 25.0645 11.4852C25.0838 11.3808 25.1046 11.343 25.1044 11.3433C25.1001 11.3508 25.072 11.3926 25.0109 11.4267C24.9523 11.4595 24.9127 11.4576 24.9261 11.4576V10.5631Z" fill="var(--stroke-0, #716E6A)" mask="url(#path-3-inside-1_0_111)"/>
</g>
<path id="Vector_4" d="M9.79858 20.8441V24.4281H9.69994V27.2513H9.60912V20.8441H9.79858ZM12.1482 21.2015C12.4277 21.4777 12.6062 21.9275 12.6062 22.6361C12.6062 23.3789 12.3871 23.8582 12.0369 24.1351L12.03 24.1409C11.9046 24.2441 11.6904 24.3383 11.3806 24.389C11.6507 24.3251 11.8911 24.1986 12.0857 23.9759L12.0867 23.9769C12.2682 23.7975 12.3697 23.5487 12.4275 23.3275C12.4881 23.0954 12.5154 22.837 12.5154 22.5872C12.5153 22.0268 12.3484 21.4808 12.071 21.138L12.0632 21.1282C12.0942 21.1516 12.1224 21.1761 12.1482 21.2015Z" fill="var(--fill-0, #716E6A)" stroke="var(--stroke-0, #716E6A)" stroke-width="0.894507"/>
<path id="Vector_5" d="M17.128 20.8217C17.0703 20.8449 17.0133 20.8711 16.9581 20.9008C16.6629 21.0594 16.4334 21.2973 16.2618 21.598C15.9303 22.1788 15.8087 23.0081 15.8087 24.0463C15.8087 24.9554 15.9109 25.6449 16.1319 26.2455L16.1348 26.2553L16.1387 26.265C16.2845 26.6107 16.4916 26.9102 16.7989 27.1185C16.8497 27.153 16.9032 27.1823 16.9571 27.2103C16.6259 27.0913 16.3741 26.8983 16.1827 26.6293C15.8264 26.1285 15.6192 25.3047 15.6192 24.0463C15.6192 22.7884 15.8268 21.9631 16.1788 21.4613C16.4037 21.1408 16.7091 20.9268 17.128 20.8217Z" fill="var(--fill-0, #716E6A)" stroke="var(--stroke-0, #716E6A)" stroke-width="0.894507"/>
<path id="Vector_6" d="M22.5571 20.8441V24.0384H22.5083V27.2513H22.4175V20.8441H22.5571ZM25.4595 27.2025H25.4272L24.4126 25.4886L25.4595 27.2025ZM24.6724 20.9759C24.8242 21.0305 24.9389 21.0983 25.0308 21.1761C25.2872 21.4002 25.4634 21.833 25.4634 22.4417C25.4633 22.9979 25.3371 23.304 25.104 23.5345C25.0414 23.5964 24.981 23.645 24.8804 23.6927C25.1608 23.3888 25.3236 22.8976 25.3237 22.4417C25.3237 21.9256 25.1538 21.4049 24.8462 21.1009L24.8237 21.0784L24.7983 21.0599L24.6899 20.9857C24.6843 20.9821 24.6781 20.9794 24.6724 20.9759Z" fill="var(--fill-0, #716E6A)" stroke="var(--stroke-0, #716E6A)" stroke-width="0.894507"/>
<path id="Vector_7" d="M17.1919 33.9782C7.73389 33.9782 5.50212e-06 26.3355 5.50212e-06 16.9891C5.50212e-06 7.64266 7.73389 0 17.1919 0C26.6499 0 34.3838 7.64266 34.3838 16.9891C34.3838 26.3355 26.6499 33.9782 17.1919 33.9782ZM17.1919 0.973588C8.27575 0.973588 0.985213 8.17814 0.985213 16.9891C0.985213 25.8001 8.27575 33.0046 17.1919 33.0046C26.108 33.0046 33.3986 25.8001 33.3986 16.9891C33.3986 8.17814 26.108 0.973588 17.1919 0.973588Z" fill="var(--fill-0, #716E6A)"/>
<path id="Vector_8" d="M29.946 16.9492V17.0283H3.99388V16.9492H29.946Z" fill="var(--fill-0, #716E6A)" stroke="var(--stroke-0, #716E6A)" stroke-width="0.894507"/>
</g>
</svg>
