<svg preserveAspectRatio="none" width="100%" height="100%" overflow="visible" style="display: block;" viewBox="0 0 40.9335 47.7557" fill="none" xmlns="http://www.w3.org/2000/svg">
<g id="a" clip-path="url(#clip0_0_226)">
<path id="Vector" d="M29.6823 4.32417C29.2537 4.32417 28.8727 4.47693 28.5631 4.78245C28.2536 5.08798 28.0988 5.45226 28.0988 5.87529C28.0988 6.29832 28.2536 6.67435 28.5631 6.97987C28.8727 7.2854 29.2418 7.43816 29.6823 7.43816C30.1229 7.43816 30.4919 7.2854 30.7896 6.97987C31.0873 6.67435 31.2539 6.31007 31.2539 5.88704C31.2539 5.46401 31.0992 5.08798 30.7896 4.79421C30.48 4.48868 30.1109 4.33592 29.6823 4.33592V4.32417ZM29.9085 5.56977C29.9085 5.56977 29.8966 5.66377 29.8609 5.68727C29.8371 5.69903 29.7776 5.73428 29.599 5.73428H29.3609V5.417H29.5752C29.7776 5.417 29.8371 5.45226 29.849 5.46401C29.8847 5.48751 29.8966 5.52276 29.8966 5.58152L29.9085 5.56977ZM30.2419 6.34533C30.1467 6.20431 30.0633 6.09856 29.9919 6.0163C30.0752 5.98105 30.1467 5.94579 30.1943 5.87529C30.2895 5.76953 30.3372 5.65202 30.3372 5.52276C30.3372 5.417 30.3014 5.323 30.2419 5.22899C30.1705 5.13498 30.0871 5.07623 29.98 5.05273C29.8847 5.02922 29.7538 5.01747 29.5752 5.01747H28.9322V6.75661H29.349V6.08681H29.4204C29.4918 6.08681 29.5514 6.09856 29.599 6.13381C29.6228 6.14556 29.7061 6.23957 29.9681 6.72135L29.9919 6.75661H30.3967C30.1824 6.93287 29.9443 7.01513 29.6585 7.01513C29.337 7.01513 29.0632 6.89762 28.837 6.67435C28.6108 6.45108 28.4917 6.18081 28.4917 5.86354C28.4917 5.54626 28.6108 5.27599 28.837 5.05273C29.0632 4.82946 29.337 4.71195 29.6585 4.71195C29.98 4.71195 30.2538 4.82946 30.4919 5.05273C30.7182 5.27599 30.8372 5.54626 30.8372 5.86354C30.8372 6.18081 30.7182 6.45108 30.4919 6.6861C30.4919 6.6861 30.48 6.69785 30.4681 6.7096L30.23 6.34533H30.2419Z" fill="var(--fill-0, #716E6A)"/>
<path id="Vector_2" d="M12.8949 36.7557L12.7758 37.1317L12.6805 36.7557L12.3829 35.6276H12.0376L11.7281 36.7675C11.6566 37.0142 11.6209 37.1435 11.6209 37.167L11.5137 36.744L11.1923 35.6159H10.847L11.4542 37.5665H11.7995L12.2043 36.0624L12.2876 36.3914L12.5972 37.5548H12.9306L13.5616 35.6041H13.2401L12.8949 36.7322V36.7557Z" fill="var(--fill-0, #716E6A)"/>
<path id="Vector_3" d="M15.7165 36.7557L15.5975 37.1317L15.5022 36.7557L15.2046 35.6276H14.8593L14.5497 36.7675C14.4783 37.0142 14.4426 37.1435 14.4426 37.167L14.3354 36.744L14.0139 35.6159H13.6687L14.2759 37.5665H14.6212L15.026 36.0624L15.0974 36.3914L15.407 37.5548H15.7403L16.3714 35.6041H16.0499L15.7046 36.7322L15.7165 36.7557Z" fill="var(--fill-0, #716E6A)"/>
<path id="Vector_4" d="M18.5382 36.7557L18.4191 37.1317L18.3239 36.7557L18.0262 35.6276H17.6809L17.3714 36.7675C17.2999 37.0142 17.2642 37.1435 17.2642 37.167L17.1571 36.744L16.8356 35.6159H16.4903L17.0975 37.5665H17.4428L17.8476 36.0624L17.931 36.3914L18.2405 37.5548H18.5739L19.2049 35.6041H18.8835L18.5382 36.7322V36.7557Z" fill="var(--fill-0, #716E6A)"/>
<path id="Vector_5" d="M19.6695 37.2034H19.2885V37.5795H19.6695V37.2034Z" fill="var(--fill-0, #716E6A)"/>
<path id="Vector_6" d="M20.4432 34.9232C20.3599 34.982 20.3004 35.0407 20.2766 35.1348C20.2528 35.1935 20.2408 35.2993 20.2408 35.4285V35.64H19.9551V35.8986H20.2408V37.5907H20.5742V35.8986H20.9552V35.64H20.5742V35.4638C20.5742 35.3463 20.598 35.264 20.6337 35.2288C20.6695 35.1818 20.7528 35.17 20.8481 35.17C20.9076 35.17 20.979 35.17 21.0505 35.1935L21.0981 34.9115C20.979 34.888 20.8838 34.8762 20.7885 34.8762C20.6457 34.8762 20.5266 34.8997 20.4432 34.9585V34.9232Z" fill="var(--fill-0, #716E6A)"/>
<path id="Vector_7" d="M22.4672 36.5457C22.3719 36.5105 22.2052 36.4517 21.979 36.393C21.8242 36.346 21.7171 36.3225 21.6933 36.3107C21.6337 36.2872 21.5861 36.252 21.5623 36.2285C21.5385 36.1932 21.5266 36.158 21.5266 36.111C21.5266 36.0404 21.5623 35.9817 21.6218 35.9347C21.6933 35.8877 21.8004 35.8642 21.9433 35.8642C22.0743 35.8642 22.1695 35.8877 22.2409 35.9464C22.3124 36.0052 22.3481 36.0875 22.3719 36.1815L22.7053 36.1345C22.6815 36.0052 22.6458 35.9112 22.5862 35.8289C22.5267 35.7584 22.4434 35.6997 22.3243 35.6527C22.2052 35.6057 22.0743 35.5822 21.9195 35.5822C21.8123 35.5822 21.7171 35.5939 21.6337 35.6174C21.5385 35.6409 21.479 35.6762 21.4194 35.7114C21.348 35.7584 21.3004 35.8172 21.2527 35.8994C21.2051 35.9699 21.1932 36.0522 21.1932 36.1345C21.1932 36.2285 21.217 36.3107 21.2646 36.393C21.3123 36.4752 21.3837 36.534 21.479 36.581C21.5742 36.628 21.7409 36.675 21.979 36.7338C22.1576 36.7808 22.2767 36.816 22.3124 36.8395C22.3838 36.8865 22.4076 36.9453 22.4076 37.0158C22.4076 37.098 22.3719 37.1685 22.3005 37.239C22.229 37.2978 22.11 37.333 21.9671 37.333C21.8242 37.333 21.7052 37.2978 21.6099 37.2273C21.5266 37.1568 21.479 37.0628 21.4551 36.9218L21.1218 36.9688C21.1575 37.1803 21.2408 37.333 21.3837 37.4388C21.5147 37.5446 21.7171 37.5916 21.9671 37.5916C22.1219 37.5916 22.2648 37.5681 22.3838 37.5093C22.5029 37.4623 22.5981 37.38 22.6696 37.286C22.7291 37.192 22.7648 37.0863 22.7648 36.9805C22.7648 36.8748 22.741 36.769 22.6815 36.6985C22.6339 36.628 22.5505 36.5692 22.4672 36.5222V36.5457Z" fill="var(--fill-0, #716E6A)"/>
<path id="Vector_8" d="M24.2532 37.2385C24.1699 37.3208 24.0508 37.356 23.9199 37.356C23.7532 37.356 23.6222 37.2973 23.527 37.1798C23.4198 37.0623 23.3722 36.8742 23.3722 36.6157C23.3722 36.3572 23.4198 36.1692 23.527 36.0517C23.6341 35.9342 23.7651 35.8754 23.9318 35.8754C24.0389 35.8754 24.1342 35.9107 24.2175 35.9694C24.3009 36.0399 24.3485 36.1339 24.3842 36.2632L24.7176 36.2162C24.6819 36.0164 24.5985 35.8637 24.4556 35.7579C24.3247 35.6521 24.1461 35.5934 23.9318 35.5934C23.7651 35.5934 23.6103 35.6286 23.4674 35.7109C23.3246 35.7932 23.2174 35.9107 23.146 36.0634C23.0745 36.2162 23.0388 36.4042 23.0388 36.6157C23.0388 36.9447 23.1221 37.1915 23.2888 37.3678C23.4555 37.544 23.6698 37.6263 23.9318 37.6263C24.1461 37.6263 24.3247 37.5675 24.4795 37.4383C24.6223 37.3208 24.7176 37.1445 24.7533 36.9212L24.4199 36.8742C24.3961 37.0388 24.3366 37.1563 24.2532 37.2385Z" fill="var(--fill-0, #716E6A)"/>
<path id="Vector_9" d="M25.4916 37.2034H25.1106V37.5795H25.4916V37.2034Z" fill="var(--fill-0, #716E6A)"/>
<path id="Vector_10" d="M26.7176 35.5939C26.4795 35.5939 26.2652 35.6644 26.0985 35.8054C25.8961 35.9817 25.789 36.252 25.789 36.6045C25.789 36.9335 25.8723 37.1803 26.039 37.3565C26.2057 37.5328 26.4319 37.6151 26.7057 37.6151C26.8724 37.6151 27.0391 37.5798 27.182 37.4976C27.3249 37.4153 27.4439 37.3095 27.5154 37.1568C27.5868 37.0158 27.6344 36.816 27.6344 36.5692C27.6344 36.2637 27.5511 36.0169 27.3725 35.8407C27.1939 35.6644 26.9796 35.5822 26.7057 35.5822L26.7176 35.5939ZM27.1344 37.1685C27.0272 37.2978 26.8843 37.3565 26.7176 37.3565C26.551 37.3565 26.4081 37.2978 26.3009 37.1685C26.1938 37.051 26.1342 36.8513 26.1342 36.6045C26.1342 36.3577 26.1938 36.1697 26.3009 36.0404C26.4081 35.9229 26.551 35.8524 26.7176 35.8524C26.8843 35.8524 27.0272 35.9112 27.1344 36.0404C27.2415 36.1697 27.301 36.346 27.301 36.5927C27.301 36.8513 27.2415 37.0393 27.1344 37.1568V37.1685Z" fill="var(--fill-0, #716E6A)"/>
<path id="Vector_11" d="M28.5398 35.6521C28.4802 35.6992 28.4088 35.7932 28.3255 35.9342V35.6404H28.0278V37.591H28.3612V36.5687C28.3612 36.4277 28.385 36.2985 28.4207 36.1809C28.4445 36.0987 28.4921 36.0399 28.5398 36.0047C28.5993 35.9577 28.6588 35.9459 28.7303 35.9459C28.8136 35.9459 28.897 35.9694 28.9684 36.0047L29.0875 35.6992C28.9684 35.6286 28.8612 35.5934 28.7422 35.5934C28.6707 35.5934 28.5993 35.6169 28.5279 35.6639L28.5398 35.6521Z" fill="var(--fill-0, #716E6A)"/>
<path id="Vector_12" d="M30.5635 35.8754C30.4087 35.6874 30.2182 35.5934 29.992 35.5934C29.8134 35.5934 29.6705 35.6404 29.5395 35.7227C29.4086 35.8049 29.3133 35.9342 29.2419 36.0869C29.1704 36.2397 29.1347 36.416 29.1347 36.604C29.1347 36.8742 29.2061 37.1093 29.3609 37.2973C29.5157 37.4853 29.7181 37.591 29.992 37.591C30.2063 37.591 30.3968 37.5088 30.5396 37.3325C30.5396 37.544 30.5396 37.6968 30.5158 37.7556C30.4801 37.8613 30.4325 37.9553 30.3491 38.0141C30.2658 38.0728 30.1467 38.1081 29.992 38.1081C29.8491 38.1081 29.7419 38.0728 29.6586 38.0141C29.5991 37.9671 29.5633 37.8966 29.5514 37.7908L29.2181 37.7438C29.2181 37.9553 29.2776 38.1081 29.4205 38.2138C29.5633 38.3196 29.7538 38.3666 29.992 38.3666C30.1944 38.3666 30.361 38.3314 30.492 38.2609C30.623 38.1903 30.7301 38.0846 30.7897 37.9671C30.8492 37.8378 30.8849 37.6263 30.8849 37.3208V35.6404H30.5754V35.8872L30.5635 35.8754ZM30.4087 37.1328C30.3015 37.2503 30.1705 37.309 30.0158 37.309C29.861 37.309 29.73 37.2503 29.6229 37.1328C29.5157 37.0153 29.4681 36.8272 29.4681 36.5687C29.4681 36.3337 29.5157 36.1574 29.6229 36.0399C29.73 35.9224 29.8491 35.8637 30.0039 35.8637C30.1586 35.8637 30.2896 35.9224 30.3968 36.0399C30.5039 36.1574 30.5635 36.3455 30.5635 36.5805C30.5635 36.8272 30.5158 37.0153 30.4087 37.1328Z" fill="var(--fill-0, #716E6A)"/>
<path id="Vector_13" d="M29.2536 14.3713C30.3251 11.5393 28.5868 8.81308 26.3366 8.06102C25.5269 5.1468 23.0028 4.01871 21.0502 4.01871C15.0257 4.01871 12.8945 13.2667 10.9062 20.6933C10.1918 19.9764 7.98914 17.8143 7.97723 17.8143C7.5367 17.3795 7.02474 17.5205 6.71517 17.8143C6.40561 18.1198 6.35799 18.6956 6.71517 19.0481C6.73899 19.0599 9.70363 21.9859 10.7395 22.9964C11.0252 23.2667 11.43 23.4312 11.8348 23.1962C12.2635 22.9377 12.323 22.4794 12.3349 22.4794C15.8591 6.92118 19.0024 5.75784 21.0502 5.75784C22.7647 5.75784 24.753 7.01519 24.753 9.51814C27.3129 9.51814 28.9202 12.8319 26.8604 14.8766C28.5749 15.6874 29.3369 16.6979 29.3369 17.967C29.3369 19.2361 28.2535 20.5405 26.6818 20.5287C25.1221 20.5287 24.3244 19.5417 23.11 19.5417C22.5623 19.5417 22.217 19.9764 22.217 20.4112V23.5487H19.9191V20.423C19.9191 19.9294 19.55 19.5417 19.0976 19.5417C19.0976 19.5417 18.8952 19.5417 18.9071 19.5417L15.8353 19.9177C15.4662 19.9647 15.1209 20.3642 15.1209 20.7755C15.1209 21.2573 15.5138 21.6568 16.0615 21.6451C16.133 21.6451 16.2282 21.6451 16.2163 21.6451L18.1689 21.3983V24.5006C18.1689 24.9001 18.6214 25.2761 19.0262 25.2761H23.11C23.5862 25.2761 24.003 24.8766 24.003 24.3948V21.5628C24.8602 22.0799 26.0508 22.2796 26.658 22.2796C28.9559 22.2796 31.1348 20.5052 31.1348 17.8965C31.1348 15.5346 29.2893 14.3478 29.2893 14.3478L29.2536 14.3713Z" fill="var(--fill-0, #716E6A)"/>
<path id="Vector_14" d="M20.9078 32.9502C19.8244 32.9502 19.1814 32.5271 18.8242 31.5635L18.8004 31.4813H18.7171C18.5266 31.4813 18.3718 31.4813 18.2885 31.5988C18.217 31.6928 18.2289 31.8221 18.2647 31.9513L18.5028 32.9384C18.5623 33.1734 18.6576 33.2204 19.0386 33.2909C19.2052 33.3144 20.0863 33.4672 20.8245 33.4672C22.8962 33.4672 23.8248 32.6329 23.8248 31.8103C23.8248 31.211 23.2176 30.6352 21.9198 30.0007L21.3245 29.7187C20.4316 29.2956 19.8958 29.0488 19.8958 28.6141C19.8958 28.1793 20.4554 27.8855 21.2531 27.8855C22.2889 27.8855 22.5628 28.4613 22.6938 28.9548L22.7176 29.0488H22.8128C23.039 29.0488 23.1938 29.0253 23.2772 28.9313C23.3248 28.8843 23.3486 28.8138 23.3367 28.7198L23.2533 27.8738C23.2295 27.6035 23.0152 27.5565 22.7295 27.5095C22.3842 27.4507 21.9675 27.3685 21.3364 27.3685C19.5386 27.3685 18.4671 27.8855 18.4671 28.7551C18.4671 29.4836 19.3005 29.9302 20.6578 30.5647C21.7413 31.0583 22.3604 31.587 22.3604 32.0101C22.3604 32.6916 21.6103 32.9384 20.9078 32.9384V32.9502Z" fill="var(--fill-0, #716E6A)"/>
<path id="Vector_15" d="M28.6352 27.8855C29.5638 27.8855 30.052 28.2145 30.1472 28.8843V28.9901H30.2782C30.3854 28.9901 30.683 28.9901 30.683 28.7786V27.768C30.683 27.5212 30.3973 27.486 30.2663 27.4625H30.1472C29.8496 27.4037 29.5638 27.3685 28.8137 27.3685C26.2777 27.3685 24.4323 28.6728 24.4323 30.4825C24.4323 31.9631 25.73 33.4672 28.2303 33.4672C29.4924 33.4672 30.1949 33.1852 30.7187 32.9031L30.8616 32.8326L30.6235 32.5859H30.6354C30.5759 32.5154 30.5401 32.5036 30.4568 32.5036L30.3377 32.5389C30.1472 32.6211 29.5757 32.8914 28.528 32.8914C27.2421 32.8914 25.8491 32.0571 25.8491 30.2357C25.8491 28.4143 27.3493 27.8855 28.6352 27.8855Z" fill="var(--fill-0, #716E6A)"/>
<path id="Vector_16" d="M13.5973 27.979C13.9902 27.9672 14.9427 27.932 15.2285 27.932C15.5142 27.932 15.7523 27.9907 15.9071 28.0965C16.4191 28.4138 16.681 28.6253 16.8358 28.7428C16.9906 28.8603 17.0739 28.9426 17.2049 28.9426C17.2763 28.9426 17.4906 28.9426 17.4906 28.7546C17.4906 28.7075 17.4668 28.6723 17.4073 28.5195C17.324 28.3433 17.1811 28.0377 17.0025 27.5795C16.9549 27.4384 16.7882 27.4384 16.4667 27.4384H15.038L12.7996 27.4737L11.2994 27.4502H11.0732C10.9422 27.4502 10.847 27.5442 10.847 27.6735C10.847 27.7322 10.847 27.932 11.097 27.932C12.0019 27.932 12.0376 28.0025 12.0495 28.3433V28.5548L12.0733 29.4596V31.422C12.0733 31.751 12.0733 32.2681 12.0376 32.6794C12.0376 32.7969 12.0257 32.9144 11.228 32.9144C11.0018 32.9144 10.8708 32.9614 10.8708 33.1729C10.8708 33.2316 10.8708 33.4079 11.0851 33.4079H11.1327C11.228 33.4079 11.478 33.3962 12.7282 33.3962C14.0617 33.3962 14.3236 33.4079 14.4188 33.4079H14.4665C14.6451 33.4079 14.7879 33.3962 14.7879 33.1729C14.7879 32.9261 14.5855 32.9144 14.2522 32.9144C13.4544 32.9144 13.4425 32.7969 13.4425 32.6794C13.4187 32.2916 13.4068 31.7745 13.4068 31.422V30.717H14.0736C15.0975 30.717 15.2166 30.7405 15.3713 31.5278C15.4071 31.6923 15.5499 31.7158 15.669 31.7158C15.9071 31.7158 15.9428 31.5865 15.9428 31.5278L15.919 31.234C15.9071 31.0695 15.8833 30.858 15.8833 30.5759V29.3774C15.8833 29.2011 15.669 29.2011 15.5499 29.2011C15.3594 29.2011 15.3118 29.3186 15.1808 29.8944C15.1213 30.1059 14.7046 30.2352 14.014 30.2352H13.4068V28.4725C13.4068 27.9907 13.4902 27.9907 13.5973 27.979Z" fill="var(--fill-0, #716E6A)"/>
<path id="Vector_17" d="M7.537 43.8899H8.02515V42.7266H9.25149V42.28H8.02515V41.622H9.43008V41.1754H7.537V43.8899Z" fill="var(--fill-0, #716E6A)"/>
<path id="Vector_18" d="M11.4538 42.3853C11.3109 42.3383 11.1323 42.2913 10.918 42.2443C10.6798 42.1855 10.5251 42.1385 10.4417 42.0915C10.3822 42.0563 10.3465 41.9857 10.3465 41.9035C10.3465 41.7977 10.3941 41.7272 10.4774 41.6802C10.5727 41.6215 10.7156 41.5862 10.8703 41.5862C11.0489 41.5862 11.1918 41.6215 11.2752 41.692C11.3704 41.7625 11.418 41.8682 11.4299 42.0092V42.0798L11.9062 42.0445V41.974C11.8943 41.7037 11.7871 41.4922 11.5966 41.3512C11.4061 41.2102 11.1561 41.1397 10.8584 41.1397C10.5608 41.1397 10.3227 41.2102 10.1441 41.3629C9.96548 41.5157 9.87023 41.7037 9.87023 41.927C9.87023 42.1268 9.94167 42.2913 10.0845 42.4205C10.2274 42.5498 10.4417 42.632 10.7513 42.7026C11.037 42.7613 11.2394 42.8201 11.3585 42.8906C11.4657 42.9376 11.5133 43.0198 11.5133 43.1373C11.5133 43.2431 11.4657 43.3371 11.3704 43.3959C11.2633 43.4664 11.1204 43.5016 10.9418 43.5016C10.7513 43.5016 10.5846 43.4546 10.4536 43.3724C10.3227 43.2901 10.2631 43.1608 10.2393 42.9728V42.9023L9.76307 42.9376V43.0081C9.77498 43.2783 9.88213 43.5134 10.0845 43.6896C10.275 43.8659 10.5727 43.9482 10.9537 43.9482C11.2633 43.9482 11.5133 43.8659 11.7038 43.7131C11.8943 43.5486 12.0014 43.3489 12.0014 43.1021C12.0014 42.9141 11.9419 42.7496 11.8347 42.632C11.7276 42.5263 11.6085 42.444 11.4538 42.3853Z" fill="var(--fill-0, #716E6A)"/>
<path id="Vector_19" d="M14.3354 42.9028C14.2878 43.1026 14.2044 43.2554 14.0854 43.3611C13.9663 43.4551 13.8234 43.5021 13.6329 43.5021C13.4067 43.5021 13.2162 43.4199 13.0733 43.2671C12.9305 43.1026 12.859 42.8558 12.859 42.515C12.859 42.2213 12.9305 41.9863 13.0614 41.81C13.1924 41.6455 13.3948 41.5632 13.6567 41.5632C13.8115 41.5632 13.9425 41.5985 14.0496 41.6807C14.1568 41.763 14.2282 41.8805 14.2878 42.045L14.3116 42.1038L14.7878 41.998L14.764 41.9275C14.6926 41.669 14.5497 41.4692 14.3592 41.3282C14.1687 41.1872 13.9306 41.1284 13.6686 41.1284C13.2876 41.1284 12.9781 41.2577 12.7281 41.5045C12.4899 41.7512 12.359 42.092 12.359 42.515C12.359 42.9028 12.4661 43.2319 12.6685 43.5139C12.8709 43.7959 13.2043 43.9369 13.6567 43.9369C13.9425 43.9369 14.1806 43.8547 14.383 43.7136C14.5854 43.5609 14.7283 43.3376 14.8116 43.0321L14.8355 42.9616L14.3473 42.8441V42.9146L14.3354 42.9028Z" fill="var(--fill-0, #716E6A)"/>
<path id="Vector_20" d="M15.7288 41.1984C15.5383 41.1984 15.3717 41.2689 15.2288 41.3982C15.0859 41.5392 15.0264 41.7037 15.0264 41.8917C15.0264 42.0797 15.0978 42.2443 15.2288 42.3853C15.3717 42.5263 15.5383 42.585 15.7288 42.585C15.9193 42.585 16.086 42.5145 16.2289 42.3853C16.3718 42.2443 16.4313 42.0797 16.4313 41.8917C16.4313 41.7037 16.3599 41.5392 16.2289 41.3982C16.086 41.2572 15.9193 41.1984 15.7288 41.1984ZM15.8241 41.7507C15.8241 41.7507 15.8241 41.786 15.8003 41.7977C15.8003 41.7977 15.7646 41.8212 15.6812 41.8212H15.5741V41.6802H15.6693C15.7526 41.6802 15.7884 41.692 15.8003 41.7037C15.8122 41.7155 15.8241 41.7272 15.8241 41.7507ZM15.9789 42.1032C15.9431 42.0327 15.8955 41.9857 15.8717 41.9622C15.9074 41.9505 15.9431 41.927 15.967 41.9035C16.0027 41.8565 16.0265 41.8095 16.0265 41.7507C16.0265 41.7037 16.0146 41.6567 15.9789 41.6215C15.9551 41.5862 15.9074 41.5509 15.8598 41.5392C15.8122 41.5392 15.7526 41.5274 15.6812 41.5274H15.3955V42.3148H15.586V42.0092H15.6217C15.6217 42.0092 15.6812 42.0092 15.705 42.0327C15.705 42.0327 15.7526 42.0797 15.8717 42.2913V42.3148H16.0622C15.967 42.397 15.8598 42.4323 15.7288 42.4323C15.586 42.4323 15.4669 42.3853 15.3597 42.2795C15.2526 42.1737 15.205 42.0562 15.205 41.9152C15.205 41.7742 15.2526 41.6567 15.3597 41.5509C15.4669 41.4452 15.586 41.3982 15.7288 41.3982C15.8717 41.3982 15.9908 41.4452 16.0979 41.5509C16.2051 41.6567 16.2527 41.7742 16.2527 41.9152C16.2527 42.0562 16.2051 42.1855 16.0979 42.2795L15.9908 42.115L15.9789 42.1032Z" fill="var(--fill-0, #716E6A)"/>
<path id="Vector_21" d="M18.9666 41.1162H19.4786L20.5501 43.8541H20.0262L19.7643 43.1256H18.657L18.3951 43.8541H17.895L18.9666 41.1162ZM18.7999 42.7731H19.6452L19.2285 41.598L18.8118 42.7731H18.7999Z" fill="var(--fill-0, #716E6A)"/>
<path id="Vector_22" d="M21.6098 41.1162C21.8003 41.1162 21.967 41.1632 22.086 41.2454C22.2051 41.3394 22.3003 41.4452 22.3718 41.5862C22.4432 41.7272 22.4908 41.8682 22.5147 42.0328C22.5385 42.1973 22.5504 42.35 22.5504 42.5145C22.5504 42.6791 22.5385 42.8318 22.5147 42.9963C22.4908 43.1608 22.4432 43.3136 22.3718 43.4429C22.3003 43.5839 22.2051 43.6896 22.086 43.7836C21.967 43.8776 21.8003 43.9129 21.6098 43.9129C21.4193 43.9129 21.2526 43.8659 21.1335 43.7836C21.0145 43.6896 20.9192 43.5839 20.8478 43.4429C20.7764 43.3019 20.7287 43.1608 20.7049 42.9963C20.6811 42.8318 20.6692 42.6791 20.6692 42.5145C20.6692 42.35 20.6811 42.1973 20.7049 42.0328C20.7287 41.8682 20.7764 41.7155 20.8478 41.5862C20.9192 41.4452 21.0145 41.3394 21.1335 41.2454C21.2526 41.1514 21.4193 41.1162 21.6098 41.1162ZM21.6098 43.5486C21.705 43.5486 21.7884 43.5251 21.8479 43.4664C21.9074 43.4076 21.967 43.3371 22.0027 43.2431C22.0384 43.1491 22.0622 43.0433 22.086 42.9141C22.1098 42.7848 22.1098 42.6556 22.1098 42.5145C22.1098 42.3735 22.1098 42.2443 22.086 42.115C22.0622 41.9858 22.0384 41.88 22.0027 41.786C21.967 41.692 21.9193 41.6215 21.8479 41.5627C21.7884 41.504 21.705 41.4805 21.6098 41.4805C21.5145 41.4805 21.4312 41.504 21.3717 41.5627C21.3121 41.6215 21.2526 41.692 21.2169 41.786C21.1812 41.88 21.1573 41.9858 21.1335 42.115C21.1097 42.2443 21.1097 42.3735 21.1097 42.5145C21.1097 42.6556 21.1097 42.7848 21.1335 42.9141C21.1573 43.0433 21.1812 43.1491 21.2169 43.2431C21.2526 43.3371 21.3002 43.4076 21.3717 43.4664C21.4312 43.5251 21.5145 43.5486 21.6098 43.5486Z" fill="var(--fill-0, #716E6A)"/>
<path id="Vector_23" d="M23.7766 41.1162C23.9671 41.1162 24.1338 41.1632 24.2529 41.2454C24.3719 41.3394 24.4672 41.4452 24.5386 41.5862C24.61 41.7272 24.6577 41.8682 24.6815 42.0328C24.7053 42.1973 24.7172 42.35 24.7172 42.5145C24.7172 42.6791 24.7053 42.8318 24.6815 42.9963C24.6577 43.1608 24.61 43.3136 24.5386 43.4429C24.4672 43.5839 24.3719 43.6896 24.2529 43.7836C24.1338 43.8776 23.9671 43.9129 23.7766 43.9129C23.5861 43.9129 23.4194 43.8659 23.3004 43.7836C23.1813 43.6896 23.086 43.5839 23.0146 43.4429C22.9432 43.3019 22.8955 43.1608 22.8717 42.9963C22.8479 42.8318 22.836 42.6791 22.836 42.5145C22.836 42.35 22.8479 42.1973 22.8717 42.0328C22.8955 41.8682 22.9432 41.7155 23.0146 41.5862C23.086 41.4452 23.1813 41.3394 23.3004 41.2454C23.4194 41.1514 23.5861 41.1162 23.7766 41.1162ZM23.7766 43.5486C23.8719 43.5486 23.9552 43.5251 24.0147 43.4664C24.0743 43.4076 24.1338 43.3371 24.1695 43.2431C24.2052 43.1491 24.229 43.0433 24.2529 42.9141C24.2767 42.7848 24.2767 42.6556 24.2767 42.5145C24.2767 42.3735 24.2767 42.2443 24.2529 42.115C24.229 41.9858 24.2052 41.88 24.1695 41.786C24.1338 41.692 24.0862 41.6215 24.0147 41.5627C23.9552 41.504 23.8719 41.4805 23.7766 41.4805C23.6814 41.4805 23.598 41.504 23.5385 41.5627C23.4789 41.6215 23.4194 41.692 23.3837 41.786C23.348 41.88 23.3242 41.9858 23.3004 42.115C23.2765 42.2443 23.2765 42.3735 23.2765 42.5145C23.2765 42.6556 23.2765 42.7848 23.3004 42.9141C23.3242 43.0433 23.348 43.1491 23.3837 43.2431C23.4194 43.3371 23.467 43.4076 23.5385 43.4664C23.598 43.5251 23.6814 43.5486 23.7766 43.5486Z" fill="var(--fill-0, #716E6A)"/>
<path id="Vector_24" d="M25.9317 41.1162C26.1222 41.1162 26.2889 41.1632 26.4079 41.2454C26.527 41.3394 26.6222 41.4452 26.6937 41.5862C26.7651 41.7272 26.8127 41.8682 26.8365 42.0328C26.8604 42.1973 26.8723 42.35 26.8723 42.5145C26.8723 42.6791 26.8604 42.8318 26.8365 42.9963C26.8127 43.1608 26.7651 43.3136 26.6937 43.4429C26.6222 43.5839 26.527 43.6896 26.4079 43.7836C26.2889 43.8776 26.1222 43.9129 25.9317 43.9129C25.7412 43.9129 25.5745 43.8659 25.4554 43.7836C25.3364 43.6896 25.2411 43.5839 25.1697 43.4429C25.0982 43.3019 25.0506 43.1608 25.0268 42.9963C25.003 42.8318 24.9911 42.6791 24.9911 42.5145C24.9911 42.35 25.003 42.1973 25.0268 42.0328C25.0506 41.8682 25.0982 41.7155 25.1697 41.5862C25.2411 41.4452 25.3364 41.3394 25.4554 41.2454C25.5745 41.1514 25.7412 41.1162 25.9317 41.1162ZM25.9317 43.5486C26.0269 43.5486 26.1103 43.5251 26.1698 43.4664C26.2293 43.4076 26.2889 43.3371 26.3246 43.2431C26.3603 43.1491 26.3841 43.0433 26.4079 42.9141C26.4317 42.7848 26.4317 42.6556 26.4317 42.5145C26.4317 42.3735 26.4317 42.2443 26.4079 42.115C26.3841 41.9858 26.3603 41.88 26.3246 41.786C26.2889 41.692 26.2412 41.6215 26.1698 41.5627C26.1103 41.504 26.0269 41.4805 25.9317 41.4805C25.8364 41.4805 25.7531 41.504 25.6936 41.5627C25.634 41.6215 25.5745 41.692 25.5388 41.786C25.5031 41.88 25.4792 41.9858 25.4554 42.115C25.4316 42.2443 25.4316 42.3735 25.4316 42.5145C25.4316 42.6556 25.4316 42.7848 25.4554 42.9141C25.4792 43.0433 25.5031 43.1491 25.5388 43.2431C25.5745 43.3371 25.6221 43.4076 25.6936 43.4664C25.7531 43.5251 25.8364 43.5486 25.9317 43.5486Z" fill="var(--fill-0, #716E6A)"/>
<path id="Vector_25" d="M27.5033 41.1754H28.9083V41.5632H27.8248L27.6819 42.2448C27.7415 42.186 27.8129 42.139 27.9082 42.1038C28.0034 42.0685 28.0867 42.0568 28.182 42.0568C28.313 42.0568 28.432 42.0803 28.5392 42.1273C28.6463 42.1743 28.7297 42.233 28.813 42.3153C28.8845 42.3975 28.944 42.4915 28.9797 42.5973C29.0154 42.7031 29.0392 42.8323 29.0392 42.9498C29.0392 43.0556 29.0273 43.1731 28.9916 43.2789C28.9559 43.3964 28.8964 43.5021 28.8249 43.5844C28.7535 43.6784 28.6463 43.7489 28.5273 43.8194C28.4082 43.8781 28.2653 43.9134 28.0987 43.9134C27.9677 43.9134 27.8486 43.9017 27.7296 43.8664C27.6105 43.8311 27.5153 43.7841 27.4319 43.7136C27.3486 43.6431 27.2771 43.5609 27.2295 43.4551C27.1819 43.3494 27.1462 43.2318 27.1462 43.1026H27.5867C27.5986 43.2436 27.6462 43.3611 27.7415 43.4434C27.8248 43.5256 27.9439 43.5609 28.0867 43.5609C28.182 43.5609 28.2534 43.5491 28.3249 43.5139C28.3844 43.4786 28.4439 43.4434 28.4797 43.3846C28.5154 43.3259 28.5511 43.2671 28.563 43.1966C28.5749 43.1261 28.5868 43.0438 28.5868 42.9616C28.5868 42.8911 28.5868 42.8206 28.5511 42.7501C28.5273 42.6796 28.5035 42.6208 28.4558 42.5738C28.4082 42.5268 28.3606 42.4798 28.2892 42.4563C28.2177 42.4328 28.1463 42.4093 28.0629 42.4093C27.9677 42.4093 27.8843 42.421 27.801 42.4563C27.7177 42.4915 27.6581 42.5503 27.6224 42.6561H27.1819L27.4676 41.1872L27.5033 41.1754Z" fill="var(--fill-0, #716E6A)"/>
<path id="Vector_26" d="M31.1944 43.8659H29.337C29.337 43.6426 29.3965 43.4429 29.5037 43.2784C29.6108 43.1138 29.7537 42.9728 29.9442 42.8436C30.0275 42.7848 30.1228 42.7143 30.218 42.6556C30.3133 42.5968 30.3966 42.5263 30.48 42.4558C30.5633 42.3853 30.6229 42.3148 30.6824 42.2325C30.73 42.1503 30.7657 42.0563 30.7657 41.9505C30.7657 41.9035 30.7657 41.8447 30.7538 41.7977C30.7538 41.739 30.7181 41.692 30.6824 41.645C30.6467 41.598 30.599 41.5627 30.5395 41.5275C30.48 41.4922 30.3966 41.4805 30.3014 41.4805C30.218 41.4805 30.1347 41.4922 30.0871 41.5275C30.0275 41.5627 29.9799 41.6097 29.9442 41.6685C29.9085 41.7272 29.8847 41.7977 29.8609 41.88C29.849 41.9622 29.837 42.0445 29.837 42.1503H29.3965C29.3965 41.9975 29.4203 41.8682 29.4561 41.739C29.4918 41.6097 29.5513 41.504 29.6346 41.41C29.718 41.3159 29.8132 41.2454 29.9323 41.1984C30.0514 41.1514 30.1823 41.1162 30.3371 41.1162C30.5038 41.1162 30.6467 41.1397 30.7538 41.1984C30.861 41.2572 30.9562 41.3159 31.0277 41.3982C31.0991 41.4805 31.1467 41.5745 31.1705 41.6685C31.1944 41.7625 31.2182 41.8565 31.2182 41.9387C31.2182 42.0445 31.2063 42.1385 31.1705 42.2325C31.1348 42.3265 31.0872 42.397 31.0396 42.4675C30.98 42.538 30.9205 42.6085 30.8491 42.6673C30.7776 42.7261 30.7062 42.7848 30.6229 42.8436C30.5395 42.9023 30.4681 42.9493 30.3847 42.9963C30.3014 43.0433 30.23 43.0903 30.1704 43.1373C30.099 43.1843 30.0514 43.2313 29.9918 43.2901C29.9442 43.3371 29.9085 43.3959 29.8966 43.4546H31.2182V43.8424L31.1944 43.8659Z" fill="var(--fill-0, #716E6A)"/>
<path id="Vector_27" d="M32.23 42.2913C32.3014 42.2913 32.3729 42.2913 32.4443 42.2795C32.5158 42.2678 32.5872 42.2443 32.6348 42.209C32.6944 42.1738 32.742 42.1385 32.7777 42.0798C32.8134 42.021 32.8253 41.9505 32.8253 41.8682C32.8253 41.7507 32.7896 41.6567 32.7063 41.5862C32.6229 41.5157 32.5277 41.4805 32.3967 41.4805C32.3134 41.4805 32.2538 41.4922 32.1943 41.5275C32.1348 41.5627 32.0871 41.598 32.0514 41.6567C32.0157 41.7155 31.98 41.7625 31.9681 41.833C31.9443 41.9035 31.9443 41.9622 31.9443 42.0328H31.5037C31.5037 41.9035 31.5275 41.786 31.5752 41.6685C31.6228 41.5627 31.6823 41.457 31.7538 41.3747C31.8252 41.2924 31.9205 41.2337 32.0276 41.1867C32.1348 41.1397 32.2538 41.1162 32.3967 41.1162C32.5039 41.1162 32.611 41.1279 32.7063 41.1632C32.8015 41.1984 32.8968 41.2337 32.9801 41.2924C33.0634 41.3512 33.123 41.4217 33.1825 41.5157C33.2301 41.6097 33.2539 41.7155 33.2539 41.833C33.2539 41.974 33.2182 42.0915 33.1587 42.1855C33.0992 42.2795 33.0039 42.3618 32.8729 42.4088C33.0277 42.444 33.1468 42.5263 33.242 42.6438C33.3254 42.7613 33.373 42.9141 33.373 43.0903C33.373 43.2196 33.3492 43.3371 33.2897 43.4311C33.2301 43.5251 33.1706 43.6191 33.0754 43.6896C32.992 43.7601 32.8849 43.8189 32.7658 43.8541C32.6467 43.8894 32.5277 43.9129 32.3967 43.9129C32.2419 43.9129 32.099 43.8894 31.98 43.8424C31.8609 43.7954 31.7657 43.7366 31.6823 43.6544C31.599 43.5721 31.5395 43.4781 31.5037 43.3606C31.4561 43.2431 31.4442 43.1138 31.4323 42.9728H31.8728C31.8728 43.1373 31.9085 43.2783 31.9919 43.3841C32.0752 43.4899 32.2062 43.5486 32.3848 43.5486C32.5277 43.5486 32.6586 43.5016 32.7539 43.4194C32.8491 43.3371 32.9087 43.2196 32.9087 43.0668C32.9087 42.9611 32.8849 42.8788 32.8491 42.8201C32.8015 42.7613 32.7539 42.7143 32.6824 42.6791C32.611 42.6438 32.5396 42.6321 32.4562 42.6203C32.3729 42.6203 32.2895 42.6203 32.1943 42.6203V42.2913H32.23Z" fill="var(--fill-0, #716E6A)"/>
<path id="Vector_28" d="M37.6832 47.7559H3.25051C1.45268 47.7559 0.000122134 46.3223 0.000122134 44.5479V3.20823C0.000122134 1.43384 1.45268 0.000233392 3.25051 0.000233392H37.6832C39.481 0.000233392 40.9336 1.43384 40.9336 3.20823V44.5479C40.9336 46.3106 39.481 47.7559 37.6832 47.7559ZM3.25051 0.611281C1.79796 0.611281 0.619244 1.77462 0.619244 3.20823V44.5479C0.619244 45.9816 1.79796 47.1449 3.25051 47.1449H37.6832C39.1358 47.1449 40.3145 45.9816 40.3145 44.5479V3.20823C40.3145 1.77462 39.1358 0.611281 37.6832 0.611281H3.25051Z" fill="var(--fill-0, #716E6A)"/>
</g>
<defs>
<clipPath id="clip0_0_226">
<rect width="40.9335" height="47.7557" fill="white"/>
</clipPath>
</defs>
</svg>
