<svg preserveAspectRatio="none" width="100%" height="100%" overflow="visible" style="display: block;" viewBox="0 0 63.3983 63.3983" fill="none" xmlns="http://www.w3.org/2000/svg">
<g id="Group 1000004959">
<path id="Vector" d="M31.6991 62.5779C48.753 62.5779 62.5779 48.753 62.5779 31.6991C62.5779 14.6452 48.753 0.820339 31.6991 0.820339C14.6452 0.820339 0.820339 14.6452 0.820339 31.6991C0.820339 48.753 14.6452 62.5779 31.6991 62.5779Z" stroke="var(--stroke-0, #666460)" stroke-width="1.64068" stroke-miterlimit="10"/>
<g id="Group 1000004958">
<path id="Vector_2" d="M14.5996 28.6803V30.8183C14.6486 31.9319 14.7466 34.003 16.4518 35.6065C18.0493 37.0875 20.6659 37.8224 24.4095 37.8224C25.0759 37.8224 25.7717 37.8224 26.5165 37.7556C23.0277 38.6353 19.0391 40.4281 18.6373 43.9914C18.1865 48.0224 18.5785 50.1603 19.9015 50.7394C20.1171 50.8285 20.3425 50.8841 20.5777 50.8841C21.6949 50.8841 23.6451 49.804 27.4966 44.7375C29.4664 42.1541 31.2206 39.437 31.9066 38.3458C32.5926 39.437 34.3468 42.1541 36.3166 44.7375C40.1681 49.804 42.1085 50.8841 43.2355 50.8841C43.4707 50.8841 43.6961 50.8396 43.9117 50.7394C45.2151 50.1715 45.5973 48.0224 45.1759 43.9914C44.7447 40.4281 40.7561 38.6353 37.2868 37.7333C38.0121 37.7779 38.7177 37.8002 39.3939 37.8002C43.1277 37.8002 45.7541 37.0652 47.3515 35.5842C49.0372 34.003 49.1548 31.9207 49.2038 30.7961C49.2332 30.1279 49.2332 29.4153 49.2038 28.6581C49.1842 26.1526 49.1548 23.302 50.4484 19.8166C51.1638 17.868 50.9874 16.2311 49.9682 15.318C48.1453 13.7034 44.3135 14.9839 39.9623 18.6697C34.6604 23.1461 32.6416 29.9943 31.8968 33.7469C31.152 29.9943 29.1234 23.135 23.8411 18.6697C19.4801 14.9951 15.6482 13.7145 13.8254 15.318C12.8062 16.2422 12.62 17.9014 13.3256 19.8166C14.6192 23.302 14.5898 26.1526 14.5898 28.6803H14.5996ZM44.0685 44.1473C44.5683 48.6125 43.8333 49.4477 43.5001 49.5924C43.4021 49.6258 43.2943 49.6481 43.1963 49.6481C41.2265 49.6481 36.444 43.4235 33.1218 38.2122C36.8164 38.6353 43.6275 40.2165 44.0685 44.1473ZM40.5895 19.6496C44.9995 15.9193 48.1355 15.2734 49.2822 16.2979C49.8898 16.8435 49.9486 17.9571 49.4292 19.3601C48.0669 23.0682 48.0964 26.186 48.116 28.7026V30.7626C48.0571 32.0432 47.8905 33.5131 46.6557 34.66C44.4899 36.6755 39.7761 37.1209 32.622 35.9962C32.916 33.6578 34.4644 24.8387 40.5699 19.6608L40.5895 19.6496ZM20.2739 49.5924C19.9407 49.4477 19.2057 48.6348 19.7055 44.1473C20.1269 40.2165 26.9477 38.6353 30.6718 38.2122C27.1535 43.7019 22.0183 50.3608 20.2739 49.5924ZM14.4918 16.2868C14.8936 15.975 15.3836 15.8191 15.8736 15.8525C17.4613 15.8525 19.9897 16.9326 23.1943 19.6385C29.2998 24.8053 30.858 33.6356 31.1618 35.9628C24.0175 37.0875 19.2939 36.6421 17.1281 34.6266C15.8932 33.4797 15.7266 32.0098 15.6678 30.7292C15.6384 30.0945 15.6384 29.4041 15.6678 28.6692C15.6874 26.1638 15.7168 23.0347 14.3546 19.3267C13.8156 17.9236 13.8744 16.8101 14.4918 16.2645V16.2868Z" fill="var(--fill-0, #666460)" stroke="var(--stroke-0, #666460)" stroke-width="0.345262"/>
</g>
</g>
</svg>
