<svg preserveAspectRatio="none" width="100%" height="100%" overflow="visible" style="display: block;" viewBox="0 0 78.0508 56.718" fill="none" xmlns="http://www.w3.org/2000/svg">
<g id="Group 1000004349">
<path id="Vector" d="M69.5656 20.3272L74.2417 20.2118C71.817 16.0552 68.6419 12.1873 64.6586 8.95441C55.3065 1.50724 43.7029 -1.2638 32.7344 0.525826C42.2597 0.0639861 52.0737 2.95049 60.1557 9.47398C64.0236 12.5914 67.1987 16.2861 69.5656 20.3849V20.3272Z" fill="var(--fill-0, #666460)"/>
<path id="Vector_2" d="M21.072 44.5737L16.6846 46.0747C20.2638 49.3653 24.478 52.0209 29.2695 53.926C40.4113 58.3135 52.3035 57.3321 62.1752 52.3673C53.2271 55.7156 43.0091 55.9465 33.3683 52.1364C28.6922 50.4045 24.5935 47.8066 21.072 44.6315V44.5737Z" fill="var(--fill-0, #666460)"/>
<path id="Vector_3" d="M38.9678 13.3986C40.1801 13.2831 40.8151 12.7635 44.048 13.3986C44.048 13.3986 48.4354 13.1676 56.5752 20.8457C58.9998 23.1549 60.3276 26.9074 61.5976 27.2538C62.6945 27.6001 67.8901 27.8888 68.2365 29.9671C68.4674 31.699 64.9459 35.1628 60.674 34.8741C61.4245 33.7195 63.9645 33.4309 65.1191 30.3712C63.7913 29.563 61.6554 29.4475 59.6926 30.0248C55.9402 21.3653 45.0294 15.3614 41.2192 14.8995C38.1019 14.4954 36.9473 15.015 34.9268 14.8995C36.2545 14.4954 38.275 13.3986 38.9678 13.3986Z" fill="var(--fill-0, #666460)"/>
<path id="Vector_4" d="M25.2866 2.8934C26.7875 2.8934 27.3071 2.89341 28.808 3.81708L25.2866 4.10573C25.2866 4.10573 21.13 5.14487 19.4559 8.49321C20.1487 9.07051 20.1487 9.18597 20.8991 9.2437C22.1114 9.2437 25.0556 5.31806 30.1935 5.31806C31.1749 5.31806 31.9831 5.72217 32.0409 5.66444C32.5604 6.01082 32.3872 6.53039 32.3872 7.22315C32.3872 7.22315 29.0967 14.7858 23.4392 14.7858H22.1692C25.8061 13.9198 28.4039 10.5138 30.309 7.28088L26.4989 8.37775C23.8433 9.12824 20.9569 11.5529 19.9755 11.5529C18.8786 11.5529 18.1281 10.5715 15.0685 10.5715C12.7016 10.5715 10.046 11.8416 8.776 12.7075C9.35329 13.9776 10.5656 13.4003 11.4893 13.2848C11.4893 13.2848 11.1429 14.4394 8.25644 14.6703C8.25644 14.7858 8.89146 17.1527 10.3924 18.6537C12.182 20.4433 14.8953 21.4247 15.819 21.4247C15.819 21.8288 15.9921 23.3298 17.089 25.3504C21.5919 34.0676 24.0742 26.9091 29.5008 35.5686V36.55C26.5566 34.1253 21.996 33.2594 19.5136 32.8553C15.9921 32.3357 12.3552 32.8553 12.2398 32.8553C10.9697 33.1439 7.56369 33.8367 7.56369 33.8367C10.277 30.5461 16.7426 30.4306 17.9549 29.911C13.683 25.639 14.2025 24.2535 13.683 23.6185C13.2789 23.0989 7.10185 22.4061 7.15958 13.8621C7.15958 10.8024 12.9902 8.49321 14.953 8.49321C18.359 8.60867 19.5714 2.77794 25.3443 2.72021L25.2866 2.8934Z" fill="var(--fill-0, #666460)"/>
<path id="Vector_5" d="M16.1092 11.958C16.9174 11.8426 16.8019 11.8426 17.8988 12.2467V13.2858C16.8597 13.0549 15.301 13.2858 13.6846 13.1126C14.5505 12.4776 14.7814 12.0735 16.1092 11.958Z" fill="var(--fill-0, #666460)"/>
<path id="Vector_6" d="M5.25336 23.445C7.67798 23.445 10.7954 25.4655 11.084 25.6964C9.46759 25.8119 9.23667 25.5232 5.542 25.8119C5.542 25.8119 2.42463 25.9851 0 26.5046C1.73188 24.1377 1.3855 23.3872 5.25336 23.445Z" fill="var(--fill-0, #666460)"/>
<path id="Vector_7" d="M52.4177 40.4177L56.4588 42.3228C61.1926 44.632 65.6955 38.5703 67.4273 37.4735C68.1778 41.3414 71.9879 49.0772 77.4722 50.5782C76.7217 51.5019 75.7981 51.3864 74.7589 51.3864C72.1034 51.3864 67.0809 47.0567 67.0809 43.766C67.0809 43.766 66.9655 41.2837 66.9655 40.7641C65.4645 43.7083 62.3472 45.5557 59.6916 45.5557C57.6711 45.5557 57.267 45.4402 55.4774 44.5743C55.0733 44.4011 45.548 38.5703 45.0284 34.4715C45.4902 34.6447 50.3395 39.6095 52.4177 40.4177Z" fill="var(--fill-0, #666460)"/>
<path id="Vector_8" d="M69.39 53.8681L67.8313 54.0991C63.9635 53.464 63.2707 47.8642 64.3676 46.3055C64.3676 46.3055 65.0603 45.1509 65.6376 44.6313C65.7531 47.4024 66.0417 49.5961 66.2726 50.1734C66.9654 51.7321 65.8108 51.0394 69.4477 53.8104L69.39 53.8681Z" fill="var(--fill-0, #666460)"/>
<path id="Vector_9" d="M17.2023 44.631L14.9509 42.1486L11.8335 43.361C12.3531 42.3796 13.1036 41.5136 13.6231 40.4745C12.9304 39.6085 12.2376 38.7426 11.4871 37.8766C12.5263 38.1075 13.7963 38.3962 14.8354 38.6848L16.625 35.8561C16.7405 36.8952 16.7982 38.0498 16.9137 39.1467L20.2043 40.0704L16.9714 41.3404L17.1446 44.631H17.2023Z" fill="var(--fill-0, #666460)"/>
<path id="Vector_10" d="M76.6075 29.9105L73.6633 28.2364L71.0655 30.3724C71.2387 29.2755 71.6428 28.2364 71.816 27.0818C70.8923 26.4467 69.9686 25.8694 68.9872 25.2344C70.0841 25.1189 71.3541 25.0035 72.451 24.9458L73.2592 21.7129C73.721 22.6943 74.1251 23.7911 74.587 24.7726L78.0507 24.5994L75.3952 26.8508L76.5498 29.9105H76.6075Z" fill="var(--fill-0, #666460)"/>
</g>
</svg>
