<svg preserveAspectRatio="none" width="100%" height="100%" overflow="visible" style="display: block;" viewBox="0 0 61.7533 61.7533" fill="none" xmlns="http://www.w3.org/2000/svg">
<g id="Group 1000004355">
<path id="Vector" d="M30.8767 0C13.8491 0 0 13.8491 0 30.8767C0 47.9042 13.8491 61.7533 30.8767 61.7533C47.9042 61.7533 61.7533 47.9042 61.7533 30.8767C61.7533 13.8491 47.961 0 30.8767 0ZM30.8767 60.2209C14.7005 60.2209 1.53248 47.0529 1.53248 30.8767C1.53248 14.7005 14.7005 1.53248 30.8767 1.53248C47.0529 1.53248 60.2209 14.7005 60.2209 30.8767C60.2209 47.0529 47.0529 60.2209 30.8767 60.2209Z" fill="var(--fill-0, #666460)"/>
<path id="Vector_2" d="M31.3888 9.19637C31.3888 9.19637 30.7077 8.96934 30.4239 9.19637C29.7996 9.7072 15.3829 21.4562 15.3829 32.5809C15.3829 40.8677 21.9669 47.6787 30.1401 48.076V51.9923C30.1401 52.4464 30.4807 52.787 30.9348 52.787C31.3888 52.787 31.7294 52.4464 31.7294 51.9923V48.076C39.9594 47.6787 46.4866 40.8677 46.4866 32.5809C46.4866 21.513 32.0699 9.7072 31.4456 9.19637H31.3888ZM31.6726 46.5435V41.2082C34.397 40.9812 36.8944 39.5055 38.4269 37.2351C38.6539 36.8946 38.5404 36.3837 38.1999 36.1567C37.8593 35.9297 37.3485 36.0432 37.1215 36.3837C35.8728 38.2568 33.8862 39.4487 31.6726 39.6757V30.9349C33.5457 30.7079 35.2484 29.6862 36.2701 28.097C36.4971 27.7564 36.3836 27.2456 36.043 27.0186C35.7025 26.7915 35.1917 26.905 34.9646 27.2456C34.17 28.3808 32.9781 29.1754 31.6159 29.4024V21.6265C31.6159 21.1724 31.2753 20.8319 30.8213 20.8319C30.3672 20.8319 30.0266 21.1724 30.0266 21.6265V29.4024C28.6644 29.1754 27.4725 28.4375 26.6779 27.2456C26.4508 26.905 25.94 26.7915 25.5995 27.0186C25.2589 27.2456 25.1454 27.7564 25.3724 28.097C26.4508 29.6862 28.1536 30.7079 29.9699 30.9349V39.6757C27.7563 39.4487 25.7697 38.2568 24.521 36.3837C24.294 36.0432 23.7832 35.9297 23.4426 36.1567C23.1021 36.3837 22.9886 36.8946 23.2156 37.2351C24.7481 39.5622 27.2455 40.9812 29.9699 41.2082V46.5435C22.5913 46.1462 16.7451 40.0163 16.7451 32.5809C16.7451 23.3293 28.2104 12.9992 30.7645 10.8424C33.2619 12.9992 44.7839 23.3293 44.7839 32.5809C44.7839 40.0163 38.9377 46.1462 31.5591 46.5435H31.6726Z" fill="var(--fill-0, #666460)"/>
</g>
</svg>
