<svg preserveAspectRatio="none" width="100%" height="100%" overflow="visible" style="display: block;" viewBox="0 0 65.4278 65.4279" fill="none" xmlns="http://www.w3.org/2000/svg">
<g id="Group 1000004353">
<path id="Vector" d="M39.2709 25.7979V20.1452H37.2865V16.2965C37.2865 15.2742 36.4446 14.4924 35.4824 14.4924H32.8364C31.8742 14.4924 31.1526 15.2742 31.0925 16.1762H29.108L22.6133 12.3876C20.9295 11.4255 18.945 11.4255 17.2612 12.3876C15.5774 13.3498 14.6152 15.0938 14.6152 17.0181C14.6152 18.9425 15.6376 20.6864 17.2612 21.6486C18.1031 22.1297 19.0052 22.3702 19.9072 22.3702C20.8092 22.3702 21.7113 22.1297 22.5532 21.6486L29.0478 17.86H30.9722V20.1452H28.4465V25.7378C21.8315 28.023 17.4416 34.0967 17.4416 41.0724C17.4416 50.8145 26.1012 50.8145 33.7384 50.8145C41.3757 50.8145 50.0353 50.8145 50.0353 41.0724C50.0353 34.1568 45.7055 28.0831 39.1507 25.7979H39.2709ZM21.7113 20.1452C20.5687 20.8067 19.2457 20.8067 18.1031 20.1452C16.9605 19.4837 16.299 18.3411 16.299 17.0181C16.299 15.6951 16.9605 14.5525 18.1031 13.891C18.6443 13.5302 19.3058 13.41 19.9072 13.41C20.5086 13.41 21.1701 13.5904 21.7113 13.891L27.1235 17.0181L21.7113 20.1452ZM32.8364 16.1762H35.4824L35.6027 16.2965V20.1452H32.7763L32.8965 16.1762H32.8364ZM33.8587 49.1307C24.7782 49.1307 19.2457 48.5894 19.2457 41.0724C19.2457 34.6379 23.3951 29.0453 29.6492 27.1811L30.2506 27.0007V21.8891H31.0323H37.2865H37.527V27.0608L38.1284 27.2412C44.2622 29.1656 48.4116 34.7582 48.4116 41.1326C48.4116 48.6496 42.8791 49.1908 33.7986 49.1908L33.8587 49.1307Z" fill="var(--fill-0, #666460)"/>
<path id="Vector_2" d="M32.7139 7.16587e-05C14.6731 7.16587e-05 0 14.6732 0 32.714C0 50.7547 14.6731 65.4279 32.7139 65.4279C50.7547 65.4279 65.4278 50.7547 65.4278 32.714C65.4278 14.6732 50.7547 7.16587e-05 32.7139 7.16587e-05ZM32.7139 63.8042C15.5752 63.8042 1.62367 49.8527 1.62367 32.714C1.62367 15.5753 15.5752 1.62374 32.7139 1.62374C49.8526 1.62374 63.8041 15.5753 63.8041 32.714C63.8041 49.8527 49.8526 63.8042 32.7139 63.8042Z" fill="var(--fill-0, #666460)"/>
<path id="Vector_3" d="M10.7643 55.385L9.56153 54.1823L54.0621 9.62158L55.2648 10.8243L10.7643 55.385Z" fill="var(--fill-0, #666460)"/>
</g>
</svg>
