<svg preserveAspectRatio="none" width="100%" height="100%" overflow="visible" style="display: block;" viewBox="0 0 63.3983 63.3983" fill="none" xmlns="http://www.w3.org/2000/svg">
<g id="Group 1000006119">
<path id="Vector" d="M31.6991 62.5779C48.753 62.5779 62.5779 48.753 62.5779 31.6991C62.5779 14.6452 48.753 0.820339 31.6991 0.820339C14.6452 0.820339 0.820339 14.6452 0.820339 31.6991C0.820339 48.753 14.6452 62.5779 31.6991 62.5779Z" stroke="var(--stroke-0, #666460)" stroke-width="1.64068" stroke-miterlimit="10"/>
<path id="Vector_2" d="M37.3564 51.187C36.0649 51.4452 34.8092 51.5503 33.6328 51.5503C32.8902 51.5503 32.1821 51.5086 31.5195 51.4429C33.1949 51.6015 35.2208 51.6037 37.3564 51.187ZM31.5048 51.4409C29.8922 51.2798 28.5514 50.968 27.6474 50.7115L28.3759 50.6382C29.3925 50.5353 30.3863 50.3204 31.3506 50.0122L31.5048 51.4409ZM16.8584 46.8892C18.9513 48.5546 22.3817 50.6027 26.6767 50.689L26.6933 50.6978C22.3841 50.6228 18.978 48.6012 16.8584 46.8892ZM50.1738 39.7866C49.2417 42.3288 47.827 44.6813 45.8994 46.6177C47.6903 44.7673 49.1628 42.4128 50.1738 39.7866ZM37.9433 32.8091C37.2698 33.5871 36.5045 34.6703 35.9121 36.0396L34.9589 35.4029L34.8252 35.2359C35.285 34.8667 35.7433 34.5204 36.2041 34.1743C36.7864 33.7381 37.3699 33.2998 37.9433 32.8091ZM51.5068 30.4331C51.5883 31.7904 51.5532 33.1672 51.3994 34.5347L50.1777 34.0806C50.3242 33.86 50.4658 33.6243 50.5986 33.3726C51.0745 32.4742 51.3864 31.4607 51.5068 30.4331ZM43.7109 15.8081C43.7613 15.8441 43.8123 15.8792 43.8623 15.9156C43.8122 15.8793 43.7614 15.844 43.7109 15.8081Z" fill="var(--fill-0, #666460)" stroke="var(--stroke-0, #666460)" stroke-width="1.47042"/>
<path id="Vector 194" d="M14.0556 25.082L17.7317 29.4932L29.495 16.9947" stroke="var(--stroke-0, #666460)" stroke-width="1.47042" stroke-miterlimit="10" stroke-linecap="round"/>
</g>
</svg>
