<svg preserveAspectRatio="none" width="100%" height="100%" overflow="visible" style="display: block;" viewBox="0 0 63.3983 63.3983" fill="none" xmlns="http://www.w3.org/2000/svg">
<g id="Group 1000006118">
<path id="Vector" d="M31.6991 62.5779C48.753 62.5779 62.5779 48.753 62.5779 31.6991C62.5779 14.6452 48.753 0.820339 31.6991 0.820339C14.6452 0.820339 0.820339 14.6452 0.820339 31.6991C0.820339 48.753 14.6452 62.5779 31.6991 62.5779Z" stroke="var(--stroke-0, #666460)" stroke-width="1.64068" stroke-miterlimit="10"/>
<path id="Vector_2" d="M31.964 55.2243C44.9574 55.2243 55.4907 44.691 55.4907 31.6976C55.4907 18.7041 44.9574 8.17085 31.964 8.17085C18.9706 8.17085 8.43731 18.7041 8.43731 31.6976C8.43731 44.691 18.9706 55.2243 31.964 55.2243Z" stroke="var(--stroke-0, #666460)" stroke-width="1.99225" stroke-miterlimit="10" stroke-linecap="round" stroke-linejoin="round" stroke-dasharray="0.15 7.35"/>
<g id="Group 1000004960">
<path id="Vector 193" d="M27.2424 32.4316L30.9184 36.8428L42.6818 24.3443" stroke="var(--stroke-0, #666460)" stroke-width="1.47042" stroke-miterlimit="10" stroke-linecap="round"/>
<path id="Vector_3" d="M30.8689 44.9316C28.1577 44.9316 25.6774 44.0627 23.8027 42.4605L23.4854 42.189C17.9478 37.0296 20.5435 27.254 30.4939 16.012L30.9265 15.5232L31.3592 16.012C41.2807 27.2268 43.9053 37.0025 38.3388 42.1618C36.4641 43.8997 33.753 44.9045 30.9265 44.9316H30.8689ZM30.9265 17.234C21.9279 27.607 19.3899 36.8396 24.3218 41.4015L24.6102 41.6731C26.2542 43.0851 28.475 43.8726 30.8977 43.8726H30.9265C33.4646 43.8726 35.8585 42.9765 37.5313 41.4287C42.4632 36.8667 39.9251 27.6342 30.9265 17.2611V17.234Z" fill="var(--fill-0, #666460)"/>
</g>
</g>
</svg>
