<svg preserveAspectRatio="none" width="100%" height="100%" overflow="visible" style="display: block;" viewBox="0 0 64.6452 64.0441" fill="none" xmlns="http://www.w3.org/2000/svg">
<g id="Group 1000004350">
<path id="Vector" d="M36.0202 64.0441C35.3587 64.0441 35.2385 63.6832 35.1783 63.563C35.0581 63.2623 35.0581 63.0218 35.1783 62.7812C35.2986 62.5407 35.5993 62.3603 35.9601 62.3001C40.1095 61.819 43.9583 60.5562 47.5664 58.4515C52.9186 55.3846 57.0079 50.9947 59.7741 45.4021C61.037 42.8163 61.939 40.0501 62.4201 37.2237C62.9614 33.9764 63.0215 30.669 62.5404 27.4217C61.8789 23.0318 60.3154 19.0027 57.97 15.3946C54.5423 10.1629 49.9118 6.25407 44.1988 3.84866C41.5528 2.76622 38.8467 1.98446 36.0804 1.68379C35.6594 1.68379 35.3587 1.44325 35.1783 1.14257C34.9979 0.841894 35.1783 0.541217 35.2385 0.360812C35.479 0 35.6594 0 35.7797 0C36.7419 0 37.6439 0.180406 38.4257 0.360812C40.6508 0.781758 42.8157 1.38311 44.8603 2.28514C49.4307 4.20947 53.3395 7.03583 56.5268 10.6439C58.9322 13.4102 60.9167 16.5372 62.2999 19.9649C63.2019 22.25 63.8033 24.4149 64.1641 26.5197L64.6452 29.4663V30.4284V31.8717C64.6452 32.6534 64.6452 33.3751 64.6452 34.1568L64.3445 36.3217C63.9235 39.7494 62.9012 43.1771 61.2174 46.4244C59.1728 50.5136 56.3464 54.0015 52.7983 56.9481C49.9719 59.2332 46.7847 61.0974 43.2968 62.3603C41.0717 63.142 38.7264 63.6832 36.3209 63.9839H36.0804L36.0202 64.0441Z" fill="var(--fill-0, #666460)"/>
<path id="Vector_2" d="M28.8054 63.9828C27.9635 63.9828 27.1216 63.8024 26.2195 63.6821C23.9945 63.2611 21.8897 62.6598 19.9052 61.8179C17.1991 60.6753 14.6132 59.1719 12.2679 57.3679C9.44147 55.1429 7.03601 52.4969 5.05151 49.43C3.66837 47.2652 2.58592 44.98 1.74401 42.6347C1.08251 40.7104 0.601414 38.7259 0.240596 36.4408C0.240596 35.4786 0.240596 34.8172 0.120323 34.2158C5.0111e-05 33.434 5.0111e-05 33.0732 5.0111e-05 32.7726V29.4651C0.240596 27.3604 0.541278 25.6165 1.08251 23.7523C1.86428 20.8056 3.06701 17.9793 4.63055 15.3333C7.81779 10.1617 12.0875 6.13263 17.4396 3.36641C19.7849 2.1637 22.1904 1.26167 24.656 0.720456C25.8587 0.41978 27.1216 0.239374 28.3243 0.0589685C28.3243 0.0589685 28.3844 0.0589685 28.4446 0.0589685C29.0459 0.0589685 29.2264 0.239374 29.4068 0.540051C29.527 0.780592 29.527 1.02113 29.4068 1.26167C29.2264 1.56235 28.9257 1.74276 28.5649 1.74276C25.3175 2.10357 22.1303 3.0056 19.1836 4.44884C12.8091 7.51574 7.93806 12.3266 4.81096 18.7009C3.48796 21.3469 2.58592 24.2935 2.10483 27.3604C1.62373 30.307 1.62373 33.1935 1.98455 36.0199C2.82646 42.0935 5.23192 47.4456 9.14079 51.9557C12.5084 55.8044 16.6578 58.751 21.4688 60.555C23.6938 61.3969 26.0391 61.9382 28.3844 62.2388C29.1662 62.299 29.2865 62.5395 29.4068 62.9003C29.527 63.1409 29.4068 63.4415 29.2865 63.7422C29.0459 64.0429 28.8655 64.0429 28.8054 64.0429V63.9828Z" fill="var(--fill-0, #666460)"/>
<path id="Vector_3" d="M32.2905 45.5816C29.5242 45.5816 26.8782 44.7397 24.5329 43.0559C22.2477 41.4323 20.5639 39.2073 19.6017 36.5012C18.7598 34.1559 18.5794 31.7505 19.0605 29.4052C19.9626 25.0153 22.4282 21.8282 26.3972 19.7836C28.2614 18.8214 30.2459 18.3403 32.2905 18.3403C33.0723 18.3403 33.7939 18.4005 34.5757 18.5207C39.3866 19.3626 42.7543 22.0086 44.7989 26.6991C45.4604 28.2025 45.8212 29.9464 45.8212 31.8708C45.8212 32.1714 45.701 32.4721 45.5205 32.7127C45.28 32.9532 44.9793 33.0735 44.6185 33.0735H30.2459C29.7648 33.0735 29.2236 32.9532 28.983 32.2917C28.8627 31.9309 28.983 31.5701 29.1634 31.2694C29.404 30.9687 29.7047 30.7883 30.0655 30.7883H44.1374L43.1151 28.1424C42.9948 27.8417 42.8745 27.541 42.7543 27.2404C41.4313 24.414 39.3265 22.4897 36.5001 21.4072C35.1771 20.866 33.7338 20.6255 32.3507 20.6255C28.6823 20.6255 25.3748 22.3694 23.2099 25.3762C21.4058 27.9018 20.6842 30.8485 21.2254 33.7951C22.0673 38.3654 24.8336 41.4924 29.2236 42.8154C30.3662 43.1762 31.5088 43.2965 32.5912 43.2965C35.1169 43.2965 37.4623 42.3944 39.6272 40.6505C39.988 40.3498 40.2887 40.2296 40.5894 40.2296C40.7698 40.2296 40.9502 40.2897 41.1907 40.41C41.4914 40.5904 41.6718 40.8911 41.6718 41.2519C41.6718 41.6127 41.6117 41.9134 41.3711 42.1539C39.6272 43.7174 37.6427 44.7397 35.4176 45.1607C34.3352 45.4012 33.2527 45.5215 32.2304 45.5215L32.2905 45.5816Z" fill="var(--fill-0, #666460)"/>
<path id="Vector_4" d="M54.1823 29.4648C53.7613 29.4648 53.4606 29.2242 53.3404 28.8634L53.0397 27.5404C52.9194 26.8789 52.739 26.1573 52.4985 25.4958C51.5363 22.4289 49.9126 19.6627 47.6274 17.2573C45.4024 14.912 42.7564 13.1681 39.6894 12.0857C37.2238 11.1235 34.6981 10.7627 31.3906 10.7627C26.5797 10.883 21.8289 12.8674 18.1004 16.1749C15.274 18.6404 13.2895 21.7073 12.0868 25.2553C11.726 26.2776 11.4854 27.36 11.305 28.5627C11.305 28.8033 11.1847 29.1641 10.8841 29.3445L10.1023 29.4648C9.56105 28.9235 9.50092 28.5627 9.56105 28.262C9.98201 26.037 10.5232 24.233 11.305 22.6093C13.2895 18.2195 16.3565 14.7917 20.4457 12.3262C22.4904 11.0634 24.7756 10.1613 27.181 9.62012C28.8649 9.19917 30.6088 9.01876 32.3528 9.01876C33.2548 9.01876 34.1569 9.01876 35.0589 9.19917C37.4644 9.49985 39.7495 10.1613 41.8543 11.1235C46.7855 13.4086 50.514 17.0168 52.9194 21.8877C53.9417 23.9323 54.6634 26.1573 55.0242 28.5627C55.0843 28.9837 54.7837 29.4648 54.4228 29.5249H54.1823V29.4648Z" fill="var(--fill-0, #666460)"/>
<path id="Vector_5" d="M32.5339 55.0232C27.4223 54.9631 23.0925 53.6401 19.2437 50.934C15.4552 48.2881 12.6287 44.8002 10.9449 40.5306C10.2834 38.8469 9.86247 37.4036 9.68206 36.0205C9.62192 35.359 10.103 35.1185 10.2834 35.1185H10.4037C11.0652 35.1185 11.3057 35.359 11.3659 35.78C12.0875 39.4482 13.5909 42.6354 15.7558 45.4016C17.9809 48.1678 20.8073 50.2726 24.0547 51.6557C26.7007 52.7982 29.4068 53.3395 32.0528 53.3395C32.594 53.3395 33.1353 53.3395 33.6765 53.2793C38.6678 52.9185 43.0578 51.0543 46.666 47.6867C49.6126 44.9807 51.6573 41.6732 52.6796 37.8847C52.86 37.2232 53.0404 36.5617 53.1607 35.8401C53.281 35.359 53.5816 35.1185 54.0627 35.1185L54.7242 35.4191C54.7242 35.4191 54.9047 35.8401 54.9047 36.0806C54.4837 38.6063 53.6418 41.0719 52.3188 43.4171C49.6728 48.0476 45.7639 51.4753 40.7125 53.5199C38.1867 54.5422 35.3603 55.0834 32.4738 55.1435L32.5339 55.0232Z" fill="var(--fill-0, #666460)"/>
</g>
</svg>
