<svg preserveAspectRatio="none" width="100%" height="100%" overflow="visible" style="display: block;" viewBox="0 0 64.9617 64.9617" fill="none" xmlns="http://www.w3.org/2000/svg">
<g id="Group 1000005962">
<path id="Vector" d="M32.4809 64.1414C49.9665 64.1414 64.1414 49.9665 64.1414 32.4809C64.1414 14.9952 49.9665 0.820339 32.4809 0.820339C14.9952 0.820339 0.820339 14.9952 0.820339 32.4809C0.820339 49.9665 14.9952 64.1414 32.4809 64.1414Z" stroke="var(--stroke-0, #666460)" stroke-width="1.64068" stroke-miterlimit="10"/>
<path id="Vector_2" d="M36.6373 17.642C43.9156 19.4889 49.3015 26.0848 49.3015 33.9363C49.3015 43.2252 41.7685 50.7582 32.4796 50.7582C25.5561 50.7582 19.6061 46.5641 17.0314 40.5868" stroke="var(--stroke-0, #666460)" stroke-width="1.46736" stroke-miterlimit="10"/>
<path id="Vector_3" d="M25.7373 53.3599H39.2294" stroke="var(--stroke-0, #666460)" stroke-width="1.46736" stroke-miterlimit="10"/>
<path id="Vector_4" d="M10.7432 40.5865H21.9335" stroke="var(--stroke-0, #666460)" stroke-width="1.46736" stroke-miterlimit="10"/>
<g id="Group">
<path id="Vector_5" d="M39.0877 15.1729L35.0155 11.1007L17.3758 28.7404L21.448 32.8126L39.0877 15.1729Z" stroke="var(--stroke-0, #666460)" stroke-width="1.46736" stroke-miterlimit="10"/>
<path id="Vector_6" d="M40.6903 12.1688L38.0205 9.49905L35.7175 11.8021L38.3872 14.4719L40.6903 12.1688Z" stroke="var(--stroke-0, #666460)" stroke-width="1.46736" stroke-miterlimit="10"/>
<path id="Vector_7" d="M20.7539 32.1117L18.0841 29.442L16.3407 31.1853L19.0105 33.8551L20.7539 32.1117Z" stroke="var(--stroke-0, #666460)" stroke-width="1.46736" stroke-miterlimit="10"/>
</g>
</g>
</svg>
