<svg preserveAspectRatio="none" width="100%" height="100%" overflow="visible" style="display: block;" viewBox="0 0 45.5827 45.5827" fill="none" xmlns="http://www.w3.org/2000/svg">
<g id="Group 1000006119">
<path id="Vector" d="M22.7913 44.9929C35.0529 44.9929 44.9929 35.0529 44.9929 22.7913C44.9929 10.5298 35.0529 0.589815 22.7913 0.589815C10.5298 0.589815 0.589815 10.5298 0.589815 22.7913C0.589815 35.0529 10.5298 44.9929 22.7913 44.9929Z" stroke="var(--stroke-0, #666460)" stroke-width="1.17963" stroke-miterlimit="10"/>
<path id="Vector_2" d="M27.1797 36.7358C26.1386 36.9722 25.1245 37.0639 24.1816 37.0639C23.836 37.0639 23.5005 37.0481 23.1777 37.0268C24.3609 37.1008 25.7413 37.0546 27.1797 36.7358ZM23.042 37.018C22.933 37.0099 22.8256 37.0008 22.7197 36.9907C22.8253 37.0003 22.9327 37.0103 23.042 37.018ZM22.6504 36.9838C21.4897 36.8678 20.5248 36.6449 19.875 36.4604L20.4014 36.4086C21.1322 36.3347 21.8468 36.18 22.54 35.9584L22.6504 36.9838ZM12.4365 33.9584C13.96 35.1032 16.3009 36.3886 19.1826 36.4457L19.1943 36.4516C16.3 36.402 13.9733 35.1293 12.4365 33.9584ZM12.2031 33.7778C12.1663 33.7485 12.1295 33.7199 12.0938 33.6909C12.1297 33.7196 12.1661 33.7487 12.2031 33.7778ZM36.0801 28.5893C35.408 30.4289 34.3847 32.1309 32.9883 33.5297C34.2852 32.1935 35.3507 30.4901 36.0801 28.5893ZM27.2881 23.5834C26.8023 24.1433 26.2471 24.923 25.8193 25.9116L25.1357 25.4555L25.0391 25.3344C25.0889 25.2944 25.1377 25.2536 25.1875 25.2143L26.0303 24.5717C26.4515 24.2562 26.8734 23.9388 27.2881 23.5834ZM37.0332 21.8774C37.0921 22.8542 37.0657 23.8453 36.9551 24.8295L36.0742 24.5024C36.1412 24.4016 36.2102 24.2987 36.2734 24.1889L36.3799 23.9956C36.7228 23.3484 36.947 22.6177 37.0332 21.8774ZM31.3672 11.3227C31.4307 11.3675 31.4942 11.4119 31.5566 11.4575C31.4941 11.412 31.4308 11.3673 31.3672 11.3227Z" fill="var(--fill-0, #666460)" stroke="var(--stroke-0, #666460)" stroke-width="1.05722"/>
<path id="Vector 194" d="M10.1055 18.0335L12.7485 21.2052L21.2062 12.2188" stroke="var(--stroke-0, #666460)" stroke-width="1.05722" stroke-miterlimit="10" stroke-linecap="round"/>
</g>
</svg>
