<svg preserveAspectRatio="none" width="100%" height="100%" overflow="visible" style="display: block;" viewBox="0 0 44.4 44.4" fill="none" xmlns="http://www.w3.org/2000/svg">
<g id="Group 1000004355">
<path id="Vector" d="M22.2 0C9.95735 0 0 9.95735 0 22.2C0 34.4426 9.95735 44.4 22.2 44.4C34.4426 44.4 44.4 34.4426 44.4 22.2C44.4 9.95735 34.4835 0 22.2 0ZM22.2 43.2982C10.5695 43.2982 1.10184 33.8305 1.10184 22.2C1.10184 10.5695 10.5695 1.10184 22.2 1.10184C33.8305 1.10184 43.2982 10.5695 43.2982 22.2C43.2982 33.8305 33.8305 43.2982 22.2 43.2982Z" fill="var(--fill-0, #666460)"/>
<path id="Vector_2" d="M22.5676 6.61161C22.5676 6.61161 22.0779 6.44838 21.8739 6.61161C21.425 6.97889 11.0595 15.4263 11.0595 23.4248C11.0595 29.3829 15.7933 34.28 21.6698 34.5657V37.3815C21.6698 37.7079 21.9147 37.9528 22.2411 37.9528C22.5676 37.9528 22.8125 37.7079 22.8125 37.3815V34.5657C28.7297 34.28 33.4228 29.3829 33.4228 23.4248C33.4228 15.4671 23.0573 6.97889 22.6084 6.61161H22.5676ZM22.7717 33.4638V29.6278C24.7305 29.4646 26.5261 28.4035 27.6279 26.7712C27.7911 26.5263 27.7095 26.159 27.4647 25.9958C27.2198 25.8326 26.8525 25.9142 26.6893 26.159C25.7915 27.5057 24.3632 28.3627 22.7717 28.5259V22.2414C24.1183 22.0782 25.3426 21.3436 26.0772 20.2009C26.2404 19.9561 26.1588 19.5888 25.9139 19.4256C25.6691 19.2623 25.3018 19.344 25.1386 19.5888C24.5672 20.405 23.7103 20.9763 22.7308 21.1396V15.5487C22.7308 15.2223 22.486 14.9774 22.1595 14.9774C21.8331 14.9774 21.5882 15.2223 21.5882 15.5487V21.1396C20.6088 20.9763 19.7518 20.4458 19.1805 19.5888C19.0172 19.344 18.65 19.2623 18.4051 19.4256C18.1603 19.5888 18.0786 19.9561 18.2419 20.2009C19.0172 21.3436 20.2415 22.0782 21.5474 22.2414V28.5259C19.9558 28.3627 18.5275 27.5057 17.6297 26.159C17.4665 25.9142 17.0992 25.8326 16.8544 25.9958C16.6095 26.159 16.5279 26.5263 16.6911 26.7712C17.793 28.4443 19.5886 29.4646 21.5474 29.6278V33.4638C16.2422 33.1782 12.0389 28.7708 12.0389 23.4248C12.0389 16.773 20.2823 9.3458 22.1187 7.79507C23.9143 9.3458 32.1985 16.773 32.1985 23.4248C32.1985 28.7708 27.9952 33.1782 22.69 33.4638H22.7717Z" fill="var(--fill-0, #666460)"/>
</g>
</svg>
