<svg preserveAspectRatio="none" width="100%" height="100%" overflow="visible" style="display: block;" viewBox="0 0 47.0419 47.0419" fill="none" xmlns="http://www.w3.org/2000/svg">
<g id="Group 1000004353">
<path id="Vector" d="M28.2349 18.5486V14.4843H26.8081V11.7172C26.8081 10.9821 26.2028 10.4201 25.511 10.4201H23.6086C22.9168 10.4201 22.3979 10.9821 22.3547 11.6307H20.9279L16.2583 8.90676C15.0476 8.21497 13.6208 8.21497 12.4102 8.90676C11.1995 9.59855 10.5077 10.8524 10.5077 12.236C10.5077 13.6196 11.2428 14.8735 12.4102 15.5653C13.0155 15.9112 13.664 16.0841 14.3126 16.0841C14.9612 16.0841 15.6097 15.9112 16.215 15.5653L20.8846 12.8413H22.2682V14.4843H20.4523V18.5054C15.6962 20.1484 12.5399 24.5153 12.5399 29.5308C12.5399 36.5352 18.766 36.5352 24.2571 36.5352C29.7482 36.5352 35.9744 36.5352 35.9744 29.5308C35.9744 24.5586 32.8613 20.1916 28.1485 18.5486H28.2349ZM15.6097 14.4843C14.7882 14.9599 13.837 14.9599 13.0155 14.4843C12.194 14.0087 11.7184 13.1872 11.7184 12.236C11.7184 11.2848 12.194 10.4633 13.0155 9.98769C13.4046 9.72826 13.8802 9.64179 14.3126 9.64179C14.745 9.64179 15.2206 9.7715 15.6097 9.98769L19.501 12.236L15.6097 14.4843ZM23.6086 11.6307H25.511L25.5975 11.7172V14.4843H23.5653L23.6518 11.6307H23.6086ZM24.3436 35.3246C17.8148 35.3246 13.837 34.9355 13.837 29.5308C13.837 24.9045 16.8203 20.8834 21.317 19.5431L21.7494 19.4134V15.7382H22.3115H26.8081H26.9811V19.4566L27.4134 19.5863C31.8236 20.9699 34.807 24.9909 34.807 29.5741C34.807 34.9787 30.8292 35.3678 24.3004 35.3678L24.3436 35.3246Z" fill="var(--fill-0, #666460)"/>
<path id="Vector_2" d="M23.521 0C10.5498 0 0 10.5498 0 23.521C0 36.4921 10.5498 47.0419 23.521 47.0419C36.4921 47.0419 47.0419 36.4921 47.0419 23.521C47.0419 10.5498 36.4921 0 23.521 0ZM23.521 45.8745C11.1984 45.8745 1.1674 35.8435 1.1674 23.521C1.1674 11.1984 11.1984 1.1674 23.521 1.1674C35.8435 1.1674 45.8745 11.1984 45.8745 23.521C45.8745 35.8435 35.8435 45.8745 23.521 45.8745Z" fill="var(--fill-0, #666460)"/>
<path id="Vector_3" d="M7.73971 39.8211L6.87497 38.9564L38.8704 6.91774L39.7351 7.78248L7.73971 39.8211Z" fill="var(--fill-0, #666460)"/>
</g>
</svg>
