<svg preserveAspectRatio="none" width="100%" height="100%" overflow="visible" style="display: block;" viewBox="0 0 45.5827 45.5827" fill="none" xmlns="http://www.w3.org/2000/svg">
<g id="Group 1000006118">
<path id="Vector" d="M22.7913 44.9929C35.0529 44.9929 44.9929 35.0529 44.9929 22.7913C44.9929 10.5298 35.0529 0.589815 22.7913 0.589815C10.5298 0.589815 0.589815 10.5298 0.589815 22.7913C0.589815 35.0529 10.5298 44.9929 22.7913 44.9929Z" stroke="var(--stroke-0, #666460)" stroke-width="1.17963" stroke-miterlimit="10"/>
<path id="Vector_2" d="M22.9822 39.7056C32.3244 39.7056 39.8977 32.1323 39.8977 22.7902C39.8977 13.448 32.3244 5.87473 22.9822 5.87473C13.6401 5.87473 6.06678 13.448 6.06678 22.7902C6.06678 32.1323 13.6401 39.7056 22.9822 39.7056Z" stroke="var(--stroke-0, #666460)" stroke-width="1.43241" stroke-miterlimit="10" stroke-linecap="round" stroke-linejoin="round" stroke-dasharray="0.11 5.29"/>
<g id="Group 1000004960">
<path id="Vector 193" d="M19.5869 23.3183L22.23 26.4899L30.6877 17.5036" stroke="var(--stroke-0, #666460)" stroke-width="1.05722" stroke-miterlimit="10" stroke-linecap="round"/>
<path id="Vector_3" d="M22.194 32.3056C20.2447 32.3056 18.4614 31.6809 17.1135 30.5289L16.8854 30.3337C12.9039 26.6242 14.7702 19.5956 21.9244 11.5127L22.2355 11.1613L22.5465 11.5127C29.68 19.5761 31.5671 26.6047 27.5648 30.3142C26.217 31.5637 24.2677 32.2861 22.2355 32.3056H22.194ZM22.2355 12.3913C15.7656 19.8494 13.9407 26.4875 17.4867 29.7675L17.6941 29.9628C18.8761 30.978 20.4728 31.5442 22.2147 31.5442H22.2355C24.0603 31.5442 25.7815 30.8999 26.9842 29.787C30.5302 26.507 28.7054 19.8689 22.2355 12.4108V12.3913Z" fill="var(--fill-0, #666460)"/>
</g>
</g>
</svg>
