<svg preserveAspectRatio="none" width="100%" height="100%" overflow="visible" style="display: block;" viewBox="0 0 46.4793 46.0471" fill="none" xmlns="http://www.w3.org/2000/svg">
<g id="Group 1000004350">
<path id="Vector" d="M25.8983 46.0471C25.4227 46.0471 25.3362 45.7877 25.293 45.7012C25.2065 45.485 25.2065 45.3121 25.293 45.1391C25.3795 44.9662 25.5957 44.8365 25.8551 44.7933C28.8385 44.4474 31.6057 43.5394 34.1999 42.0261C38.048 39.821 40.9882 36.6648 42.9771 32.6437C43.8851 30.7846 44.5336 28.7957 44.8795 26.7635C45.2687 24.4288 45.3119 22.0507 44.966 19.7159C44.4904 16.5597 43.3662 13.6628 41.68 11.0686C39.2154 7.30701 35.8861 4.49662 31.7786 2.76715C29.8762 1.98889 27.9305 1.42681 25.9416 1.21063C25.6389 1.21063 25.4227 1.03768 25.293 0.821498C25.1633 0.605314 25.293 0.389131 25.3362 0.25942C25.5092 0 25.6389 0 25.7254 0C26.4172 0 27.0657 0.12971 27.6278 0.25942C29.2276 0.562078 30.7841 0.994445 32.2542 1.643C35.5402 3.02657 38.3507 5.0587 40.6423 7.6529C42.3718 9.64179 43.7986 11.8901 44.793 14.3546C45.4416 15.9976 45.874 17.5541 46.1334 19.0674L46.4793 21.186V21.8778V22.9155C46.4793 23.4775 46.4793 23.9964 46.4793 24.5585L46.2631 26.115C45.9604 28.5795 45.2254 31.044 44.0148 33.3788C42.5447 36.3189 40.5125 38.8266 37.9615 40.9452C35.9294 42.5882 33.6378 43.9285 31.13 44.8365C29.5303 45.3986 27.844 45.7877 26.1145 46.0039H25.9416L25.8983 46.0471Z" fill="var(--fill-0, #666460)"/>
<path id="Vector_2" d="M20.7107 46.0033C20.1054 46.0033 19.5001 45.8736 18.8515 45.7871C17.2517 45.4845 15.7384 45.0521 14.3116 44.4468C12.3659 43.6253 10.5067 42.5444 8.82046 41.2472C6.78831 39.6475 5.05881 37.7451 3.63198 35.54C2.63752 33.9835 1.85925 32.3405 1.25393 30.6542C0.778315 29.2707 0.432416 27.8439 0.172992 26.2009C0.172992 25.5091 0.172992 25.0335 0.0865172 24.6011C4.24705e-05 24.039 4.24705e-05 23.7796 4.24705e-05 23.5634V21.1854C0.172992 19.6721 0.389179 18.4183 0.778315 17.0779C1.3404 14.9593 2.20515 12.9272 3.32932 11.0248C5.6209 7.30641 8.69075 4.40955 12.5389 2.42066C14.2251 1.55593 15.9546 0.907375 17.7274 0.518244C18.5921 0.30206 19.5001 0.17235 20.3648 0.0426399C20.3648 0.0426399 20.4081 0.0426399 20.4513 0.0426399C20.8837 0.0426399 21.0134 0.17235 21.1431 0.388534C21.2296 0.561481 21.2296 0.734428 21.1431 0.907375C21.0134 1.12356 20.7972 1.25327 20.5378 1.25327C18.203 1.51269 15.9114 2.16124 13.7928 3.19892C9.2096 5.404 5.70737 8.86293 3.45903 13.446C2.50781 15.3484 1.85925 17.467 1.51335 19.6721C1.16745 21.7907 1.16745 23.8661 1.42688 25.8982C2.0322 30.2651 3.76169 34.1132 6.57212 37.3559C8.99341 40.1231 11.9768 42.2417 15.4358 43.5388C17.0356 44.1441 18.7218 44.5332 20.4081 44.7494C20.9702 44.7927 21.0566 44.9656 21.1431 45.225C21.2296 45.398 21.1431 45.6142 21.0566 45.8303C20.8837 46.0465 20.754 46.0465 20.7107 46.0465V46.0033Z" fill="var(--fill-0, #666460)"/>
<path id="Vector_3" d="M23.2173 32.7729C21.2284 32.7729 19.326 32.1675 17.6397 30.9569C15.9967 29.7895 14.786 28.1898 14.0942 26.2441C13.4889 24.5579 13.3592 22.8284 13.7051 21.1422C14.3537 17.9859 16.1264 15.6944 18.9801 14.2243C20.3204 13.5325 21.7473 13.1866 23.2173 13.1866C23.7794 13.1866 24.2983 13.2299 24.8603 13.3163C28.3193 13.9216 30.7406 15.8241 32.2107 19.1965C32.6863 20.2774 32.9457 21.5313 32.9457 22.9149C32.9457 23.1311 32.8593 23.3473 32.7295 23.5202C32.5566 23.6931 32.3404 23.7796 32.081 23.7796H21.7473C21.4014 23.7796 21.0122 23.6931 20.8393 23.2175C20.7528 22.9581 20.8393 22.6987 20.969 22.4825C21.1419 22.2663 21.3581 22.1366 21.6175 22.1366H31.7351L31 20.2342C30.9136 20.018 30.8271 19.8018 30.7406 19.5857C29.7894 17.5535 28.2761 16.17 26.2439 15.3917C25.2927 15.0026 24.255 14.8296 23.2606 14.8296C20.6231 14.8296 18.245 16.0835 16.6885 18.2453C15.3914 20.0613 14.8725 22.1799 15.2617 24.2985C15.867 27.5845 17.8559 29.8328 21.0122 30.784C21.8337 31.0434 22.6552 31.1299 23.4335 31.1299C25.2495 31.1299 26.9357 30.4813 28.4923 29.2275C28.7517 29.0113 28.9679 28.9248 29.1841 28.9248C29.3138 28.9248 29.4435 28.968 29.6165 29.0545C29.8326 29.1842 29.9624 29.4004 29.9624 29.6598C29.9624 29.9192 29.9191 30.1354 29.7462 30.3084C28.4923 31.4325 27.0654 32.1675 25.4657 32.4702C24.6874 32.6432 23.9091 32.7296 23.1741 32.7296L23.2173 32.7729Z" fill="var(--fill-0, #666460)"/>
<path id="Vector_4" d="M38.9563 21.185C38.6536 21.185 38.4375 21.012 38.351 20.7526L38.1348 19.8014C38.0483 19.3258 37.9186 18.8069 37.7457 18.3313C37.0539 16.1263 35.8864 14.1374 34.2434 12.4079C32.6436 10.7217 30.7412 9.46781 28.5361 8.68954C26.7634 7.99776 24.9474 7.73834 22.5693 7.73834C19.1104 7.82481 15.6946 9.25162 13.0139 11.6296C10.9817 13.4023 9.5549 15.6074 8.69015 18.1584C8.43073 18.8934 8.25778 19.6717 8.12806 20.5364C8.12806 20.7094 8.04159 20.9688 7.8254 21.0985L7.26332 21.185C6.87418 20.7958 6.83094 20.5364 6.87418 20.3202C7.17684 18.7205 7.56598 17.4234 8.12806 16.256C9.5549 13.0997 11.76 10.6352 14.7001 8.86249C16.1702 7.95452 17.8132 7.30597 19.5427 6.91684C20.7534 6.61418 22.0073 6.48447 23.2611 6.48447C23.9097 6.48447 24.5583 6.48447 25.2068 6.61418C26.9363 6.83036 28.5793 7.30597 30.0926 7.99776C33.6381 9.64075 36.3188 12.235 38.0483 15.7371C38.7834 17.2072 39.3022 18.8069 39.5616 20.5364C39.6049 20.8391 39.3887 21.185 39.1292 21.2282H38.9563V21.185Z" fill="var(--fill-0, #666460)"/>
<path id="Vector_5" d="M23.3919 39.5612C19.7168 39.518 16.6037 38.5668 13.8365 36.6211C11.1125 34.7187 9.08038 32.211 7.86973 29.1411C7.39412 27.9305 7.09146 26.8928 6.96175 25.8984C6.91851 25.4228 7.26441 25.2498 7.39412 25.2498H7.48059C7.9562 25.2498 8.12915 25.4228 8.17239 25.7254C8.69124 28.3629 9.77217 30.6544 11.3287 32.6433C12.9285 34.6322 14.9607 36.1455 17.2955 37.1399C19.1979 37.9614 21.1436 38.3506 23.046 38.3506C23.4352 38.3506 23.8243 38.3506 24.2135 38.3073C27.8022 38.0479 30.9585 36.7076 33.5527 34.2863C35.6714 32.3407 37.1414 29.9626 37.8765 27.2387C38.0062 26.7631 38.1359 26.2875 38.2224 25.7687C38.3088 25.4228 38.525 25.2498 38.8709 25.2498L39.3465 25.466C39.3465 25.466 39.4762 25.7687 39.4762 25.9416C39.1736 27.7576 38.5683 29.5303 37.617 31.2165C35.7146 34.5457 32.9042 37.0102 29.2722 38.4803C27.4563 39.2153 25.4241 39.6044 23.3487 39.6477L23.3919 39.5612Z" fill="var(--fill-0, #666460)"/>
</g>
</svg>
