<svg preserveAspectRatio="none" width="100%" height="100%" overflow="visible" style="display: block;" viewBox="0 0 45.5827 45.5827" fill="none" xmlns="http://www.w3.org/2000/svg">
<g id="Group 1000004959">
<path id="Vector" d="M22.7913 44.9929C35.0529 44.9929 44.9929 35.0529 44.9929 22.7913C44.9929 10.5298 35.0529 0.589815 22.7913 0.589815C10.5298 0.589815 0.589815 10.5298 0.589815 22.7913C0.589815 35.0529 10.5298 44.9929 22.7913 44.9929Z" stroke="var(--stroke-0, #666460)" stroke-width="1.17963" stroke-miterlimit="10"/>
<g id="Group 1000004958">
<path id="Vector_2" d="M10.4978 20.6211V22.1583C10.5331 22.9589 10.6035 24.4481 11.8296 25.6009C12.9781 26.6658 14.8594 27.1942 17.551 27.1942C18.0302 27.1942 18.5305 27.1942 19.066 27.1461C16.5575 27.7786 13.6897 29.0676 13.4009 31.6296C13.0767 34.5278 13.3586 36.065 14.3098 36.4813C14.4648 36.5454 14.6269 36.5854 14.796 36.5854C15.5993 36.5854 17.0014 35.8088 19.7706 32.166C21.1869 30.3086 22.4481 28.3551 22.9414 27.5705C23.4346 28.3551 24.6959 30.3086 26.1121 32.166C28.8813 35.8088 30.2764 36.5854 31.0867 36.5854C31.2558 36.5854 31.4179 36.5534 31.5729 36.4813C32.51 36.073 32.7849 34.5278 32.4819 31.6296C32.1718 29.0676 29.304 27.7786 26.8097 27.1301C27.3311 27.1621 27.8384 27.1782 28.3246 27.1782C31.0092 27.1782 32.8976 26.6498 34.0461 25.5849C35.2581 24.4481 35.3426 22.9509 35.3778 22.1423C35.399 21.6619 35.399 21.1495 35.3778 20.6051C35.3637 18.8037 35.3426 16.7541 36.2727 14.2482C36.7871 12.8471 36.6602 11.6702 35.9274 11.0137C34.6169 9.85283 31.8618 10.7735 28.7333 13.4236C24.9213 16.6421 23.4698 21.5658 22.9343 24.2639C22.3988 21.5658 20.9403 16.634 17.1424 13.4236C14.0068 10.7815 11.2518 9.86083 9.94119 11.0137C9.20839 11.6782 9.07451 12.8711 9.58183 14.2482C10.5119 16.7541 10.4908 18.8037 10.4908 20.6211H10.4978ZM31.6856 31.7417C32.045 34.9521 31.5165 35.5526 31.277 35.6567C31.2065 35.6807 31.129 35.6967 31.0585 35.6967C29.6423 35.6967 26.2037 31.2213 23.8151 27.4744C26.4715 27.7786 31.3686 28.9155 31.6856 31.7417ZM29.1843 14.1281C32.355 11.4461 34.6098 10.9817 35.4342 11.7183C35.8711 12.1106 35.9133 12.9112 35.5399 13.92C34.5605 16.586 34.5816 18.8277 34.5957 20.6371V22.1183C34.5534 23.039 34.4337 24.0958 33.5458 24.9204C31.9886 26.3695 28.5994 26.6898 23.4557 25.8812C23.6671 24.1999 24.7804 17.859 29.1702 14.1361L29.1843 14.1281ZM14.5776 35.6567C14.338 35.5526 13.8095 34.9682 14.1689 31.7417C14.4719 28.9155 19.376 27.7786 22.0535 27.4744C19.524 31.4214 15.8318 36.2091 14.5776 35.6567ZM10.4203 11.7103C10.7092 11.4861 11.0615 11.374 11.4138 11.398C12.5553 11.398 14.3732 12.1746 16.6773 14.1201C21.0671 17.835 22.1874 24.1839 22.4059 25.8571C17.2692 26.6658 13.8729 26.3455 12.3157 24.8964C11.4279 24.0718 11.3081 23.015 11.2659 22.0942C11.2447 21.6379 11.2447 21.1415 11.2659 20.6131C11.28 18.8117 11.3011 16.562 10.3217 13.8959C9.93414 12.8872 9.97642 12.0865 10.4203 11.6942V11.7103Z" fill="var(--fill-0, #666460)" stroke="var(--stroke-0, #666460)" stroke-width="0.24824"/>
</g>
</g>
</svg>
