<svg preserveAspectRatio="none" width="100%" height="100%" overflow="visible" style="display: block;" viewBox="0 0 46.7068 46.7068" fill="none" xmlns="http://www.w3.org/2000/svg">
<g id="Group 1000005962">
<path id="Vector" d="M23.3534 46.117C35.9254 46.117 46.117 35.9254 46.117 23.3534C46.117 10.7814 35.9254 0.589815 23.3534 0.589815C10.7814 0.589815 0.589815 10.7814 0.589815 23.3534C0.589815 35.9254 10.7814 46.117 23.3534 46.117Z" stroke="var(--stroke-0, #666460)" stroke-width="1.17963" stroke-miterlimit="10"/>
<path id="Vector_2" d="M26.3425 12.6844C31.5755 14.0123 35.4479 18.7547 35.4479 24.3998C35.4479 31.0784 30.0318 36.4946 23.3531 36.4946C18.3752 36.4946 14.0973 33.4791 12.2461 29.1814" stroke="var(--stroke-0, #666460)" stroke-width="1.05502" stroke-miterlimit="10"/>
<path id="Vector_3" d="M18.5053 38.3654H28.206" stroke="var(--stroke-0, #666460)" stroke-width="1.05502" stroke-miterlimit="10"/>
<path id="Vector_4" d="M7.72563 29.1817H15.7714" stroke="var(--stroke-0, #666460)" stroke-width="1.05502" stroke-miterlimit="10"/>
<g id="Group">
<path id="Vector_5" d="M28.1041 10.909L25.1763 7.98113L12.4935 20.6639L15.4214 23.5918L28.1041 10.909Z" stroke="var(--stroke-0, #666460)" stroke-width="1.05502" stroke-miterlimit="10"/>
<path id="Vector_6" d="M29.2562 8.74881L27.3367 6.82928L25.6808 8.48516L27.6003 10.4047L29.2562 8.74881Z" stroke="var(--stroke-0, #666460)" stroke-width="1.05502" stroke-miterlimit="10"/>
<path id="Vector_7" d="M14.9226 23.0874L13.003 21.1679L11.7496 22.4213L13.6691 24.3409L14.9226 23.0874Z" stroke="var(--stroke-0, #666460)" stroke-width="1.05502" stroke-miterlimit="10"/>
</g>
</g>
</svg>
