<svg preserveAspectRatio="none" width="100%" height="100%" overflow="visible" style="display: block;" viewBox="0 0 56.118 40.7801" fill="none" xmlns="http://www.w3.org/2000/svg">
<g id="Group 1000004349">
<path id="Vector" d="M50.0162 14.6151L53.3782 14.5321C51.6349 11.5435 49.3521 8.76257 46.4881 6.43817C39.764 1.08374 31.4211 -0.908598 23.5348 0.378123C30.3835 0.0460662 37.4396 2.12142 43.2506 6.81173C46.0315 9.05312 48.3144 11.7096 50.0162 14.6566V14.6151Z" fill="var(--fill-0, #666460)"/>
<path id="Vector_2" d="M15.1506 32.0486L11.996 33.1277C14.5695 35.4937 17.5995 37.403 21.0445 38.7727C29.0553 41.9273 37.6057 41.2216 44.7034 37.652C38.2699 40.0594 30.9231 40.2255 23.9915 37.486C20.6295 36.2408 17.6825 34.373 15.1506 32.0901V32.0486Z" fill="var(--fill-0, #666460)"/>
<path id="Vector_3" d="M28.0182 9.63337C28.8899 9.55036 29.3464 9.1768 31.6708 9.63337C31.6708 9.63337 34.8253 9.46734 40.6778 14.9878C42.4211 16.6481 43.3757 19.346 44.2889 19.5951C45.0775 19.8441 48.8131 20.0517 49.0622 21.5459C49.2282 22.7911 46.6963 25.2816 43.6248 25.074C44.1644 24.2439 45.9907 24.0364 46.8208 21.8365C45.8662 21.2554 44.3304 21.1724 42.9192 21.5874C40.2212 15.3614 32.3764 11.0446 29.637 10.7126C27.3956 10.422 26.5655 10.7956 25.1128 10.7126C26.0674 10.422 27.5201 9.63337 28.0182 9.63337Z" fill="var(--fill-0, #666460)"/>
<path id="Vector_4" d="M18.1807 2.08044C19.2599 2.08044 19.6334 2.08044 20.7126 2.74455L18.1807 2.95209C18.1807 2.95209 15.1922 3.69922 13.9885 6.10663C14.4866 6.5217 14.4866 6.60472 15.0262 6.64623C15.8978 6.64623 18.0147 3.82374 21.7088 3.82374C22.4144 3.82374 22.9955 4.11429 23.037 4.07278C23.4106 4.32183 23.286 4.69539 23.286 5.19348C23.286 5.19348 20.9201 10.6309 16.8525 10.6309H15.9393C18.5543 10.0083 20.4221 7.55938 21.7918 5.23498L19.0523 6.02362C17.143 6.56321 15.0677 8.30651 14.3621 8.30651C13.5734 8.30651 13.0339 7.60089 10.834 7.60089C9.13221 7.60089 7.2229 8.51405 6.30975 9.13665C6.72482 10.0498 7.59646 9.63474 8.26057 9.55172C8.26057 9.55172 8.01153 10.3819 5.93619 10.5479C5.93619 10.6309 6.39276 12.3327 7.47194 13.4119C8.75865 14.6986 10.7095 15.4042 11.3736 15.4042C11.3736 15.6948 11.4981 16.774 12.2867 18.2267C15.5243 24.4943 17.3091 19.3474 21.2107 25.5735V26.2791C19.0938 24.5358 15.8148 23.9132 14.03 23.6226C11.4981 23.2491 8.88317 23.6226 8.80016 23.6226C7.88701 23.8302 5.43811 24.3283 5.43811 24.3283C7.38893 21.9624 12.0377 21.8793 12.9093 21.5058C9.83783 18.4343 10.2114 17.4381 9.83783 16.9815C9.54728 16.6079 5.10605 16.1099 5.14756 9.9668C5.14756 7.76692 9.33975 6.10663 10.751 6.10663C13.1999 6.18965 14.0715 1.99743 18.2222 1.95592L18.1807 2.08044Z" fill="var(--fill-0, #666460)"/>
<path id="Vector_5" d="M11.5811 8.59759C12.1622 8.51457 12.0792 8.51457 12.8678 8.80512V9.55225C12.1207 9.38622 11 9.55225 9.83782 9.42773C10.4604 8.97115 10.6265 8.6806 11.5811 8.59759Z" fill="var(--fill-0, #666460)"/>
<path id="Vector_6" d="M3.77714 16.8568C5.52043 16.8568 7.76179 18.3095 7.96933 18.4755C6.80714 18.5586 6.64111 18.351 3.98467 18.5586C3.98467 18.5586 1.74331 18.6831 2.19197e-05 19.0566C1.24523 17.3548 0.996185 16.8153 3.77714 16.8568Z" fill="var(--fill-0, #666460)"/>
<path id="Vector_7" d="M37.6879 29.0593L40.5934 30.4291C43.9969 32.0894 47.2345 27.7311 48.4797 26.9425C49.0192 29.7235 51.7587 35.2854 55.7018 36.3646C55.1623 37.0287 54.4981 36.9457 53.751 36.9457C51.8417 36.9457 48.2306 33.8327 48.2306 31.4668C48.2306 31.4668 48.1476 29.6819 48.1476 29.3084C47.0684 31.4252 44.8271 32.7535 42.9177 32.7535C41.465 32.7535 41.1745 32.6705 39.8877 32.0479C39.5972 31.9233 32.7486 27.7311 32.375 24.7841C32.7071 24.9086 36.1936 28.4782 37.6879 29.0593Z" fill="var(--fill-0, #666460)"/>
<path id="Vector_8" d="M49.8909 38.7307L48.7703 38.8968C45.9893 38.4402 45.4912 34.414 46.2798 33.2933C46.2798 33.2933 46.7779 32.4631 47.193 32.0896C47.276 34.0819 47.4835 35.6592 47.6496 36.0743C48.1477 37.195 47.3175 36.6969 49.9324 38.6892L49.8909 38.7307Z" fill="var(--fill-0, #666460)"/>
<path id="Vector_9" d="M12.3685 32.0892L10.7498 30.3044L8.5084 31.176C8.88196 30.4704 9.42155 29.8478 9.79511 29.1007C9.29703 28.478 8.79894 27.8554 8.25936 27.2328C9.00648 27.3989 9.91963 27.6064 10.6668 27.8139L11.9535 25.7801C12.0365 26.5272 12.078 27.3574 12.161 28.146L14.5269 28.8101L12.2025 29.7233L12.327 32.0892H12.3685Z" fill="var(--fill-0, #666460)"/>
<path id="Vector_10" d="M55.0803 21.5054L52.9635 20.3017L51.0957 21.8374C51.2202 21.0488 51.5107 20.3017 51.6353 19.4715C50.9711 19.015 50.307 18.5999 49.6014 18.1433C50.3901 18.0603 51.3032 17.9773 52.0918 17.9358L52.6729 15.6114C53.005 16.317 53.2955 17.1056 53.6276 17.8112L56.118 17.6867L54.2087 19.3055L55.0388 21.5054H55.0803Z" fill="var(--fill-0, #666460)"/>
</g>
</svg>
