<svg preserveAspectRatio="none" width="100%" height="100%" overflow="visible" style="display: block;" viewBox="0 0 118.065 65.5933" fill="none" xmlns="http://www.w3.org/2000/svg">
<g id="Logo">
<path id="Vector" d="M77.2296 32.2273C77.1973 37.2843 75.4998 41.5506 72.1339 45.023C68.7679 48.4987 64.3822 50.2188 58.9735 50.1833C53.5647 50.1478 49.2016 48.3728 45.8808 44.8552C42.56 41.3376 40.9174 37.0519 40.9497 31.9949C40.982 26.9379 42.6795 22.6716 46.0454 19.1959C49.4081 15.7203 53.7971 14.0002 59.2026 14.0357C64.6113 14.0712 68.9745 15.8461 72.2952 19.3638C75.6128 22.8814 77.2586 27.1703 77.2264 32.2241M66.0055 29.9199C64.479 25.0985 62.8267 22.052 60.4967 19.1217C58.1667 16.1914 56.2852 15.7267 54.2231 16.3819C52.1609 17.0337 50.7054 18.5537 50.486 22.2908C50.2665 26.0279 50.6441 29.4777 52.1706 34.2991C53.697 39.1205 55.4333 41.8249 57.7633 44.752C60.0933 47.6822 62.1006 48.1599 64.1628 47.508C66.2249 46.8561 67.5545 45.3199 67.774 41.5829C67.9934 37.8458 67.5319 34.738 66.0055 29.9166" fill="var(--fill-0, #666460)"/>
<path id="Vector_2" d="M34.108 13.6576L28.5541 13.6221V13.9578C34.3662 15.8715 31.9071 31.0586 27.6182 41.4985L15.9035 18.3725C14.7676 15.4487 11.9599 13.5156 8.8231 13.4963L3.98233 13.464L0 13.4414V13.777C2.53979 14.5741 4.94081 16.6783 6.23813 19.3794L22.0577 49.5406C24.3749 54.3814 18.7886 62.5655 12.5376 59.8417L12.5021 65.5926C17.0137 65.6571 20.8508 61.1326 23.936 54.7719L38.1969 19.786C39.3845 16.8719 37.2545 13.6802 34.108 13.6609" fill="var(--fill-0, #666460)"/>
<path id="Vector_3" d="M108.629 41.5875C108.409 45.3245 107.08 46.8574 105.018 47.5126C102.955 48.1644 100.948 47.6868 98.6181 44.7565C96.288 41.8263 94.5518 39.1219 93.0254 34.3037C92.6962 33.2613 92.4219 32.2867 92.1928 31.3573H115.325L118.065 31.3993C117.92 26.7037 116.28 22.6923 113.147 19.3716C109.826 15.854 105.463 14.079 100.054 14.0435C94.6454 14.008 90.2597 15.7281 86.897 19.2038C83.531 22.6794 81.8335 26.9458 81.8012 32.0027C81.769 37.0597 83.4116 41.3454 86.7324 44.863C90.0499 48.3807 94.4163 50.1556 99.825 50.1911C105.234 50.2266 109.62 48.5065 112.985 45.0309C114.07 43.911 114.98 42.7073 115.716 41.4229L108.667 39.2219C108.687 39.9997 108.674 40.7807 108.629 41.5939V41.5875ZM91.3408 22.2954C91.5602 18.5583 93.0157 17.0383 95.0778 16.3864C97.14 15.7345 99.0215 16.196 101.351 19.1263C103.669 22.0404 105.314 25.0708 106.834 29.847H91.8571C91.315 27.1329 91.1956 24.7771 91.3408 22.2954Z" fill="var(--fill-0, #666460)"/>
<path id="Vector_4" d="M106.562 0L96.6161 0.0645435L92.9727 9.41367L94.4798 9.40399L106.562 0Z" fill="var(--fill-0, #666460)"/>
</g>
</svg>
