<svg preserveAspectRatio="none" width="100%" height="100%" overflow="visible" style="display: block;" viewBox="0 0 23.5088 59.7871" fill="none" xmlns="http://www.w3.org/2000/svg">
<path id="Union" d="M22.9951 8.24609C23.3287 9.33571 23.5088 10.4925 23.5088 11.6914C23.5088 15.5383 21.6604 18.9533 18.8037 21.0977H20.3281C21.2468 21.0979 21.9912 21.843 21.9912 22.7617V53.1318C21.9912 56.8071 19.0121 59.787 15.3369 59.7871H8.16992C4.49481 59.7868 1.51562 56.807 1.51562 53.1318V22.7617C1.51562 21.8429 2.26085 21.0977 3.17969 21.0977H4.70508C1.84832 18.9533 2.75091e-06 15.5384 0 11.6914C0 5.6127 4.61427 0.611698 10.5312 0L22.9951 8.24609Z" fill="var(--fill-0, #666460)"/>
</svg>
