<svg preserveAspectRatio="none" width="100%" height="100%" overflow="visible" style="display: block;" viewBox="0 0 25.6865 33.8613" fill="none" xmlns="http://www.w3.org/2000/svg">
<g id="Group 2222">
<g id="Group 1209">
<path id="Subtract" d="M25.6865 26.3809H14.1895C13.989 26.1298 13.7099 25.9345 13.3447 25.8301C14.1496 25.508 14.4585 24.9447 14.459 24.207H23.3555L21.8232 2.17383H3.8623L2.33008 24.207H13.1904C13.1943 24.2494 13.1963 24.2938 13.1963 24.3398C13.1962 24.9977 12.874 25.3467 12.0684 25.3467H11.6924V26.3809H0L1.83496 0H23.8516L25.6865 26.3809Z" fill="var(--fill-0, #666460)"/>
<path id="Ellipse 4" d="M7.92473 5.13229C7.92473 7.84007 10.1198 10.0352 12.8276 10.0352C15.5354 10.0352 17.7305 7.84007 17.7305 5.13229" stroke="var(--stroke-0, #666460)" stroke-width="2.17384"/>
<circle id="Ellipse 5" cx="7.92652" cy="5.13355" r="0.817145" fill="var(--fill-0, #666460)"/>
<circle id="Ellipse 6" cx="17.7312" cy="5.13355" r="0.817145" fill="var(--fill-0, #666460)"/>
</g>
<path id="Subtract_2" d="M12.8271 18.8242C16.9794 18.8243 20.3457 22.1905 20.3457 26.3428C20.3457 30.495 16.9794 33.8613 12.8271 33.8613C8.67484 33.8613 5.30864 30.4951 5.30859 26.3428C5.30859 22.1904 8.67481 18.8242 12.8271 18.8242ZM12.3643 22.3525C12.0017 22.3525 11.5855 22.3931 11.2363 22.4736V23.5479C11.5048 23.4807 11.827 23.4268 12.1357 23.4268C12.834 23.4268 13.1963 23.7087 13.1963 24.3398C13.1962 24.9977 12.874 25.3467 12.0684 25.3467H11.6924V26.4482H12.0684C12.9009 26.4482 13.2637 26.7571 13.2637 27.5762C13.2636 28.3414 12.8205 28.7168 12.0283 28.7168C11.7598 28.7168 11.478 28.6902 11.2363 28.623V29.6973C11.478 29.7778 11.7464 29.792 12.082 29.792C13.6531 29.792 14.5801 29.0525 14.5801 27.5889C14.5799 26.7968 14.1904 26.0718 13.3447 25.8301C14.1502 25.5078 14.459 24.9435 14.459 24.2051C14.4588 23.0236 13.6398 22.3526 12.3643 22.3525Z" fill="var(--fill-0, #666460)"/>
</g>
</svg>
