<svg preserveAspectRatio="none" width="100%" height="100%" overflow="visible" style="display: block;" viewBox="0 0 66.2823 36.8254" fill="none" xmlns="http://www.w3.org/2000/svg">
<g id="Logo">
<path id="Vector" d="M43.3565 18.0921C43.3384 20.9312 42.3854 23.3263 40.4957 25.2758C38.6061 27.227 36.1439 28.1927 33.1074 28.1728C30.0709 28.1529 27.6213 27.1564 25.757 25.1816C23.8927 23.2067 22.9705 20.8007 22.9887 17.9617C23.0068 15.1226 23.9598 12.7275 25.8494 10.7762C27.7373 8.82495 30.2013 7.85928 33.236 7.87921C36.2725 7.89914 38.722 8.89561 40.5863 10.8704C42.4488 12.8453 43.3728 15.2531 43.3547 18.0903M37.0552 16.7967C36.1982 14.0899 35.2706 12.3796 33.9625 10.7345C32.6544 9.08947 31.5982 8.82857 30.4405 9.19636C29.2827 9.56234 28.4656 10.4157 28.3424 12.5137C28.2192 14.6117 28.4312 16.5485 29.2882 19.2553C30.1451 21.9621 31.1199 23.4803 32.428 25.1236C33.7361 26.7687 34.863 27.0368 36.0207 26.6708C37.1784 26.3049 37.9249 25.4425 38.0481 23.3444C38.1713 21.2464 37.9122 19.5017 37.0552 16.7949" fill="var(--fill-0, #666460)"/>
<path id="Vector_2" d="M19.1485 7.66826L16.0305 7.64833V7.83676C19.2935 8.91113 17.9129 17.4373 15.5051 23.2984L8.92838 10.3153C8.29063 8.67379 6.7144 7.58855 4.95336 7.57767L2.23572 7.55956L0 7.54688V7.7353C1.42586 8.1828 2.77381 9.36407 3.50214 10.8805L12.3834 27.8133C13.6843 30.5309 10.5481 35.1256 7.0387 33.5964L7.01878 36.825C9.55162 36.8612 11.7058 34.3211 13.4379 30.7501L21.444 11.1088C22.1108 9.47278 20.915 7.68095 19.1485 7.67008" fill="var(--fill-0, #666460)"/>
<path id="Vector_3" d="M60.9846 23.3465C60.8614 25.4446 60.1149 26.3051 58.9572 26.6729C57.7995 27.0389 56.6726 26.7708 55.3645 25.1257C54.0564 23.4806 53.0816 21.9623 52.2247 19.2574C52.0399 18.6722 51.8859 18.125 51.7572 17.6032H64.744L66.2822 17.6268C66.2006 14.9907 65.2803 12.7386 63.521 10.8743C61.6567 8.89952 59.2072 7.90304 56.1707 7.88311C53.1342 7.86319 50.672 8.82886 48.7841 10.7801C46.8945 12.7314 45.9415 15.1266 45.9234 17.9656C45.9052 20.8046 46.8274 23.2106 48.6917 25.1855C50.5542 27.1603 53.0055 28.1568 56.0421 28.1767C59.0786 28.1966 61.5408 27.2309 63.4304 25.2797C64.0392 24.651 64.5501 23.9752 64.9632 23.2541L61.0063 22.0185C61.0172 22.4551 61.0099 22.8936 60.9846 23.3502V23.3465ZM51.2789 12.5158C51.4021 10.4178 52.2192 9.56443 53.377 9.19846C54.5347 8.83248 55.5909 9.09156 56.899 10.7366C58.1999 12.3727 59.1239 14.0739 59.9772 16.7553H51.5688C51.2644 15.2316 51.1974 13.909 51.2789 12.5158Z" fill="var(--fill-0, #666460)"/>
<path id="Vector_4" d="M59.8248 0L54.2409 0.0362353L52.1954 5.28492L53.0415 5.27948L59.8248 0Z" fill="var(--fill-0, #666460)"/>
</g>
</svg>
