<svg preserveAspectRatio="none" width="100%" height="100%" overflow="visible" style="display: block;" viewBox="0 0 15.7676 40.1006" fill="none" xmlns="http://www.w3.org/2000/svg">
<path id="Union" d="M15.4238 5.53027C15.6476 6.26111 15.7676 7.03768 15.7676 7.8418C15.7675 10.4221 14.5275 12.7122 12.6113 14.1504H13.6357C14.2518 14.1507 14.751 14.6505 14.751 15.2666V35.6367C14.7509 38.1017 12.753 40.1003 10.2881 40.1006H5.48145C3.01635 40.1006 1.01762 38.1018 1.01758 35.6367V15.2666C1.01758 14.6503 1.51751 14.1504 2.13379 14.1504H3.15625C1.2401 12.7122 4.20949e-05 10.4221 0 7.8418C0 3.7647 3.09486 0.410303 7.06348 0L15.4238 5.53027Z" fill="var(--fill-0, #666460)"/>
</svg>
