<svg preserveAspectRatio="none" width="100%" height="100%" overflow="visible" style="display: block;" viewBox="0 0 26.4163 24.6447" fill="none" xmlns="http://www.w3.org/2000/svg">
<g id="Group 1000006206">
<path id="Vector" d="M0.400391 17.1343C0.400391 17.1343 1.98127 15.0144 6.7239 15.0144C11.4665 15.0144 13.478 19.3199 18.2239 19.3199C22.9698 19.3199 26.056 16.1056 26.056 16.1056" stroke="var(--stroke-0, #666460)" stroke-miterlimit="10"/>
<path id="Vector_2" d="M3.13485 21.1868C3.68044 20.49 4.87347 20.0233 6.56938 20.0233C11.082 20.0233 12.9028 24.1447 17.4153 24.1447C18.1975 24.1447 20.3569 23.9475 21.4349 23.1522" stroke="var(--stroke-0, #666460)" stroke-miterlimit="10"/>
<path id="Vector_3" d="M8.53152 3.77409L10.2504 0.217932L8.54466 3.78066L12.3966 2.9097L8.54795 3.79381L11.6308 6.26208L8.5381 3.80695L8.53152 7.75422L8.52494 3.80695L5.43221 6.26208L8.51509 3.79381L4.66642 2.9097L8.51838 3.78066L6.80932 0.217932L8.53152 3.77409Z" stroke="var(--stroke-0, #666460)" stroke-miterlimit="10"/>
<path id="Vector_4" d="M19.5221 10.3047L21.057 8.20448L19.5352 10.3112L22.0068 11.123L19.5287 10.3244L19.5221 12.9274L19.5155 10.3244L17.0407 11.123L19.5122 10.3112L17.9872 8.20448L19.5221 10.3047Z" stroke="var(--stroke-0, #666460)" stroke-miterlimit="10"/>
</g>
</svg>
