<svg preserveAspectRatio="none" width="100%" height="100%" overflow="visible" style="display: block;" viewBox="0 0 27.7854 21.3737" fill="none" xmlns="http://www.w3.org/2000/svg">
<g id="Group 1000006204">
<path id="Vector" d="M17.5474 9.94891C17.5474 9.94891 16.8934 5.59739 21.475 0.808742" stroke="var(--stroke-0, #666460)" stroke-miterlimit="10"/>
<path id="Vector_2" d="M18.6814 1.8605L21.5309 0.756182L21.2975 3.44795" stroke="var(--stroke-0, #666460)" stroke-miterlimit="10"/>
<path id="Vector_3" d="M10.1426 9.94891C10.1426 9.94891 10.7966 5.59739 6.21502 0.808742" stroke="var(--stroke-0, #666460)" stroke-miterlimit="10"/>
<path id="Vector_4" d="M9.01201 1.8605L6.1592 0.756182L6.39584 3.44795" stroke="var(--stroke-0, #666460)" stroke-miterlimit="10"/>
<path id="Vector_5" d="M27.7854 15.8846C24.3114 15.8846 24.3114 13.63 20.8407 13.63C17.37 13.63 17.3667 15.8846 13.896 15.8846C10.4253 15.8846 10.422 13.63 6.94801 13.63C3.47402 13.63 3.47402 15.8846 3.38554e-05 15.8846" stroke="var(--stroke-0, #666460)" stroke-miterlimit="10"/>
<path id="Vector_6" d="M23.9761 20.8737C21.4552 20.8737 21.4552 18.9543 18.9344 18.9543C16.4135 18.9543 16.4135 20.8737 13.8927 20.8737C11.3718 20.8737 11.3718 18.9543 8.85095 18.9543C6.33009 18.9543 6.33009 20.8737 3.80923 20.8737" stroke="var(--stroke-0, #666460)" stroke-miterlimit="10"/>
</g>
</svg>
