<svg preserveAspectRatio="none" width="100%" height="100%" overflow="visible" style="display: block;" viewBox="0 0 29.6687 29.6719" fill="none" xmlns="http://www.w3.org/2000/svg">
<g id="Group 1000006207">
<path id="Vector" d="M14.5993 6.52398L14.7965 5.51169C14.8031 5.47225 14.8623 5.47225 14.8688 5.51169L15.066 6.52398C15.8712 10.6323 19.0823 13.8401 23.1906 14.6486L24.2029 14.8458C24.2423 14.8523 24.2423 14.9115 24.2029 14.9181L23.1906 15.1153C19.0823 15.9205 15.8745 19.1316 15.066 23.2399L14.8688 24.2522C14.8623 24.2916 14.8031 24.2916 14.7965 24.2522L14.5993 23.2399C13.7941 19.1316 10.583 15.9238 6.47472 15.1153L5.46244 14.9181C5.423 14.9115 5.423 14.8523 5.46244 14.8458L6.47472 14.6486C10.583 13.8433 13.7908 10.6323 14.5993 6.52398Z" stroke="var(--stroke-0, #666460)" stroke-miterlimit="10"/>
<path id="Vector_2" d="M14.8326 4.76837e-07V2.92183" stroke="var(--stroke-0, #666460)" stroke-miterlimit="10"/>
<path id="Vector_3" d="M14.8326 26.75V29.6719" stroke="var(--stroke-0, #666460)" stroke-miterlimit="10"/>
<path id="Vector_4" d="M3.98017 25.7345L7.47388 22.244" stroke="var(--stroke-0, #666460)" stroke-miterlimit="10"/>
<path id="Vector_5" d="M22.2769 7.44096L25.6851 4.02942" stroke="var(--stroke-0, #666460)" stroke-miterlimit="10"/>
<path id="Vector_6" d="M25.6851 25.7345L22.1947 22.244" stroke="var(--stroke-0, #666460)" stroke-miterlimit="10"/>
<path id="Vector_7" d="M7.39171 7.44096L3.98017 4.02942" stroke="var(--stroke-0, #666460)" stroke-miterlimit="10"/>
<path id="Vector_8" d="M4.673e-05 14.8359H2.91855" stroke="var(--stroke-0, #666460)" stroke-miterlimit="10"/>
<path id="Vector_9" d="M26.7467 14.8359H29.6686" stroke="var(--stroke-0, #666460)" stroke-miterlimit="10"/>
</g>
</svg>
