<svg preserveAspectRatio="none" width="100%" height="100%" overflow="visible" style="display: block;" viewBox="0 0 25.6951 24.5261" fill="none" xmlns="http://www.w3.org/2000/svg">
<g id="Group 1000006205">
<path id="Vector" d="M12.8476 0.999843L8.58479 8.38165C6.69168 11.6617 9.05807 15.7635 12.8476 15.7635C16.6371 15.7635 19.0035 11.6617 17.1104 8.38165L12.8476 0.999843Z" stroke="var(--stroke-0, #666460)" stroke-miterlimit="10"/>
<path id="Vector_2" d="M25.695 19.1454C22.484 19.1454 22.484 16.9795 19.2729 16.9795C16.0619 16.9795 16.0619 19.1454 12.8508 19.1454C9.63974 19.1454 9.63974 16.9795 6.4254 16.9795C3.21106 16.9795 3.21434 19.1454 0 19.1454" stroke="var(--stroke-0, #666460)" stroke-miterlimit="10"/>
<path id="Vector_3" d="M22.3788 23.4575C22.3788 23.4575 21.4585 21.9687 19.6607 21.9687C17.8629 21.9687 17.9385 24.0261 16.522 24.0261C15.1055 24.0261 13.9946 22.9974 13.9946 22.9974" stroke="var(--stroke-0, #666460)" stroke-miterlimit="10"/>
<path id="Vector_4" d="M2.9219 23.4575C2.9219 23.4575 3.84216 21.9687 5.63995 21.9687C7.43775 21.9687 7.36216 24.0261 8.77871 24.0261C10.1953 24.0261 11.3061 22.9974 11.3061 22.9974" stroke="var(--stroke-0, #666460)" stroke-miterlimit="10"/>
</g>
</svg>
